<svg width="375" height="812" viewBox="0 0 375 812" fill="none" xmlns="http://www.w3.org/2000/svg">
<g clip-path="url(#clip0_222_1935)">
<rect width="375" height="812" fill="url(#paint0_linear_222_1935)"/>
<circle opacity="0.5" cx="274.593" cy="782.593" r="145.407" stroke="#E83939" stroke-width="70"/>
<circle opacity="0.5" cx="12.3205" cy="691.632" r="22.3205" stroke="#E83939" stroke-width="16"/>
<circle opacity="0.3" cx="306.429" cy="718.92" r="15.1603" fill="white"/>
<circle opacity="0.1" cx="111.606" cy="502.452" r="45.3942" fill="white"/>
<path opacity="0.1" d="M173.164 243.842C174.444 241.229 176.625 239.167 179.306 238.034C181.986 236.901 184.985 236.774 187.752 237.676C190.518 238.578 192.866 240.449 194.363 242.945C195.86 245.44 196.405 248.392 195.899 251.258C197.444 249.318 198.624 247.272 199.279 245.298C199.297 245.243 199.318 245.189 199.341 245.137C195.731 239.765 194.358 233.197 195.515 226.829C196.086 223.611 197.293 220.539 199.065 217.793C200.838 215.047 203.14 212.682 205.837 210.836C206.205 210.583 206.658 210.485 207.098 210.563C207.538 210.642 207.929 210.891 208.187 211.256C210.07 213.915 211.403 216.924 212.106 220.105C212.81 223.287 212.871 226.577 212.285 229.782C211.713 233.025 210.501 236.121 208.72 238.891C213.18 237.252 218.016 236.923 222.656 237.943C227.297 238.962 231.55 241.287 234.913 244.644C235.231 244.962 235.41 245.393 235.41 245.843C235.41 246.293 235.231 246.725 234.913 247.043C230.55 251.414 224.716 254.005 218.548 254.311C212.379 254.616 206.318 252.615 201.544 248.696C200.847 250.116 200.016 251.465 199.062 252.727C201.793 252.596 204.486 253.396 206.703 254.995C208.92 256.594 210.529 258.897 211.266 261.529C212.004 264.161 211.827 266.965 210.765 269.483C209.702 272.002 207.817 274.085 205.417 275.393C206.623 277.357 207.246 279.622 207.216 281.926C207.191 285.072 205.929 288.081 203.702 290.303C201.772 292.228 199.25 293.444 196.543 293.756C193.835 294.068 191.102 293.457 188.786 292.021C188.32 292.763 187.775 293.45 187.159 294.072C185.11 296.116 182.395 297.358 179.508 297.571C176.621 297.785 173.753 296.957 171.425 295.237C170.839 296.35 170.086 297.368 169.192 298.253C168.07 299.375 166.738 300.265 165.273 300.872C163.807 301.479 162.236 301.792 160.649 301.792C159.063 301.792 157.491 301.479 156.026 300.872C154.56 300.265 153.228 299.375 152.106 298.253C150.984 297.131 150.094 295.799 149.487 294.334C148.88 292.868 148.567 291.297 148.567 289.71C148.567 288.124 148.88 286.552 149.487 285.087C150.094 283.621 150.984 282.289 152.106 281.167C152.842 280.436 153.673 279.807 154.576 279.297C152.502 276.996 151.389 273.988 151.467 270.891C151.546 267.794 152.809 264.846 154.997 262.653C155.707 261.953 156.508 261.352 157.378 260.865C155.965 258.551 155.37 255.829 155.688 253.135C156.007 250.442 157.222 247.934 159.137 246.014C160.937 244.202 163.27 243.015 165.794 242.624C168.318 242.233 170.9 242.66 173.164 243.842ZM190.15 243.022C188.935 241.807 187.387 240.98 185.701 240.645C184.016 240.309 182.269 240.481 180.682 241.139C179.094 241.796 177.737 242.91 176.782 244.339C175.828 245.768 175.318 247.447 175.318 249.166C175.318 250.884 175.828 252.564 176.782 253.993C177.737 255.421 179.094 256.535 180.681 257.193C182.269 257.85 184.016 258.022 185.701 257.687C187.387 257.352 188.935 256.524 190.15 255.309C191.777 253.679 192.69 251.469 192.69 249.166C192.69 246.862 191.777 244.653 190.15 243.022ZM175.519 274.838C177.15 276.465 179.359 277.378 181.663 277.378C183.966 277.378 186.175 276.465 187.806 274.838C188.658 273.961 189.331 272.927 189.788 271.793C188.844 270.462 188.178 268.955 187.831 267.361C187.484 265.766 187.463 264.118 187.769 262.516C187.512 262.261 187.239 262.024 186.951 261.806C186.749 261.723 186.565 261.601 186.41 261.448C186.399 261.437 186.389 261.424 186.379 261.412C186.199 261.3 186.017 261.197 185.832 261.101C183.652 261.433 181.424 261.165 179.385 260.326C177.928 260.727 176.598 261.493 175.519 262.551C173.892 264.182 172.979 266.391 172.979 268.694C172.979 270.998 173.892 273.207 175.519 274.838ZM208.946 229.185C209.857 224.196 208.94 219.047 206.363 214.68C202.409 217.889 199.743 222.416 198.854 227.43C197.942 232.446 198.846 237.623 201.404 242.033C205.382 238.798 208.06 234.236 208.946 229.185ZM231.212 245.842C227.327 242.558 222.404 240.757 217.317 240.757C212.23 240.757 207.308 242.558 203.423 245.842C207.308 249.125 212.231 250.927 217.317 250.927C222.404 250.927 227.327 249.125 231.212 245.842ZM205.774 258.646C204.559 257.431 203.011 256.604 201.325 256.268C199.64 255.933 197.893 256.105 196.305 256.763C194.718 257.42 193.361 258.534 192.406 259.963C191.451 261.391 190.942 263.071 190.942 264.789C190.942 266.508 191.451 268.188 192.406 269.616C193.361 271.045 194.718 272.159 196.305 272.816C197.893 273.474 199.64 273.646 201.325 273.311C203.01 272.976 204.558 272.148 205.773 270.933C207.4 269.302 208.314 267.093 208.314 264.79C208.314 262.486 207.401 260.277 205.774 258.646ZM201.302 287.903C202.771 286.431 203.663 284.481 203.818 282.408C203.972 280.334 203.378 278.274 202.144 276.6C200.441 276.962 198.681 276.952 196.983 276.571C195.284 276.19 193.689 275.447 192.304 274.392C191.746 275.438 191.039 276.396 190.206 277.238C189.217 278.229 188.063 279.039 186.796 279.632C186.314 281.472 186.453 283.42 187.191 285.174C187.929 286.927 189.225 288.388 190.878 289.331C192.53 290.273 194.448 290.644 196.332 290.385C198.217 290.127 199.964 289.255 201.303 287.903L201.302 287.903ZM184.76 291.671C185.306 291.117 185.776 290.492 186.157 289.814C185.062 288.575 184.233 287.125 183.721 285.553C183.209 283.981 183.024 282.32 183.179 280.674C181.577 280.878 179.951 280.758 178.396 280.322C176.841 279.887 175.389 279.143 174.127 278.137C173.525 278.482 172.97 278.901 172.473 279.385C170.844 281.014 169.929 283.224 169.929 285.528C169.929 287.833 170.844 290.042 172.473 291.672C174.103 293.301 176.313 294.216 178.617 294.216C180.921 294.216 183.131 293.301 184.76 291.672L184.76 291.671ZM154.506 295.853C156.136 297.48 158.346 298.393 160.649 298.393C162.952 298.393 165.162 297.479 166.792 295.853C167.719 294.957 168.424 293.857 168.851 292.641C167.834 291.241 167.129 289.639 166.784 287.942C166.439 286.246 166.462 284.496 166.851 282.809C165.29 283.252 163.656 283.377 162.047 283.177C160.437 282.977 158.883 282.456 157.478 281.646C156.37 282.082 155.359 282.735 154.506 283.566C152.879 285.196 151.965 287.406 151.965 289.709C151.965 292.012 152.879 294.221 154.505 295.852L154.506 295.853ZM157.396 277.338C159.027 278.965 161.236 279.879 163.54 279.879C165.843 279.879 168.052 278.965 169.683 277.338C170.376 276.656 170.937 275.851 171.337 274.964C169.794 272.413 169.246 269.382 169.797 266.452C167.986 266.76 166.128 266.657 164.362 266.151C162.596 265.645 160.966 264.749 159.593 263.528C158.782 263.911 158.04 264.426 157.397 265.051C155.77 266.682 154.856 268.891 154.856 271.195C154.856 273.498 155.769 275.708 157.396 277.338L157.396 277.338ZM161.537 260.699C162.798 261.942 164.404 262.777 166.147 263.094C167.889 263.411 169.686 263.196 171.305 262.477C171.812 261.631 172.422 260.85 173.12 260.153C173.819 259.455 174.604 258.849 175.455 258.349C175.526 258.202 175.594 258.051 175.658 257.895C175.593 257.833 175.527 257.774 175.463 257.71C174.098 256.344 173.081 254.671 172.497 252.832C171.912 250.992 171.777 249.039 172.103 247.136C170.29 246.045 168.139 245.656 166.058 246.043C163.977 246.429 162.109 247.565 160.808 249.234C159.507 250.904 158.863 252.993 158.997 255.105C159.131 257.218 160.034 259.208 161.535 260.7L161.537 260.699Z" fill="white"/>
<path d="M175.997 247.449C177.024 245.352 178.774 243.697 180.924 242.788C183.075 241.879 185.481 241.777 187.701 242.501C189.92 243.225 191.804 244.726 193.005 246.728C194.206 248.73 194.643 251.099 194.237 253.398C195.477 251.841 196.424 250.2 196.949 248.616C196.963 248.572 196.98 248.529 196.999 248.487C194.102 244.177 193.001 238.908 193.929 233.798C194.387 231.216 195.356 228.752 196.778 226.549C198.2 224.346 200.047 222.448 202.211 220.967C202.506 220.764 202.87 220.685 203.223 220.748C203.576 220.811 203.889 221.011 204.096 221.304C205.607 223.437 206.676 225.851 207.241 228.404C207.805 230.957 207.854 233.596 207.384 236.168C206.925 238.769 205.953 241.253 204.524 243.476C208.102 242.161 211.982 241.897 215.705 242.715C219.429 243.533 222.84 245.398 225.539 248.091C225.794 248.347 225.937 248.693 225.937 249.054C225.937 249.415 225.794 249.761 225.539 250.017C222.038 253.524 217.358 255.602 212.409 255.847C207.46 256.093 202.597 254.487 198.767 251.343C198.207 252.482 197.541 253.565 196.775 254.576C198.966 254.472 201.127 255.113 202.906 256.396C204.684 257.679 205.975 259.527 206.567 261.639C207.159 263.75 207.017 266 206.164 268.021C205.312 270.041 203.799 271.712 201.874 272.762C202.841 274.337 203.342 276.155 203.317 278.003C203.297 280.527 202.285 282.942 200.498 284.725C198.95 286.268 196.926 287.244 194.754 287.495C192.582 287.745 190.389 287.255 188.53 286.103C188.157 286.698 187.72 287.249 187.226 287.748C185.581 289.388 183.403 290.384 181.087 290.556C178.771 290.727 176.47 290.063 174.602 288.683C174.132 289.576 173.528 290.393 172.81 291.103C171.91 292.003 170.841 292.717 169.665 293.204C168.489 293.691 167.229 293.942 165.956 293.942C164.683 293.942 163.423 293.691 162.247 293.204C161.071 292.717 160.002 292.003 159.102 291.103C158.202 290.203 157.488 289.134 157.001 287.958C156.513 286.782 156.263 285.522 156.263 284.249C156.263 282.976 156.513 281.715 157.001 280.539C157.488 279.363 158.202 278.295 159.102 277.395C159.692 276.808 160.359 276.303 161.084 275.894C159.419 274.048 158.527 271.634 158.589 269.15C158.652 266.666 159.666 264.3 161.421 262.54C161.991 261.979 162.634 261.497 163.332 261.106C162.198 259.249 161.72 257.065 161.976 254.904C162.232 252.744 163.206 250.731 164.743 249.19C166.187 247.737 168.059 246.784 170.084 246.471C172.108 246.158 174.18 246.5 175.997 247.449ZM189.625 246.791C188.65 245.816 187.408 245.152 186.056 244.883C184.704 244.614 183.302 244.752 182.028 245.279C180.755 245.807 179.666 246.7 178.9 247.847C178.134 248.993 177.725 250.341 177.725 251.719C177.725 253.098 178.134 254.446 178.9 255.592C179.666 256.739 180.754 257.632 182.028 258.16C183.302 258.687 184.703 258.825 186.056 258.556C187.408 258.287 188.65 257.623 189.625 256.649C190.93 255.34 191.663 253.568 191.663 251.72C191.663 249.872 190.93 248.099 189.625 246.791ZM177.887 272.316C179.195 273.622 180.967 274.355 182.815 274.355C184.663 274.355 186.436 273.622 187.744 272.316C188.428 271.613 188.968 270.783 189.335 269.873C188.577 268.806 188.043 267.596 187.764 266.317C187.486 265.038 187.469 263.716 187.714 262.43C187.508 262.226 187.289 262.036 187.058 261.861C186.896 261.794 186.749 261.697 186.624 261.574C186.615 261.565 186.608 261.554 186.599 261.545C186.455 261.455 186.309 261.372 186.161 261.296C184.412 261.561 182.624 261.346 180.988 260.673C179.819 260.995 178.752 261.609 177.887 262.459C176.581 263.767 175.848 265.54 175.848 267.388C175.848 269.236 176.581 271.008 177.887 272.316ZM204.705 235.688C205.436 231.686 204.701 227.555 202.632 224.051C199.46 226.626 197.322 230.258 196.608 234.281C195.876 238.305 196.601 242.459 198.654 245.997C201.846 243.401 203.995 239.741 204.705 235.688ZM222.569 249.053C219.452 246.418 215.503 244.973 211.422 244.973C207.34 244.973 203.391 246.418 200.274 249.053C203.391 251.687 207.34 253.133 211.422 253.133C215.503 253.133 219.452 251.687 222.569 249.053ZM202.16 259.326C201.185 258.351 199.943 257.687 198.591 257.418C197.239 257.149 195.837 257.287 194.563 257.815C193.29 258.342 192.201 259.236 191.435 260.382C190.669 261.528 190.26 262.876 190.26 264.255C190.26 265.633 190.669 266.981 191.435 268.127C192.201 269.274 193.289 270.167 194.563 270.695C195.837 271.222 197.239 271.36 198.591 271.091C199.943 270.822 201.185 270.159 202.16 269.184C203.465 267.875 204.198 266.103 204.198 264.255C204.198 262.407 203.465 260.634 202.16 259.326ZM198.573 282.799C199.751 281.618 200.467 280.054 200.591 278.39C200.715 276.726 200.238 275.073 199.247 273.731C197.882 274.021 196.469 274.013 195.107 273.707C193.744 273.401 192.464 272.805 191.353 271.959C190.905 272.798 190.338 273.567 189.67 274.242C188.877 275.037 187.951 275.687 186.934 276.163C186.547 277.64 186.659 279.202 187.251 280.609C187.843 282.016 188.883 283.188 190.209 283.944C191.535 284.7 193.073 284.998 194.585 284.791C196.097 284.583 197.499 283.884 198.573 282.799ZM185.3 285.822C185.738 285.377 186.115 284.876 186.421 284.332C185.543 283.338 184.878 282.175 184.467 280.913C184.056 279.652 183.908 278.32 184.032 276.999C182.747 277.162 181.442 277.067 180.194 276.717C178.947 276.367 177.782 275.771 176.769 274.963C176.287 275.24 175.841 275.576 175.443 275.965C174.136 277.272 173.401 279.045 173.401 280.894C173.401 282.742 174.136 284.515 175.443 285.823C176.75 287.13 178.523 287.864 180.372 287.864C182.22 287.864 183.993 287.129 185.3 285.822ZM161.027 289.177C162.335 290.482 164.108 291.215 165.956 291.215C167.804 291.215 169.577 290.482 170.885 289.177C171.628 288.458 172.194 287.576 172.537 286.601C171.721 285.477 171.155 284.191 170.878 282.831C170.601 281.47 170.62 280.065 170.932 278.712C169.679 279.067 168.369 279.168 167.077 279.007C165.786 278.847 164.539 278.429 163.412 277.779C162.523 278.129 161.712 278.652 161.027 279.319C159.722 280.627 158.989 282.4 158.989 284.248C158.989 286.096 159.722 287.869 161.027 289.177ZM163.346 274.323C164.654 275.628 166.427 276.361 168.275 276.361C170.123 276.361 171.896 275.628 173.204 274.323C173.76 273.775 174.21 273.13 174.531 272.418C173.293 270.371 172.853 267.94 173.296 265.589C171.842 265.836 170.352 265.753 168.935 265.347C167.518 264.941 166.21 264.222 165.108 263.242C164.458 263.55 163.862 263.963 163.346 264.465C162.041 265.773 161.308 267.545 161.308 269.394C161.308 271.242 162.041 273.014 163.346 274.323ZM166.668 260.973C167.68 261.97 168.969 262.64 170.367 262.894C171.765 263.149 173.207 262.976 174.505 262.4C174.912 261.721 175.401 261.094 175.961 260.534C176.522 259.975 177.152 259.488 177.835 259.087C177.892 258.969 177.946 258.848 177.998 258.723C177.946 258.674 177.892 258.626 177.841 258.574C176.746 257.479 175.93 256.137 175.461 254.661C174.992 253.185 174.884 251.618 175.146 250.091C173.691 249.216 171.965 248.904 170.295 249.214C168.626 249.524 167.127 250.435 166.084 251.775C165.04 253.114 164.523 254.79 164.63 256.485C164.738 258.18 165.462 259.777 166.667 260.974L166.668 260.973Z" fill="white"/>
</g>
<circle opacity="0.8" cx="187.074" cy="263.737" r="68.1293" stroke="#E83939" stroke-width="12"/>
<circle opacity="0.5" cx="95.7304" cy="184.22" r="8.9587" stroke="#E83939" stroke-width="7"/>
<circle opacity="0.5" cx="280.402" cy="189.829" r="13.0679" stroke="#E83939" stroke-width="10"/>
<circle opacity="0.5" cx="95.7305" cy="295.345" r="13.0679" stroke="#E83939" stroke-width="10"/>
<circle opacity="0.5" cx="290.689" cy="316.167" r="9.25868" stroke="#E83939" stroke-width="7"/>
<circle opacity="0.3" cx="56.9816" cy="206.943" r="3.37689" stroke="white" stroke-width="3"/>
<circle opacity="0.3" cx="320.824" cy="232.137" r="3.37689" stroke="white" stroke-width="3"/>
<circle opacity="0.3" cx="220.736" cy="121.661" r="3.16094" stroke="white" stroke-width="3"/>
<circle opacity="0.4" cx="162.664" cy="355.781" r="6.35956" stroke="white" stroke-width="5"/>
<circle opacity="0.4" cx="196.787" cy="162.902" r="6.35956" stroke="white" stroke-width="5"/>
<circle opacity="0.8" cx="288.359" cy="266.99" r="8.58261" fill="#E83939"/>
<circle opacity="0.1" cx="248.837" cy="355.781" r="17.2187" fill="white"/>
<circle opacity="0.8" r="3.81841" transform="matrix(1 0 0 -1 99.2516 254.589)" fill="#E83939"/>
<circle opacity="0.8" r="8.24813" transform="matrix(1 0 0 -1 241.258 162.291)" fill="#E83939"/>
<circle opacity="0.8" r="3.81841" transform="matrix(1 0 0 -1 106.888 358.377)" fill="#E83939"/>
<circle opacity="0.8" r="3.81841" transform="matrix(1 0 0 -1 324.643 325.107)" fill="#E83939"/>
<circle opacity="0.8" r="3.81841" transform="matrix(1 0 0 -1 205.647 354.559)" fill="#E83939"/>
<circle opacity="0.1" cx="146.606" cy="151.239" r="24.9174" fill="white"/>
<circle opacity="0.1" cx="61.8584" cy="263.737" r="15.3196" fill="white"/>
<defs>
<linearGradient id="paint0_linear_222_1935" x1="0" y1="0" x2="456.235" y2="48.5452" gradientUnits="userSpaceOnUse">
<stop stop-color="#FF7F56"/>
<stop offset="1" stop-color="#E83939" stop-opacity="0.8"/>
</linearGradient>
<clipPath id="clip0_222_1935">
<rect width="375" height="812" fill="white"/>
</clipPath>
</defs>
</svg>
