<svg width="319" height="290" viewBox="0 0 319 290" fill="none" xmlns="http://www.w3.org/2000/svg">
<g opacity="0.5">
<circle cx="59.6457" cy="96.2539" r="10.5972" stroke="#9A4C71" stroke-width="7"/>
<circle cx="264.62" cy="82.4078" r="15.4441" stroke="#9A4C71" stroke-width="10"/>
<circle cx="55.6613" cy="221.994" r="15.4441" stroke="#9A4C71" stroke-width="10"/>
<circle cx="276.26" cy="225.361" r="10.9367" stroke="#9A4C71" stroke-width="7"/>
<circle cx="11.8162" cy="101.772" r="4.01829" stroke="#F5826E" stroke-width="3"/>
<circle cx="310.359" cy="130.28" r="4.01829" stroke="#F5826E" stroke-width="3"/>
<circle cx="197.107" cy="5.27388" r="3.77394" stroke="#F5826E" stroke-width="3"/>
<circle cx="131.398" cy="270.185" r="7.52475" stroke="#F2AAA0" stroke-width="5"/>
<circle cx="170.009" cy="51.9389" r="7.52475" stroke="#F2AAA0" stroke-width="5"/>
<circle cx="273.624" cy="169.716" r="9.71138" fill="#E83939"/>
<circle cx="228.904" cy="270.185" r="19.4833" fill="#FF7F56"/>
<circle r="4.3206" transform="matrix(1 0 0 -1 59.6456 155.684)" fill="#E83939"/>
<circle r="9.3329" transform="matrix(1 0 0 -1 220.329 51.247)" fill="#E83939"/>
<circle r="4.3206" transform="matrix(1 0 0 -1 68.2868 273.122)" fill="#E83939"/>
<circle r="4.3206" transform="matrix(1 0 0 -1 314.679 235.477)" fill="#E83939"/>
<circle r="4.3206" transform="matrix(1 0 0 -1 180.033 268.802)" fill="#E83939"/>
<circle cx="113.228" cy="38.7423" r="28.1945" fill="#FF7F56"/>
<circle cx="17.3344" cy="166.035" r="17.3344" fill="#FF7F56"/>
</g>
<path fill-rule="evenodd" clip-rule="evenodd" d="M132.465 72.6565C131.645 73.2235 131.048 74.1058 130.619 75.0201C129.395 77.6873 129.479 80.9854 131.092 83.4413C132.495 85.5775 135.073 86.9312 137.603 86.8001L137.572 86.8595C137.548 86.9044 137.524 86.9512 137.5 87C137 88 137.5 89.5 138 90.5C138.104 90.7087 138.209 90.8956 138.309 91.0744C138.368 91.1816 138.427 91.2859 138.482 91.3902L138.491 91.444L138.5 91.5C138.75 93 138.75 93.625 138.75 94.125C138.75 94.3406 138.75 94.533 138.77 94.7623C138.754 94.8117 138.738 94.8613 138.722 94.9114C138.47 95.6968 138.182 96.5937 138.5 98.5C138.75 100 138.75 100.625 138.75 101.125C138.75 101.625 138.75 102 139 103C139.349 104.394 139.94 105.303 140.436 106.064C140.651 106.394 140.849 106.697 141 107L141.057 107.113L141.098 107.195C141.123 107.244 141.135 107.267 141.136 107.266C141.138 107.265 141.115 107.21 141.074 107.111C140.889 106.667 140.333 105.333 140 104C139.75 103 139.625 102.125 139.5 101.25C139.375 100.375 139.25 99.5 139 98.5C138.809 97.7343 138.91 97.042 139.109 96.3948C139.463 97.5704 139.989 98.3771 140.436 99.0639C140.651 99.3944 140.849 99.6972 141 100L141.002 100.003C141.051 100.103 141.086 100.172 141.108 100.215C141.126 100.25 141.135 100.266 141.136 100.266C141.138 100.265 141.115 100.21 141.074 100.111C140.889 99.6666 140.333 98.3333 140 97C139.826 96.3034 139.712 95.6674 139.617 95.0499C139.827 94.5201 140 94.0101 140 93.5C140 92.6388 139.615 91.6677 139.225 90.6813C139.135 90.4551 139.045 90.228 138.96 90.0013C139.007 89.7348 139.079 89.4766 139.163 89.225C139.834 92.3414 141.036 95.327 142.721 98.0501C144.485 100.9 146.745 103.406 149.389 105.454C149.376 106.163 149.354 106.872 149.322 107.581V107.744C149.131 112.197 148.608 116.628 147.759 121.001C144.938 121.307 142.125 121.695 139.324 122.162C136.028 122.745 127.782 125.452 123.709 126.806C123.009 127.039 122.439 127.234 122.036 127.372C121.9 127.418 121.783 127.458 121.686 127.491L121.372 127.6L121.355 127.697C118.773 129.403 116.023 133.332 113.522 137.775C109.14 145.56 105.515 154.924 104.871 156.678C101.24 166.563 98.5745 176.774 96.9132 187.17C96.8076 187.832 96.6676 188.595 96.5138 189.433C95.6394 194.197 94.3186 201.395 96.3321 206.306C97.2363 210.265 101.407 213.076 104.798 215.272C110.826 219.181 115.863 221.569 120.818 223.243C120.165 226.683 119.467 230.098 118.778 233.469C118.308 235.77 117.841 238.05 117.396 240.305C112.598 264.548 135.907 275.972 150.704 271.986C165.118 268.103 212.427 254.558 198.36 205.847C201.123 208.925 204.543 211.553 208.781 210.257C217.149 208.249 216.348 196.35 215.885 189.465C215.827 188.611 215.775 187.834 215.746 187.162C215.281 176.78 213.807 166.467 211.342 156.37C210.905 154.58 208.39 145.008 204.95 136.917C202.283 130.643 199.06 125.262 195.819 125.094C195.938 124.787 196.006 124.618 196.006 124.618C196.006 124.618 181.445 120.855 177.557 120.492C176.671 120.411 175.783 120.343 174.895 120.286C174.744 118.026 174.273 115.773 173.587 113.614C172.916 111.56 172.099 109.557 171.144 107.619C171.018 107.36 170.884 107.063 170.741 106.746L170.741 106.744C170.579 106.387 170.407 106.005 170.223 105.624C170.264 105.589 170.305 105.553 170.345 105.518C171.13 104.846 171.879 104.129 172.65 103.389L172.652 103.388C172.931 103.118 173.21 102.847 173.5 102.577C174.396 101.723 175.214 100.79 175.944 99.7908C176.164 99.4902 176.378 99.1843 176.585 98.8756C177.434 97.5792 178.186 96.2216 178.833 94.8139C179.389 93.6523 179.895 92.4679 180.351 91.2639C180.364 91.5911 180.362 91.9296 180.334 92.2831C180.214 92.7051 180.136 93.1136 180.136 93.5C179.886 94.5 179.261 95.375 178.636 96.25C178.011 97.125 177.386 98 177.136 99C176.989 99.5894 176.83 100.179 176.691 100.692C176.36 101.918 176.147 102.705 176.5 102C176.584 101.831 176.673 101.662 176.764 101.488L176.767 101.482C177.213 100.629 177.722 99.6575 178.136 98C178.355 97.126 178.764 96.7294 179.198 96.3095C179.56 95.959 179.938 95.5923 180.237 94.9182L180.242 94.9649C180.354 96.0172 180.475 97.1436 180.136 98.5C179.886 99.5 179.261 100.375 178.636 101.25C178.011 102.125 177.386 103 177.136 104C176.989 104.589 176.83 105.179 176.691 105.692C176.36 106.918 176.147 107.705 176.5 107C176.585 106.829 176.675 106.658 176.767 106.482C177.213 105.629 177.722 104.658 178.136 103C178.355 102.126 178.764 101.729 179.198 101.31C179.756 100.769 180.355 100.189 180.636 98.5C181.047 96.0328 181.028 94.9183 181.009 93.7659L181.006 93.5896L181.004 93.4572C181.001 93.3083 181 93.1569 181 93C181 92.0087 181.278 91.6725 181.611 91.2699C181.781 91.0632 181.967 90.8391 182.136 90.5C182.636 89.5 183.136 88 182.636 87C182.583 86.8929 182.531 86.7953 182.481 86.7061L182.496 86.7069C182.711 86.7011 182.927 86.7011 183.142 86.7012C183.534 86.7012 183.927 86.7012 184.318 86.6663C185.49 86.5758 186.601 86.1105 187.486 85.3395C187.963 84.872 188.387 84.3545 188.751 83.796C190.041 81.9683 190.367 80.0295 190.288 77.7956C190.237 75.9733 190.009 74.5219 188.819 73.1437C188.555 72.7941 188.22 72.5036 187.836 72.2907C187.761 72.2611 187.684 72.2347 187.606 72.2116C187.865 70.5172 188 68.776 188 67C188 56.0499 182.872 46.4258 175.13 40.9108C178.142 37.8435 180 33.6387 180 29C180 19.6111 172.389 12 163 12C162.583 12 162.169 12.015 161.759 12.0446C161.343 12.015 160.923 12 160.5 12C160.077 12 159.657 12.015 159.241 12.0446C158.831 12.015 158.417 12 158 12C157.833 12 157.666 12.0024 157.5 12.0072C157.334 12.0024 157.167 12 157 12C147.611 12 140 19.6111 140 29C140 33.6387 141.858 37.8435 144.87 40.9108C137.128 46.4258 132 56.0499 132 67C132 68.9319 132.16 70.8224 132.465 72.6565ZM179.5 29C179.5 33.5325 177.672 37.6382 174.714 40.6203C174.563 40.517 174.412 40.4153 174.259 40.3151C176.602 37.3383 178 33.5824 178 29.5C178 21.4808 172.606 14.7215 165.249 12.6519C173.298 13.7487 179.5 20.65 179.5 29ZM152.438 12.9308C145.432 14.9158 140.3 21.3586 140.3 29C140.3 33.5746 142.139 37.7196 145.119 40.7358C145.236 40.6539 145.355 40.573 145.473 40.493C142.696 37.467 141 33.4315 141 29C141 21.5591 145.781 15.2348 152.438 12.9308ZM152.24 14.0681C146.74 17.0181 143 22.8223 143 29.5C143 33.389 144.269 36.9817 146.415 39.8869L146.326 39.9417C143.643 37.0802 142 33.232 142 29C142 22.194 146.249 16.3805 152.24 14.0681ZM181.011 88.9106C181.15 88.3007 181.314 87.6691 181.517 87.2591C181.66 87.6365 181.725 88.0565 181.636 88.5C181.508 89.1429 181.255 89.8107 180.993 90.4745C181.024 89.8811 181.019 89.394 181.011 88.9106ZM138.815 87.2702C138.826 87.3478 138.837 87.4253 138.849 87.5027C138.81 87.6388 138.767 87.7733 138.722 87.9114C138.653 88.1261 138.582 88.3491 138.521 88.5988C138.513 88.5658 138.507 88.5329 138.5 88.5C138.399 87.9938 138.497 87.5183 138.684 87.1016C138.727 87.158 138.771 87.2142 138.815 87.2702ZM123.446 184.628C124.192 190.434 124.21 196.365 123.773 202.331L123.561 202.232L123.449 202.18C121.536 201.256 119.576 200.435 117.576 199.718C117.253 199.607 116.897 199.491 116.514 199.377C117.261 197.333 117.846 195.329 118.35 193.601L118.43 193.326C118.499 193.091 118.566 192.861 118.632 192.637C118.658 192.552 118.683 192.467 118.708 192.382C118.733 192.296 118.758 192.211 118.784 192.126L118.784 192.116L118.784 192.108C118.785 192.096 118.788 192.084 118.798 192.072C119.036 191.261 119.269 190.449 119.502 189.638L119.503 189.635C119.539 189.507 119.574 189.38 119.612 189.255C120.612 185.731 121.556 182.196 122.445 178.65C122.834 180.632 123.175 182.622 123.446 184.628ZM75.8125 60C75.8125 78.1218 61.1218 92.8125 43 92.8125C24.8782 92.8125 10.1875 78.1218 10.1875 60C10.1875 41.8781 24.8782 27.1875 43 27.1875C61.1218 27.1875 75.8125 41.8781 75.8125 60ZM302.842 213.532L301.944 214.43C304.292 218.763 305.625 223.726 305.625 229C305.625 245.914 291.914 259.625 275 259.625C269.726 259.625 264.763 258.292 260.43 255.944L259.532 256.842C256.969 259.405 252.814 259.405 250.251 256.842L247.158 253.749C244.595 251.186 244.595 247.031 247.158 244.468L248.056 243.57C245.708 239.237 244.375 234.274 244.375 229C244.375 228.604 244.383 228.209 244.397 227.816C244.69 220.08 247.84 212.849 253.345 207.345C259.129 201.561 266.819 198.375 274.998 198.375H275C280.274 198.375 285.237 199.708 289.57 202.056L290.468 201.158C293.031 198.595 297.186 198.595 299.749 201.158L302.842 204.251C305.405 206.814 305.405 210.969 302.842 213.532ZM300.39 211.079L292.921 203.61C292.389 203.078 292.539 202.177 293.217 201.852C294.844 201.072 296.854 201.356 298.202 202.704L301.295 205.798C302.644 207.146 302.928 209.156 302.148 210.783C301.823 211.461 300.922 211.611 300.39 211.079ZM257.079 254.39C257.611 254.922 257.461 255.823 256.783 256.148C255.156 256.928 253.146 256.644 251.798 255.295L248.704 252.202C247.356 250.854 247.072 248.844 247.852 247.217C248.177 246.539 249.078 246.389 249.61 246.921L257.079 254.39ZM277.038 14.8913C277.037 14.916 277.036 14.9407 277.035 14.9653C277.099 14.9613 277.165 14.9593 277.23 14.9593C278.956 14.9593 280.355 16.3584 280.355 18.0843C280.355 19.8102 278.956 21.2093 277.23 21.2093C276.649 21.2093 276.104 21.0504 275.638 20.7736L272.254 24.1569L272.258 24.161C272.335 24.2373 272.401 24.3195 272.459 24.4061C272.859 25.0126 272.792 25.8368 272.258 26.3707L272.152 26.4774C272.072 26.5576 271.995 26.641 271.924 26.7274C271.42 27.332 271.121 28.0815 271.048 28.8716L271.047 28.8848C270.987 29.5146 270.903 30.2134 270.785 30.9707C269.957 36.2712 267.456 44.431 260.105 51.7823C254.645 57.242 245.813 57.2739 240.314 51.878C234.69 46.3596 234.781 37.2669 240.385 31.7282C248.738 23.4722 258.096 21.4277 263.104 20.9542L263.129 20.9518C264.032 20.8698 264.881 20.4894 265.522 19.8485L265.629 19.7416C266.238 19.1326 267.225 19.1314 267.836 19.7382L271.221 16.3529C270.947 15.8886 270.791 15.3475 270.791 14.7697C270.791 13.0438 272.19 11.6447 273.916 11.6447C275.642 11.6447 277.041 13.0438 277.041 14.7697C277.041 14.8104 277.04 14.8509 277.038 14.8913ZM34.3258 201.247L37.5173 197.335L41.7262 198.655C42.1378 198.784 42.5763 198.555 42.7053 198.143L43.1728 196.652C43.3018 196.241 43.0727 195.802 42.661 195.673L37.4427 194.037C36.8331 193.846 36.1684 194.045 35.7645 194.54L31.1142 200.241L29.1418 199.622C24.2012 198.073 18.9405 200.823 17.3916 205.763C16.5681 205.505 15.6914 205.963 15.4332 206.787C15.175 207.61 15.6333 208.487 16.4567 208.745L16.1657 210.291L16.1462 210.285L12.2213 231.251L11.7704 233.647C11.6124 234.431 12.0717 235.208 12.8347 235.447L28.0415 240.214C28.8045 240.454 29.625 240.078 29.9427 239.344L40.3119 216.224C41.1353 216.482 42.0121 216.024 42.2702 215.2C42.5284 214.377 42.0702 213.5 41.2467 213.242C42.7956 208.302 40.0461 203.041 35.1056 201.492L34.3258 201.247Z" fill="#CACDD6"/>
</svg>
