<svg width="319" height="290" viewBox="0 0 319 290" fill="none" xmlns="http://www.w3.org/2000/svg">
<g opacity="0.5">
<circle cx="259.354" cy="193.414" r="10.5972" transform="rotate(-180 259.354 193.414)" stroke="#9A4C71" stroke-width="7"/>
<circle cx="54.3799" cy="207.261" r="15.4441" transform="rotate(-180 54.3799 207.261)" stroke="#9A4C71" stroke-width="10"/>
<circle cx="263.339" cy="67.6745" r="15.4441" transform="rotate(-180 263.339 67.6745)" stroke="#9A4C71" stroke-width="10"/>
<circle cx="42.7398" cy="64.3076" r="10.9367" transform="rotate(-180 42.7398 64.3076)" stroke="#9A4C71" stroke-width="7"/>
<circle cx="307.184" cy="187.896" r="4.01829" transform="rotate(-180 307.184 187.896)" stroke="#F5826E" stroke-width="3"/>
<circle cx="8.64108" cy="159.389" r="4.01829" transform="rotate(-180 8.64108 159.389)" stroke="#F5826E" stroke-width="3"/>
<circle cx="121.893" cy="284.395" r="3.77394" transform="rotate(-180 121.893 284.395)" stroke="#F5826E" stroke-width="3"/>
<circle cx="187.602" cy="19.4832" r="7.52475" transform="rotate(-180 187.602 19.4832)" stroke="#F2AAA0" stroke-width="5"/>
<circle cx="148.991" cy="237.73" r="7.52475" transform="rotate(-180 148.991 237.73)" stroke="#F2AAA0" stroke-width="5"/>
<circle cx="45.3764" cy="119.952" r="9.71138" transform="rotate(-180 45.3764 119.952)" fill="#E83939"/>
<circle cx="90.0957" cy="19.4832" r="19.4833" transform="rotate(-180 90.0957 19.4832)" fill="#FF7F56"/>
<circle r="4.3206" transform="matrix(-1 0 0 1 259.354 133.984)" fill="#E83939"/>
<circle r="9.3329" transform="matrix(-1 0 0 1 98.6715 238.421)" fill="#E83939"/>
<circle r="4.3206" transform="matrix(-1 0 0 1 250.713 16.5462)" fill="#E83939"/>
<circle r="4.3206" transform="matrix(-1 0 0 1 4.32052 54.1915)" fill="#E83939"/>
<circle r="4.3206" transform="matrix(-1 0 0 1 138.967 20.8665)" fill="#E83939"/>
<circle cx="205.772" cy="250.926" r="28.1945" transform="rotate(-180 205.772 250.926)" fill="#FF7F56"/>
<circle cx="301.666" cy="123.633" r="17.3344" transform="rotate(-180 301.666 123.633)" fill="#FF7F56"/>
</g>
<path fill-rule="evenodd" clip-rule="evenodd" d="M103.303 23.7432C103.303 17.1157 108.675 11.7432 115.303 11.7432H176.349C182.976 11.7432 188.349 17.1157 188.349 23.7432V36.7177C191.303 34.1162 194.456 33.3301 197.99 32.4488L197.991 32.4485C199.123 32.1665 200.293 31.8747 201.508 31.5105C203.748 30.8358 206.391 30.5501 208.28 31.8973C211.056 33.8742 210.543 38.0057 209.251 41.0869C205.941 49.0173 199.682 53.3067 192.673 58.1095C191.256 59.0805 189.809 60.0725 188.349 61.1199V68.4063C188.573 66.3652 188.584 64.3949 188.576 63.6632V63.358C188.717 63.2929 188.876 63.277 189.027 63.3127C189.447 63.353 190.08 63.3378 190.715 63.3226H190.717C191.588 63.3018 192.464 63.2809 192.799 63.4022L192.899 63.4427C194.607 64.1437 198.992 66.3802 199.421 66.7808C199.77 67.1215 200.049 67.5263 200.246 67.9729C200.411 68.3222 200.557 68.6804 200.683 69.0459C200.687 69.0563 200.691 69.0668 200.695 69.0775L200.699 69.09L200.702 69.1007C201.652 71.7783 202.383 74.5346 203.113 77.2885C203.369 78.2112 203.614 79.1554 203.561 80.1115C203.424 82.596 201.075 86.1117 199.614 87.9405C198.899 88.8297 198.159 89.697 197.393 90.5413C197.785 90.785 198.18 91.0145 198.572 91.2423C200.275 92.2321 201.926 93.1915 203.053 95.1567C204.072 96.9378 204.64 98.9382 205.191 100.915L205.227 101.044C205.812 103.114 206.549 105.727 205.645 107.796C205.015 109.234 203.845 110.744 202.778 112.12C202.451 112.542 202.133 112.951 201.844 113.342C199.607 116.35 197.064 119.641 194.259 122.366C194.582 122.577 194.905 122.798 195.227 123.019C196.044 123.579 196.855 124.136 197.661 124.515C198.73 125.018 199.816 125.562 200.602 126.444C201.315 127.245 201.728 128.266 202.089 129.279C203.039 131.961 203.751 134.875 203.633 137.738C203.566 139.477 203.414 140.343 202.683 141.922C201.951 143.5 200.654 144.816 199.303 145.958C196.672 148.18 193.72 149.987 190.548 151.316C189.825 151.619 189.084 151.923 188.349 152.149V159.288C189.055 161.399 189.782 163.504 190.564 165.589C195.053 177.566 199.986 189.359 205.362 200.968C204.804 199.761 205.037 197.182 205.234 194.999C205.328 193.955 205.414 193.001 205.402 192.331C205.398 192.143 205.395 191.954 205.391 191.766L205.381 191.306V191.305V191.304C205.318 188.348 205.255 185.391 205.587 182.448C206.129 177.68 207.067 172.048 210.749 168.641C216.478 163.333 225.157 165.808 228.575 172.358C230.603 176.235 231.002 180.734 231.368 185.095C232.278 181.595 236.183 179.413 239.769 179.792C243.356 180.171 246.463 182.67 248.353 185.753C250.244 188.836 251.063 192.446 251.593 196.022C253.887 193.779 257.785 193.922 260.491 195.641C263.196 197.36 264.901 200.295 266.098 203.271C268.877 210.164 268.844 226.468 268.581 234.224C265.996 239.947 262.88 245.369 258.476 249.613C257.488 250.564 256.444 251.454 255.348 252.278C253.152 253.933 250.787 256.031 248.31 258.229L248.307 258.231L248.305 258.234C241.982 263.845 234.925 270.106 228.059 271.31C223.269 272.149 218.455 272.809 213.616 273.289C213.601 273.291 213.585 273.291 213.571 273.289C212.561 273.387 211.547 273.482 210.537 273.558C206.579 273.884 202.62 274.088 198.661 274.169C197.426 274.148 196.194 274.113 194.965 274.064C189.869 273.88 184.784 270.852 179.719 267.836C175.378 265.252 171.053 262.676 166.75 261.909C161.128 256.949 155.862 251.241 152.067 244.856C151.552 243.992 151.153 243.063 150.753 242.133L150.753 242.132C150.704 242.018 150.655 241.905 150.607 241.792C150.533 241.621 150.458 241.45 150.383 241.279C150.145 240.724 149.882 240.159 149.599 239.594C149.387 239.148 149.159 238.7 148.922 238.254C147.575 235.705 145.915 233.206 143.894 231.325C143.456 230.917 142.921 230.537 142.374 230.148C140.806 229.033 139.132 227.843 139.324 225.695C139.504 223.664 142.373 223.242 143.929 223.108C147.373 222.813 151.447 223.237 154.551 224.794C158.293 226.674 161.385 228.961 164.433 231.216C168.949 234.556 173.369 237.824 179.661 239.594C184.725 241.024 189.719 243.092 194.179 245.903C193.913 242.809 190.715 234.208 188.164 227.348C186.772 223.604 185.572 220.379 185.148 218.851C184.432 216.288 183.42 213.105 182.409 209.923L182.408 209.922L182.408 209.921C181.393 206.728 180.378 203.536 179.661 200.968C178.752 197.73 177.235 192.112 175.544 185.849C174.552 182.172 173.499 178.273 172.474 174.503L161.29 174.503C160.119 175.808 159.325 176.573 158.644 177.229C158.4 177.463 158.17 177.684 157.943 177.911L157.641 178.211C157.556 178.295 157.47 178.378 157.385 178.45L157.131 178.688L156.87 178.927C156.423 179.33 155.919 179.752 155.302 180.262C153.044 182.113 150.925 183.891 148.807 185.668L148.806 185.669L148.806 185.67L148.805 185.67L148.804 185.671L148.803 185.672L148.802 185.673L148.801 185.673L148.801 185.674L148.8 185.675L148.799 185.676L148.798 185.676L148.797 185.677L148.796 185.678L148.796 185.678L148.795 185.679L148.794 185.68L148.793 185.681L148.792 185.681L148.792 185.682L148.791 185.683L148.79 185.684L148.789 185.684L148.788 185.685L148.786 185.687L148.785 185.688L148.783 185.689L148.781 185.691C146.688 187.447 144.596 189.203 142.374 191.027L142.339 191.055C135.612 196.568 128.874 202.091 122.571 208.08C121.146 209.429 119.754 210.803 118.393 212.2C114.521 216.166 110.396 219.867 106.273 223.568C102.18 227.24 98.0896 230.911 94.2493 234.837C92.6883 236.431 91.2808 238.103 89.8694 239.778L89.8687 239.779C88.8406 241 87.8105 242.223 86.7175 243.42C86.3234 243.85 85.5265 244.908 84.5782 246.168C82.4971 248.931 79.6868 252.662 78.8056 252.846C66.0035 255.486 53.8576 218.434 49.2729 204.448C48.7318 202.798 48.2961 201.468 47.977 200.563C46.5258 196.448 51.0565 189.13 56.4768 180.374C62.3466 170.893 69.2596 159.726 70.7489 149.118C71.4548 144.094 71.1859 139.647 70.9126 135.128C70.693 131.496 70.4706 127.818 70.7489 123.755C71.0498 119.345 72.4505 113.696 73.6553 108.838C73.9723 107.56 74.2759 106.335 74.5421 105.203C75.6678 100.428 77.1308 95.7407 78.5941 91.053C80.0517 86.3835 81.5096 81.7129 82.6345 76.9535C84.3991 69.4598 85.3162 61.7902 85.3683 54.0901C85.3683 53.2556 85.3683 52.4211 85.3565 51.5842C85.2842 47.3619 85.193 46.7374 84.6176 42.7975L84.5559 42.375C84.4985 41.979 84.3934 41.509 84.2785 40.9953C83.6494 38.1828 82.7277 34.0615 87.7388 33.6016C87.8544 33.6265 87.9697 33.6523 88.0848 33.6791C88.4546 33.6821 88.823 33.7308 89.1817 33.8243C94.7088 35.0164 98.2729 38.096 101.731 42.5762L101.781 42.6382C102.331 43.3495 102.839 44.0906 103.303 44.8575V23.7432ZM142.816 174.503C142.22 174.512 141.63 174.514 141.044 174.513L140.754 174.512L140.567 174.511L140.144 174.509L139.875 174.508L139.865 174.508L139.763 174.508C139.485 174.506 139.208 174.505 138.933 174.504L138.732 174.504L138.544 174.503H142.816Z" fill="#CACDD6"/>
</svg>
