<svg width="319" height="290" viewBox="0 0 319 290" fill="none" xmlns="http://www.w3.org/2000/svg">
<g opacity="0.5">
<circle cx="259.354" cy="193.414" r="10.5972" transform="rotate(-180 259.354 193.414)" stroke="#9A4C71" stroke-width="7"/>
<circle cx="54.3799" cy="207.261" r="15.4441" transform="rotate(-180 54.3799 207.261)" stroke="#9A4C71" stroke-width="10"/>
<circle cx="263.339" cy="67.6745" r="15.4441" transform="rotate(-180 263.339 67.6745)" stroke="#9A4C71" stroke-width="10"/>
<circle cx="42.7399" cy="64.3076" r="10.9367" transform="rotate(-180 42.7399 64.3076)" stroke="#9A4C71" stroke-width="7"/>
<circle cx="307.184" cy="187.896" r="4.01829" transform="rotate(-180 307.184 187.896)" stroke="#F5826E" stroke-width="3"/>
<circle cx="8.64108" cy="159.389" r="4.01829" transform="rotate(-180 8.64108 159.389)" stroke="#F5826E" stroke-width="3"/>
<circle cx="121.893" cy="284.395" r="3.77394" transform="rotate(-180 121.893 284.395)" stroke="#F5826E" stroke-width="3"/>
<circle cx="187.602" cy="19.4832" r="7.52475" transform="rotate(-180 187.602 19.4832)" stroke="#F2AAA0" stroke-width="5"/>
<circle cx="148.991" cy="237.73" r="7.52475" transform="rotate(-180 148.991 237.73)" stroke="#F2AAA0" stroke-width="5"/>
<circle cx="45.3764" cy="119.952" r="9.71138" transform="rotate(-180 45.3764 119.952)" fill="#E83939"/>
<circle cx="90.0957" cy="19.4832" r="19.4833" transform="rotate(-180 90.0957 19.4832)" fill="#FF7F56"/>
<circle r="4.3206" transform="matrix(-1 0 0 1 259.354 133.984)" fill="#E83939"/>
<circle r="9.3329" transform="matrix(-1 0 0 1 98.6715 238.421)" fill="#E83939"/>
<circle r="4.3206" transform="matrix(-1 0 0 1 250.713 16.5462)" fill="#E83939"/>
<circle r="4.3206" transform="matrix(-1 0 0 1 4.32055 54.1915)" fill="#E83939"/>
<circle r="4.3206" transform="matrix(-1 0 0 1 138.967 20.8665)" fill="#E83939"/>
<circle cx="205.772" cy="250.926" r="28.1945" transform="rotate(-180 205.772 250.926)" fill="#FF7F56"/>
<circle cx="301.666" cy="123.633" r="17.3344" transform="rotate(-180 301.666 123.633)" fill="#FF7F56"/>
</g>
<path fill-rule="evenodd" clip-rule="evenodd" d="M152.306 229.182L151.79 229.176C152.229 229.306 152.678 229.402 153.131 229.464V224.04C152.941 223.974 152.756 223.894 152.577 223.8L151.216 225.637C151.27 225.651 151.325 225.665 151.38 225.679C151.831 226.355 152.14 227.116 152.287 227.915L152.289 227.916C152.368 228.317 152.376 228.73 152.314 229.134L152.31 229.16L152.306 229.182ZM155.78 229.456V224.038C155.854 224.012 155.928 223.984 156.001 223.954C156.491 223.751 156.936 223.453 157.311 223.078C157.686 222.702 157.983 222.257 158.186 221.767C158.215 221.695 158.243 221.622 158.269 221.548H163.642C163.541 222.272 163.355 222.982 163.086 223.663C162.933 224.048 162.755 224.422 162.553 224.784C161.617 226.451 160.194 227.792 158.475 228.629C158.103 228.809 157.719 228.964 157.325 229.092C156.821 229.258 156.304 229.379 155.78 229.456ZM163.633 218.899H158.269C158.244 218.827 158.216 218.755 158.187 218.684C158.169 218.64 158.15 218.597 158.131 218.554L161.841 214.642C162.315 215.266 162.712 215.952 163.018 216.684C163.179 217.067 163.312 217.46 163.419 217.861C163.51 218.203 163.581 218.549 163.633 218.899ZM153.131 214.717L151.346 211.489C151.925 211.284 152.523 211.138 153.131 211.051V214.717ZM150.723 221.771C150.937 222.288 151.256 222.753 151.656 223.137L150.043 225.313C148.62 224.896 147.222 224.401 145.857 223.831C145.805 223.707 145.755 223.581 145.708 223.455C145.48 222.838 145.32 222.198 145.229 221.548H150.638C150.656 221.602 150.676 221.656 150.697 221.709L150.713 221.747L150.723 221.771ZM155.78 216.315V211.057C156.431 211.151 157.072 211.315 157.689 211.547C158.077 211.692 158.455 211.864 158.819 212.061C159.031 212.174 159.237 212.296 159.438 212.424L155.78 216.315ZM147.509 231.97C147.531 231.946 147.552 231.921 147.572 231.895C147.602 231.922 147.634 231.946 147.671 231.967C147.904 232.096 148.18 232.026 148.429 231.945L148.367 232.28C148.049 232.22 147.723 232.158 147.388 232.093C147.407 232.076 147.425 232.058 147.443 232.04C147.466 232.017 147.488 231.994 147.509 231.97ZM148.815 231.986L148.489 231.926L148.491 231.925L148.614 231.886L148.748 231.954L148.815 231.986ZM148.192 233.216L148.261 232.848C147.841 232.769 147.406 232.685 146.956 232.598L146.885 232.961C146.602 232.908 146.315 232.851 146.022 232.793L146.004 232.789C145.864 232.762 145.724 232.734 145.582 232.706L145.613 232.551H132.267C131.808 232.55 131.367 232.367 131.042 232.042C130.716 231.717 130.533 231.277 130.531 230.817C130.532 230.402 130.682 230.003 130.949 229.69L129.99 229.483L130.066 229.123L129.324 228.965L128.763 228.845L128.684 229.211L127.387 228.932L127.465 228.568L127.246 228.521C121.373 246.228 104.678 259 84.9999 259C60.4233 259 40.5 239.077 40.5 214.5C40.5 189.924 60.4233 170 84.9999 170C91.9675 170 98.5611 171.602 104.433 174.457L105.196 173.058C98.024 169.385 89.9953 167.711 81.953 168.212C73.9108 168.712 66.1517 171.369 59.4905 175.903C56.4899 177.96 53.6057 180.236 51.3304 183.054C37.6444 199.993 37.1472 211.802 37.1302 212.891C37.1334 204.734 39.2347 196.714 43.2322 189.604C47.2297 182.493 52.9889 176.531 59.9563 172.289C66.9238 168.047 74.8652 165.669 83.0173 165.382C91.1694 165.096 99.2581 166.911 106.506 170.654L115.323 154.477C115.388 154.254 115.497 154.047 115.644 153.868L111.256 145.824C108.931 147.193 105.785 147.239 103.685 145.552C98.5787 141.456 103.298 137.119 107.691 136.01C106.932 134.535 106.4 132.964 106.196 131.277C106.066 130.193 106.087 129.118 106.234 128.065C106.255 127.452 106.304 126.841 106.378 126.236C106.449 125.655 106.542 125.115 106.661 124.611C106.686 123.574 106.737 122.539 106.814 121.506C106.827 121.32 106.842 121.136 106.858 120.952L106.858 120.948C106.865 120.859 106.873 120.77 106.88 120.681C107.306 115.813 108.315 111.443 109.761 107.181C109.605 107.244 109.451 107.305 109.299 107.367L105.55 114.765C105.504 114.855 105.456 114.94 105.405 115.025C104.849 115.937 103.977 116.613 102.956 116.926C102.062 117.2 101.108 117.179 100.232 116.872C100.107 116.828 99.9835 116.778 99.862 116.723L99.8547 116.72C99.5647 116.606 90.6434 113.102 83.7358 109.972C76.7133 106.789 72.558 104.043 72.558 104.043C72.0612 103.821 71.6147 103.5 71.2457 103.1C70.8766 102.7 70.5928 102.229 70.4113 101.716C70.2298 101.203 70.1545 100.658 70.1899 100.115C70.2254 99.5719 70.3708 99.0416 70.6174 98.5564C70.6174 98.5564 70.649 98.4691 70.7121 98.3017L70.7127 98.3001L70.7169 98.2872C70.9842 97.5746 71.7759 95.484 73.048 92.4072C74.7921 88.1549 77.4483 82.0202 80.8661 75.0366C83.3598 69.9426 85.982 65.21 88.2719 61.3021C89.1815 59.7448 90.0402 58.3185 90.8189 57.0547C90.8815 56.9523 90.9436 56.8512 91.0052 56.7513L89.2858 55.837C88.9923 55.6963 88.8007 55.2913 88.7303 54.8668C88.66 54.4423 88.7303 54.071 88.9729 53.8673C89.299 53.5751 89.6286 53.2463 89.9831 52.8927C91.2498 51.6289 92.8354 50.047 95.7237 48.6787C99.1367 47.0631 104.034 48.1935 114.904 52.8824C120.175 55.1626 126.749 58.7478 129.116 61.5787C130.863 63.6758 130.193 65.9617 129.025 68.4383C129.86 68.1566 130.749 67.8964 131.677 67.6785C132.773 66.3343 133.938 64.9507 135.195 63.4974C135.712 62.9007 137.308 61.6005 138.645 60.5477C138.676 60.5229 138.707 60.4978 138.737 60.4727C138.854 60.3782 138.97 60.2843 139.081 60.2057C139.854 59.6019 140.474 59.1285 140.635 59.0065L143.678 52.1428C143.606 52.1692 143.53 52.191 143.452 52.2081C143.123 52.2606 142.786 52.2394 142.466 52.1458C142.146 52.0523 141.851 51.8888 141.602 51.6671C141.106 51.22 140.68 50.7017 140.338 50.1292C138.409 47.2402 136.721 44.0261 135.867 40.6252C135.101 37.5688 135.198 33.6246 137.041 30.9344C138.739 28.4481 142.271 27.2958 145.148 27.8271C146.035 27.99 146.729 28.1868 147.332 28.3576C149.035 28.8405 150.005 29.1155 152.532 27.8271C156.784 25.6516 166.648 26.2897 167.5 33.0005C167.861 35.88 166.646 36.5929 164.818 37.6659C164.208 38.0239 163.53 38.422 162.819 38.9539C162.759 38.9986 162.704 39.0425 162.653 39.0861C162.866 39.9439 162.68 40.8168 162.496 41.6831C162.267 42.7643 162.039 43.8351 162.591 44.8532L162.648 44.9573C163.182 45.9413 163.716 46.9244 164.171 47.9436C164.45 48.5743 164.699 49.2171 164.915 49.8696C164.956 49.9671 164.976 50.0721 164.974 50.1777C164.971 50.2302 164.954 50.2809 164.924 50.3239C164.894 50.3669 164.852 50.4004 164.804 50.4203C164.61 50.4833 162.519 50.2675 162.519 50.1923C162.592 50.6724 162.655 51.1409 162.706 51.6135C162.835 51.8777 162.97 52.1403 163.104 52.4011C164.048 54.2441 164.95 56.0026 163.54 57.6368C162.071 59.3387 162.591 59.8826 162.887 60.1919C163.002 60.3121 163.083 60.3969 163 60.5004C161.823 61.9777 159.348 62.4443 157.5 62.0004C156.463 61.7512 155.746 60.9053 155.082 59.9761L153.964 67.1542C153.973 67.1625 153.982 67.1708 153.991 67.1792C153.999 67.1866 154.006 67.194 154.014 67.2015C154.035 67.2251 154.053 67.2502 154.07 67.2767C154.191 67.5132 154.249 67.7775 154.237 68.0432C154.261 68.6011 154.279 69.1615 154.291 69.7242L154.305 70.5926C154.317 71.8176 154.304 73.051 154.264 74.2892C156.173 78.5664 157.55 83.1253 158.913 87.6365C159.586 89.8626 160.255 92.0778 160.983 94.2411C161.49 95.7523 162.029 97.2563 162.611 98.7408C163.684 99.2531 164.727 99.8282 165.733 100.463C166.72 101.074 167.681 101.734 168.622 102.404C171.237 104.257 173.888 105.955 176.627 107.653L186.456 113.773L187.014 114.12L188.229 114.884C188.173 115.054 188.122 115.224 188.074 115.396L188.073 115.399C188.319 115.424 188.564 115.463 188.806 115.515C190.779 115.942 192.797 115.815 194.788 115.541C195.525 115.438 196.258 115.316 196.983 115.195L197.265 115.148C197.629 115.06 198.009 115.06 198.373 115.148C198.708 115.286 199.006 115.497 199.247 115.767C199.601 116.108 199.95 116.457 200.3 116.808C201.149 117.656 202 118.508 202.929 119.243C202.987 119.289 203.046 119.334 203.105 119.379C203.451 119.645 203.806 119.917 203.967 120.315C204.156 120.781 203.87 121.465 203.368 121.433C203.579 121.549 203.741 121.737 203.826 121.962C203.91 122.187 203.911 122.435 203.829 122.661C203.775 122.769 203.698 122.864 203.604 122.941C203.51 123.017 203.401 123.073 203.284 123.103C203.167 123.134 203.045 123.14 202.926 123.12C202.806 123.101 202.692 123.056 202.592 122.988C202.684 123.158 202.717 123.354 202.685 123.545C202.653 123.736 202.559 123.91 202.416 124.041C202.274 124.172 202.092 124.252 201.899 124.268C201.811 124.275 201.723 124.269 201.637 124.249L201.615 124.306L201.597 124.351L201.581 124.391C201.569 124.419 201.557 124.448 201.545 124.476C201.676 124.78 201.73 125.114 201.699 125.448C201.699 125.509 201.687 125.57 201.663 125.627C201.64 125.684 201.605 125.735 201.561 125.778C201.332 125.961 201.065 125.985 200.796 125.917C200.316 126.7 199.728 127.471 199.072 128.209L211.404 167.813C211.732 168.864 212.047 169.914 212.357 170.967C221.32 166.349 231.517 164.697 241.479 166.248C251.441 167.799 260.654 172.473 267.788 179.598L267.795 179.61C272.212 184.009 275.719 189.237 278.113 194.994C280.507 200.75 281.742 206.923 281.748 213.158C281.731 212.056 281.219 200.25 267.514 183.321C265.233 180.505 262.349 178.225 259.346 176.18C252.602 171.6 244.737 168.944 236.597 168.497C228.457 168.05 220.349 169.829 213.143 173.642C213.271 174.089 213.398 174.536 213.524 174.981C219.653 171.799 226.616 170 234 170C258.577 170 278.5 189.924 278.5 214.5C278.5 239.077 258.577 259 234 259C209.423 259 189.5 239.077 189.5 214.5C189.5 198.551 197.89 184.562 210.498 176.706C210.375 176.271 210.252 175.835 210.128 175.399C203.422 179.664 197.969 185.633 194.327 192.696L191.887 191.435C195.838 183.798 201.778 177.369 209.08 172.827L209.345 172.665C208.969 171.373 208.583 170.089 208.185 168.813L207.477 166.542L174.9 200.879C177.916 202.565 181.144 203.855 184.505 204.713C184.958 205.391 185.268 206.155 185.414 206.957L185.415 206.962C185.495 207.377 185.5 207.802 185.43 208.218L168.111 208.034L167.989 208.163H176.508C176.968 208.164 177.409 208.346 177.734 208.671C178.06 208.996 178.243 209.437 178.245 209.897C178.244 210.357 178.061 210.798 177.736 211.124C177.411 211.449 176.97 211.633 176.51 211.634H165.679C165.77 211.754 165.859 211.877 165.946 212.003L166.269 211.782C166.536 212.171 166.779 212.576 166.996 212.995L166.651 213.172C166.854 213.56 167.042 213.969 167.213 214.395L167.571 214.254C167.739 214.676 167.892 215.115 168.023 215.561L167.655 215.67C167.68 215.755 167.705 215.841 167.729 215.928C167.826 216.273 167.91 216.621 167.983 216.971L168.352 216.895C168.445 217.344 168.52 217.803 168.573 218.259L168.198 218.303C168.251 218.753 168.284 219.204 168.297 219.656L168.677 219.644V220.129C168.687 220.427 168.68 220.731 168.663 221.029H168.653L168.278 221.007C168.253 221.433 168.211 221.859 168.151 222.283L168.141 222.346L168.525 222.407C168.448 222.864 168.349 223.317 168.227 223.765L167.866 223.669C167.748 224.119 167.61 224.549 167.455 224.96L167.802 225.092C167.636 225.527 167.447 225.952 167.234 226.366L166.908 226.199C166.697 226.613 166.469 227.005 166.226 227.375L166.528 227.574C166.276 227.962 166.003 228.336 165.711 228.694V228.699L165.426 228.467C165.134 228.825 164.83 229.159 164.52 229.469L164.777 229.725C164.457 230.048 164.11 230.361 163.751 230.659L163.52 230.379C163.158 230.678 162.797 230.949 162.443 231.193L162.647 231.491C162.271 231.748 161.878 231.993 161.475 232.221L161.308 231.927C161.291 231.939 161.274 231.951 161.255 231.962C161.199 231.994 161.141 232.014 161.082 232.025C160.752 232.204 160.42 232.369 160.089 232.522L160.25 232.871C159.826 233.048 159.406 233.226 158.979 233.386L158.849 233.035C158.411 233.197 157.981 233.335 157.565 233.451L157.665 233.81C157.201 233.939 156.743 234.041 156.306 234.128V234.116L156.244 233.75C155.744 233.835 155.284 233.88 154.88 233.885L154.885 234.259H154.797C154.618 234.259 154.438 234.25 154.259 234.232C154.036 234.208 153.774 234.174 153.466 234.133L153.518 233.763C153.136 233.709 152.692 233.64 152.193 233.557L152.132 233.924C151.736 233.859 151.292 233.783 150.814 233.699L150.879 233.331L150.614 233.284C150.485 233.261 150.353 233.237 150.219 233.213C150.008 233.174 149.791 233.135 149.568 233.094L149.502 233.458L148.192 233.216ZM168.227 223.765L168.238 223.768H168.226L168.227 223.765ZM127.008 72.4098L126.334 73.7437L125.819 74.7609L125.908 74.8006L125.246 76.2835C126.288 74.7425 127.362 73.2385 128.502 71.723C127.966 71.9516 127.465 72.1842 127.008 72.4098ZM125.032 76.6001L124.914 76.5471L124.417 77.5271C124.621 77.2162 124.826 76.9074 125.032 76.6001ZM144.166 123.208L143.56 123.175C145.001 123.652 146.443 124.14 147.894 124.631C148.404 124.804 148.915 124.977 149.427 125.15C153.388 126.507 157.215 128.227 160.859 130.287C163.387 131.699 171.356 137.164 171.739 137.565C172.614 138.198 175.47 140.269 176.122 141.574C176.581 142.518 177.1 145.079 177.066 150.212C177.045 157.219 176.606 167.664 176.149 176.726L203.331 153.196L196.348 130.8C196.301 130.838 196.253 130.877 196.205 130.915C196.279 131.301 196.316 131.685 196.309 132.056C196.309 132.471 196.207 132.936 195.86 133.164C195.738 133.233 195.596 133.259 195.456 133.239C195.317 133.22 195.188 133.155 195.089 133.055C195.077 132.938 195.045 132.824 194.994 132.718C194.98 132.778 194.982 132.84 194.998 132.899C195.015 132.958 195.046 133.012 195.089 133.055C195.124 133.296 195.079 133.542 194.962 133.756C194.845 133.969 194.661 134.139 194.439 134.239C194.217 134.339 193.969 134.365 193.731 134.311C193.493 134.258 193.28 134.129 193.122 133.943C193.208 134.052 193.268 134.18 193.298 134.316C193.327 134.453 193.326 134.594 193.292 134.729C193.259 134.865 193.195 134.991 193.106 135.098C193.017 135.205 192.904 135.29 192.777 135.347C192.65 135.405 192.511 135.432 192.372 135.427C192.232 135.423 192.096 135.386 191.973 135.321C191.85 135.256 191.743 135.163 191.661 135.051C191.579 134.938 191.523 134.808 191.499 134.671C191.584 135.141 190.434 134.726 189.859 134.459C188.865 134.65 187.869 134.837 186.871 135.02C184.256 135.495 181.51 135.927 178.946 135.28C178.729 135.243 178.526 135.151 178.356 135.013C178.207 134.838 178.121 134.617 178.114 134.387L178.113 134.378C178.018 133.515 177.877 132.226 178.88 131.668C179.423 131.362 180.318 131.284 181.09 131.217C181.367 131.193 181.629 131.17 181.852 131.139C183.136 130.958 184.427 130.777 185.722 130.651L185.715 130.651C184.526 130.684 183.54 130.711 182.223 130.309C182.06 130.259 181.67 130.168 181.169 130.05C180.339 129.855 179.202 129.588 178.273 129.318L178.269 129.332C178.152 129.707 178.034 130.082 177.912 130.457L176.457 130.016L175.7 129.773L175.468 129.701L175.118 129.594L175.116 129.593C174.583 129.43 174.05 129.267 173.517 129.089C171.089 128.308 168.673 127.471 166.322 126.474C164.151 125.555 151.649 118.61 148.066 115.396C147.913 115.258 147.761 115.119 147.613 114.976C147.24 114.784 146.893 114.547 146.579 114.268C146.467 114.168 146.357 114.064 146.25 113.956C145.671 116.472 145.144 118.816 144.767 120.567L144.736 120.713L144.69 120.929L144.649 121.118C144.616 121.277 144.584 121.43 144.554 121.577C144.403 122.304 144.294 122.857 144.233 123.212L144.166 123.208ZM179.693 124.007C179.661 124.15 179.63 124.294 179.597 124.436L179.785 124.463C182.194 124.783 184.642 124.634 186.994 124.024C187.154 123.983 187.314 123.939 187.474 123.895C188.391 123.645 189.321 123.391 190.252 123.527C190.862 123.617 191.333 123.907 191.81 124.201C192.132 124.399 192.457 124.599 192.828 124.74C193.002 124.804 193.183 124.819 193.367 124.808C192.28 124.231 191.238 123.551 190.415 122.641C189.91 122.086 189.202 121.349 188.547 120.97C188.173 120.748 187.737 120.635 187.298 120.521C187.171 120.488 187.044 120.455 186.918 120.419C186.759 120.95 186.558 121.468 186.318 121.967L185.124 121.606L184.377 121.375C183.559 121.126 182.74 120.871 181.922 120.609C179.494 119.83 177.078 118.991 174.727 117.996C172.556 117.074 160.054 110.13 156.471 106.918C156.398 106.852 156.326 106.786 156.253 106.718C156.174 106.645 156.095 106.571 156.018 106.496C155.644 106.306 155.296 106.068 154.984 105.788C153.986 104.901 153.191 103.664 152.472 102.403C152.507 102.508 152.543 102.614 152.578 102.719C153.085 104.233 153.624 105.734 154.206 107.219C155.279 107.732 156.322 108.308 157.328 108.943C158.315 109.555 159.273 110.214 160.217 110.884C162.832 112.74 165.483 114.438 168.222 116.136L177.876 122.147L178.393 122.467L179.836 123.374C179.786 123.581 179.739 123.794 179.693 124.007ZM195.51 124.894C195.605 124.993 195.68 125.111 195.728 125.241C195.818 125.484 195.813 125.751 195.712 125.989C195.52 126.409 195.078 126.626 194.652 126.835C194.601 126.86 194.55 126.885 194.5 126.911C194.432 126.947 194.359 126.993 194.344 127.068C194.344 127.105 194.352 127.141 194.367 127.175C194.382 127.208 194.404 127.238 194.432 127.262C194.524 127.368 194.614 127.478 194.702 127.593C195.555 126.748 196.338 125.861 196.923 125.104L196.925 125.101C197.132 124.833 197.796 123.975 198.242 123.134C198.105 122.974 197.959 122.837 197.801 122.734C197.399 122.512 196.956 122.377 196.498 122.338L193.316 121.853C193.937 122.348 194.44 123.059 194.915 123.73C194.996 123.845 195.077 123.959 195.157 124.07C195.331 124.308 195.502 124.616 195.51 124.894ZM175.108 195.2H170.733L170.718 198.123C170.718 198.123 170.716 198.135 170.709 198.158C170.705 198.172 170.699 198.19 170.69 198.212L170.744 198.205C171.152 198.505 171.566 198.797 171.984 199.08L206.259 162.625L204.382 156.597L175.902 181.466C175.481 189.314 175.108 195.2 175.108 195.2ZM162.817 199.389L162.649 195.2H161.364C161.364 195.2 161.344 194.849 161.309 194.209L148.146 205.703L148.563 206.457L148.71 206.455L148.704 206.055H149.468H150.045L150.041 206.453C150.48 206.459 150.918 206.471 151.357 206.489L151.372 206.084C151.826 206.101 152.28 206.125 152.716 206.154L152.688 206.565C153.132 206.596 153.576 206.635 154.019 206.679L154.06 206.273C154.514 206.319 154.965 206.373 155.399 206.433L155.365 206.677C155.385 206.675 155.405 206.675 155.426 206.676C155.602 206.683 155.743 206.781 155.864 206.906C156.141 206.949 156.414 206.995 156.681 207.044L156.753 206.659C157.206 206.744 157.655 206.836 158.082 206.935L157.991 207.315C158.326 207.394 158.652 207.477 158.968 207.566C159.083 207.533 159.201 207.521 159.317 207.55L159.397 207.285C159.845 207.418 160.282 207.564 160.697 207.719L160.56 208.082C160.903 208.211 161.233 208.346 161.55 208.489C161.67 208.403 161.801 208.332 161.938 208.279L161.956 208.243L161.992 208.26C162.172 208.197 162.363 208.164 162.558 208.163H163.445L163.611 207.986L162.684 207.976C162.684 207.976 162.582 207.532 162.475 206.8C162.31 205.688 162.229 204.566 162.232 203.442C162.232 201.307 162.64 199.899 162.817 199.389ZM150.516 198.915L161.073 189.777C160.609 180.884 159.757 163.307 159.759 154.468C159.76 152.218 158.036 150.173 155.812 149.837C154.042 149.571 151.85 149.221 149.443 148.83C154.544 156.341 158.556 162.573 158.652 162.906C159.823 166.738 158.56 171.494 157.855 174.149C157.732 174.612 157.626 175.011 157.553 175.331C155.731 183.336 153.313 191.201 150.516 198.915ZM164.974 211.634H164.696L164.524 211.815C164.52 211.839 164.517 211.864 164.516 211.889C164.514 211.909 164.514 211.929 164.513 211.949C164.513 211.976 164.513 212.004 164.513 212.029L164.658 212.211C164.745 212.228 164.835 212.248 164.901 212.248L164.916 212.25C165.08 212.273 165.261 212.299 165.412 212.368L165.486 212.317C165.323 212.078 165.153 211.85 164.974 211.634ZM129.454 228.402L128.883 228.28L128.961 227.916L127.663 227.639L127.585 228.003L127.425 227.969C128.281 225.272 128.886 222.464 129.214 219.572L130.078 219.643L129.958 220.118L129.769 220.141C129.769 220.141 129.107 221.679 129.107 224.406C129.104 225.53 129.185 226.653 129.349 227.765C129.386 228.012 129.422 228.227 129.454 228.402ZM165.682 213.39L165.689 213.361C165.715 213.408 165.741 213.455 165.766 213.503L165.797 213.561L165.818 213.599L166.148 213.429C166.26 213.644 166.367 213.865 166.468 214.09C166.327 213.997 166.149 213.944 165.983 213.895L165.973 213.892C165.91 213.875 165.827 213.851 165.755 213.825C165.726 213.773 165.697 213.724 165.667 213.673L165.633 213.616C165.633 213.541 165.667 213.453 165.682 213.39ZM166.519 215.28L166.532 215.248C166.575 215.372 166.617 215.498 166.658 215.624L166.589 215.59L166.494 215.348C166.502 215.326 166.51 215.303 166.519 215.28ZM167.117 215.859C167.106 215.852 167.095 215.845 167.083 215.838L167.109 215.83L167.117 215.859ZM167.347 216.738C167.357 216.78 167.366 216.822 167.376 216.864C167.392 216.938 167.408 217.011 167.423 217.085L167.115 217.148C167.135 217.112 167.156 217.077 167.175 217.046L167.198 217.007L167.208 216.99L167.209 216.989L167.243 216.93C167.262 216.897 167.281 216.864 167.299 216.831C167.316 216.8 167.332 216.769 167.347 216.738ZM167.465 221.013C167.483 220.995 167.502 220.979 167.52 220.962L167.716 220.974C167.702 221.203 167.683 221.431 167.658 221.657C167.619 221.606 167.579 221.556 167.539 221.508L167.53 221.497L167.407 221.335C167.407 221.298 167.409 221.26 167.412 221.223L167.415 221.19L167.419 221.144L167.42 221.143L167.42 221.142L167.42 221.141C167.423 221.11 167.426 221.079 167.428 221.048C167.44 221.036 167.453 221.025 167.465 221.013ZM167.292 223.596C167.274 223.564 167.256 223.533 167.237 223.502L167.312 223.522L167.292 223.596ZM166.946 224.676C166.936 224.703 166.926 224.729 166.916 224.756L166.841 224.727C166.875 224.711 166.911 224.694 166.946 224.676ZM166.079 226.51C165.97 226.697 165.857 226.879 165.741 227.056L165.682 227.018C165.678 226.994 165.671 226.968 165.663 226.942L165.662 226.939L165.662 226.938C165.659 226.927 165.656 226.916 165.653 226.905C165.649 226.891 165.646 226.877 165.643 226.863C165.665 226.827 165.686 226.792 165.708 226.755C165.739 226.702 165.769 226.648 165.798 226.594L165.975 226.54L165.981 226.539L166.033 226.524L166.079 226.51ZM132.651 229.08H132.774L132.797 228.974L132.114 228.966L132.651 229.08ZM142.753 229.08H134.13L134.145 229.01L134.038 228.987L142.753 229.08ZM121.527 226.701C122.342 224.259 122.919 221.708 123.231 219.076L93.9837 216.652C93.8857 216.993 93.7691 217.33 93.6344 217.659L106.902 223.283L106.935 223.132L108.231 223.418L108.153 223.786L109.455 224.072L109.538 223.697L110.831 223.981L110.75 224.355L112.045 224.639L112.126 224.265L113.422 224.549L113.341 224.922L114.624 225.202L114.705 224.828L115.998 225.109L115.916 225.484L117.211 225.766L117.291 225.4L118.589 225.681L118.509 226.048L119.809 226.329L119.889 225.963L121.184 226.244L121.105 226.61L121.527 226.701ZM105.446 223.776L106.73 224.059L106.649 224.425L107.957 224.706L107.987 224.565L120.34 229.801C116.313 239.088 108.732 246.477 99.3134 250.252L88.493 222.992L88.5474 222.967C89.4375 222.56 90.2623 222.023 90.9949 221.374C91.1201 221.266 91.2395 221.155 91.3554 221.041L92.3908 221.271L92.4735 220.898L93.788 221.191L93.7079 221.553L95.0033 221.842L95.084 221.48L96.3789 221.768L96.2986 222.128L97.594 222.416L97.6738 222.056L98.9692 222.343L98.8893 222.705L100.185 222.991L100.264 222.631L101.56 222.917L101.48 223.278L102.775 223.564L102.855 223.204L104.15 223.49L104.071 223.85L105.366 224.136L105.446 223.776ZM92.677 219.979L92.5961 220.344L93.9108 220.637L93.9942 220.26L95.2919 220.549L95.2079 220.925L96.5029 221.213L96.5873 220.835L97.8802 221.124L97.7969 221.5L99.0922 221.787L99.1755 221.41L100.471 221.698L100.388 222.074L101.683 222.36L101.766 221.985L102.045 222.046L93.3227 218.349C93.2921 218.41 93.2609 218.47 93.229 218.531C92.9756 219.013 92.6832 219.473 92.3551 219.907L92.677 219.979ZM103.984 222.868L103.02 222.459L102.978 222.646L103.984 222.868ZM110.89 224.973L111.923 225.2L111.881 225.393L110.89 224.973ZM120.634 229.103L112.723 225.75L113.14 225.842L113.218 225.483L114.502 225.764L114.424 226.123L115.714 226.412L115.794 226.046L117.089 226.328L117.009 226.693L118.307 226.974L118.387 226.61L119.687 226.892L119.607 227.258L120.903 227.537L120.982 227.173L121.339 227.25C121.119 227.875 120.884 228.493 120.634 229.103ZM88.7983 219.103L88.7146 219.477L87.415 219.187L87.5005 218.817L86.7708 218.653L86.6458 218.338C86.8218 218.25 86.9931 218.151 87.1585 218.041C87.7978 217.617 88.3262 217.051 88.7055 216.392L90.7013 217.238C90.4212 217.77 90.0733 218.265 89.6656 218.71C89.5131 218.877 89.3525 219.037 89.1845 219.189L88.7983 219.103ZM87.2876 219.737L87.2558 219.875L87.4452 220.352C87.4674 220.342 87.4895 220.331 87.5116 220.321C87.7465 220.207 87.9746 220.08 88.195 219.941L87.2876 219.737ZM85.9117 219.816L85.9943 219.447L85.164 219.26L84.6756 219.149L84.5969 219.52L84.0875 219.406C83.7951 219.334 83.5068 219.245 83.2239 219.142L83.3536 218.784C83.2561 218.748 83.1526 218.708 83.0444 218.664L83.0322 218.661L82.1847 220.66C82.7627 220.854 83.3637 220.972 83.9725 221.01C84.1253 221.024 84.2708 221.024 84.4334 221.024C84.5959 221.024 84.7584 221.019 84.9185 221.007C85.5019 220.969 86.0781 220.858 86.6335 220.675L86.6682 220.663C86.6935 220.655 86.7188 220.646 86.7441 220.637L86.4679 219.942L85.9117 219.816ZM86.0464 218.88L85.9454 218.625C85.7911 218.675 85.6345 218.717 85.476 218.752L86.0464 218.88ZM80.0696 216.475C80.3236 216.844 80.6306 217.165 80.9613 217.444L80.7157 217.737C81.093 218.046 81.4992 218.318 81.9286 218.55L82.0834 218.269C82.1629 218.312 82.2435 218.352 82.3252 218.391L81.481 220.383C81.4349 220.362 81.3892 220.34 81.3436 220.318L81.3002 220.297L81.2684 220.281L81.2363 220.265C80.735 220.01 80.2652 219.698 79.8366 219.333C79.5967 219.128 79.3699 218.908 79.1574 218.674C78.7672 218.238 78.4316 217.757 78.158 217.24L78.1552 217.235L79.7066 216.619L80.0696 216.475ZM77.8371 216.547L79.3395 215.95C79.2328 215.706 79.1493 215.452 79.0905 215.19L79.4687 215.106C79.3859 214.727 79.3567 214.317 79.3962 213.871C79.4013 213.813 79.4072 213.757 79.4139 213.7L79.0274 213.655C79.0771 213.231 79.1775 212.816 79.3264 212.417L77.6929 211.724L77.6898 211.734C77.5102 212.284 77.3978 212.854 77.3551 213.432C77.3381 213.599 77.3381 213.791 77.3381 213.939C77.3381 214.013 77.3418 214.087 77.3454 214.16C77.3474 214.2 77.3494 214.24 77.3508 214.28C77.3519 214.313 77.3527 214.345 77.3527 214.378C77.3944 215.061 77.5357 215.734 77.7723 216.377L77.7843 216.409L77.8057 216.466L77.8178 216.498L77.8371 216.547ZM89.1683 209.538L89.0936 209.675L89.1088 209.934L88.9477 209.943L88.4052 210.938C88.2757 210.793 88.1384 210.657 87.9941 210.529C88.4315 210.987 88.7765 211.525 89.0109 212.112L91.0205 211.314C91.0066 211.279 90.9924 211.244 90.978 211.21C90.7199 210.592 90.376 210.014 89.9567 209.493L89.1683 209.538ZM89.4952 208.974L89.4757 208.975L89.4831 208.961L89.4952 208.974ZM94.426 209.643L94.4029 209.237L95.7273 209.162L95.7431 209.439L93.6614 210.266C93.6476 210.231 93.6337 210.196 93.6196 210.162C93.5557 210.006 93.4879 209.852 93.4163 209.7L94.426 209.643ZM96.9996 208.17L97.0209 208.544L98.1572 208.481L98.3419 208.408L98.3241 208.095L99.2594 208.044L120.513 199.607C117.291 191.932 111.653 185.522 104.551 181.327L90.8885 206.384C90.9439 206.431 90.9988 206.48 91.0532 206.528L91.0852 206.557L91.1086 206.579C91.129 206.597 91.1493 206.616 91.1696 206.635C91.4 206.848 91.6232 207.067 91.8318 207.309C92.2397 207.765 92.6038 208.256 92.9201 208.776L93.0475 208.769L93.0263 208.396L94.3508 208.318L94.3721 208.694L95.6964 208.619L95.6752 208.245L96.9996 208.17ZM93.9149 210.979L98.3872 209.204L98.3993 209.417L99.7213 209.344L99.6991 208.94L101.024 208.867L101.046 209.271L102.37 209.199L102.348 208.795L103.147 208.751L103.672 208.723L103.695 209.128L105.019 209.058L104.997 208.652C105.44 208.628 105.881 208.605 106.32 208.582L106.341 208.988L107.673 208.9L107.65 208.512C108.092 208.488 108.532 208.465 108.969 208.443L108.99 208.847L110.314 208.779L110.293 208.374C110.737 208.351 111.178 208.329 111.616 208.307L111.636 208.711L112.961 208.646L112.941 208.24C113.385 208.217 113.827 208.195 114.265 208.174L114.285 208.58L115.607 208.515L115.588 208.108C116.033 208.087 116.474 208.065 116.913 208.044L116.932 208.449L118.256 208.386L118.237 207.98L118.776 207.955L119.565 207.918L119.583 208.323L120.91 208.262L120.891 207.856L121.5 207.828L122.21 207.796L122.227 208.19L122.979 208.155C123.322 210.219 123.5 212.339 123.5 214.5C123.5 214.941 123.492 215.38 123.478 215.818L94.3418 213.349C94.2975 212.571 94.1618 211.799 93.9373 211.052C93.93 211.028 93.9225 211.003 93.9149 210.979ZM103.643 208.181L103.144 208.208L102.318 208.252L102.297 207.877L101.64 207.913L120.799 200.308C121.63 202.401 122.282 204.585 122.738 206.84L122.169 206.865L122.186 207.255C121.75 207.274 121.31 207.295 120.867 207.315L120.849 206.938L119.523 207.001L119.54 207.377L118.826 207.41L118.211 207.439L118.193 207.064L116.869 207.127L116.887 207.503L116.347 207.529L115.562 207.567L115.544 207.19L114.22 207.256L114.239 207.632L113.449 207.671L112.914 207.698L112.895 207.324L111.569 207.389L111.588 207.765C111.15 207.787 110.708 207.81 110.264 207.833L110.244 207.457L108.92 207.525L108.94 207.901C108.502 207.924 108.061 207.947 107.618 207.97L107.595 207.595L106.271 207.663L106.291 208.04L105.782 208.067L104.967 208.11L104.946 207.734L103.622 207.806L103.643 208.181ZM100.994 208.325L100.985 208.173L100.54 208.349L100.994 208.325ZM128.953 207.506C129.313 209.785 129.5 212.121 129.5 214.5C129.5 215.111 129.487 215.72 129.463 216.325L130.888 216.446L131.835 212.707L130.584 212.321C130.979 210.638 131.388 209.001 131.805 207.395L131.481 207.407L131.496 207.799L130.169 207.852L130.154 207.458C129.758 207.474 129.358 207.49 128.953 207.506ZM131.947 206.848L131.46 206.867L131.445 206.475L130.118 206.528L130.133 206.918C129.715 206.934 129.293 206.951 128.865 206.968C126.616 193.778 118.562 182.566 107.425 176.056L108.158 174.712C115.111 178.985 120.765 185.075 124.512 192.325L126.952 191.059C122.988 183.429 117.038 177.01 109.73 172.48L109.453 172.313L117.567 157.426L136.113 191.471C136.029 191.782 135.951 192.072 135.882 192.34C135.232 194.834 134.559 197.267 133.885 199.706L133.885 199.708C133.234 202.063 132.582 204.424 131.947 206.848ZM152.709 207.247L152.684 207.279C152.668 207.299 152.652 207.319 152.636 207.337L152.652 207.105L152.811 207.116L152.779 207.157L152.765 207.176C152.753 207.191 152.739 207.208 152.725 207.226L152.709 207.247ZM149.468 207.379C149.335 207.379 149.204 207.379 149.074 207.38L149.272 207.738C149.332 207.669 149.404 207.613 149.493 207.578C149.762 207.472 150.055 207.615 150.298 207.741L150.302 207.743C150.355 207.769 150.426 207.805 150.492 207.833L150.735 207.755C150.773 207.695 150.812 207.622 150.841 207.571C150.954 207.365 151.082 207.136 151.286 207.028C150.869 207.011 150.452 207 150.035 206.994L150.031 207.379H149.468ZM167.596 218.866L167.568 218.9L167.533 218.943C167.494 218.989 167.445 219.05 167.402 219.108L167.424 219.382C167.472 219.43 167.53 219.484 167.574 219.523L167.591 219.539L167.593 219.54L167.625 219.57L167.667 219.608C167.688 219.628 167.71 219.649 167.732 219.671C167.722 219.369 167.702 219.067 167.674 218.766C167.659 218.787 167.643 218.807 167.627 218.828C167.617 218.84 167.607 218.853 167.596 218.866ZM164.802 228.201C164.778 228.205 164.753 228.209 164.729 228.214L164.53 228.456C164.535 228.483 164.538 228.511 164.54 228.537L164.54 228.551C164.541 228.56 164.541 228.568 164.541 228.576L164.542 228.6C164.663 228.467 164.783 228.329 164.901 228.188C164.871 228.191 164.838 228.195 164.802 228.201ZM150.559 232.674C150.522 232.662 150.485 232.65 150.447 232.638L150.446 232.638L150.419 232.629L150.369 232.653L150.66 232.706C150.626 232.695 150.592 232.685 150.559 232.674ZM141.319 220.903C141.204 220.796 141.079 220.68 140.994 220.548L139.416 220.417C140.037 220.823 140.669 221.211 141.311 221.581L141.335 221.552L141.357 221.526L141.378 221.5L141.471 221.386L141.464 221.321L141.464 221.32C141.458 221.257 141.452 221.195 141.448 221.133C141.445 221.094 141.444 221.056 141.444 221.017C141.408 220.98 141.369 220.946 141.337 220.92L141.319 220.903ZM150.63 218.118L145.498 217.683C145.643 217.175 145.832 216.678 146.063 216.199C146.565 215.168 147.252 214.238 148.089 213.454L150.63 218.118ZM141.488 216.224C141.546 216.026 141.701 215.905 141.875 215.811L138.88 214.885L138.207 217.066L141.742 217.365C141.758 217.294 141.774 217.223 141.791 217.153C141.781 217.135 141.771 217.116 141.761 217.099C141.743 217.068 141.726 217.039 141.711 217.014L141.705 217.004C141.561 216.767 141.404 216.508 141.488 216.224ZM113.83 143.688L113.778 143.73L113.761 143.744C113.91 143.866 114.037 144.013 114.13 144.182L119.142 153.242L121.014 156.643L137.545 186.535C138.956 181.874 140.863 175.994 142.553 171.389C143.348 169.222 142.652 166.768 140.796 165.396C139.037 164.095 137.285 162.782 135.542 161.458C128.951 156.446 122.54 151.219 116.311 145.776C115.513 145.077 114.706 144.361 113.913 143.623C113.885 143.644 113.857 143.666 113.83 143.688ZM91.4744 213.107C91.4319 212.743 91.3612 212.384 91.263 212.032L89.2394 212.835C89.4557 213.783 89.3872 214.775 89.0405 215.686L89.0319 215.709L89.3767 215.855C89.5604 215.33 89.6547 214.778 89.6544 214.22C89.6552 213.797 89.6005 213.377 89.4919 212.968V212.939L89.7854 212.963L91.4744 213.107ZM90.596 216.372L91.0715 216.411C91.0569 216.45 91.0418 216.488 91.0265 216.527L91.0174 216.55L90.596 216.372ZM101.554 179.731C100.996 179.465 100.43 179.212 99.857 178.972L92.5059 196.313L101.554 179.731ZM86.576 207.179L85.6859 208.811L85.0626 208.847L85.0742 209.043C84.8611 209.014 84.6463 209 84.4312 209.001C84.3263 209.001 84.2217 209.004 84.1175 209.01L84.1021 208.905C83.7308 208.966 83.3651 209.056 83.0082 209.174L82.2242 207.199C82.7863 207.015 83.3704 206.902 83.9628 206.863C84.0383 206.863 84.1144 206.859 84.1908 206.856H84.1926L84.1936 206.855L84.2488 206.853C84.2856 206.851 84.3224 206.85 84.3593 206.849L84.3824 206.849L84.4058 206.848L84.4261 206.848C84.5813 206.848 84.7511 206.848 84.9112 206.865C85.4773 206.902 86.0364 207.007 86.576 207.179ZM88.8252 203.058L87.9615 204.64C86.981 204.264 85.9462 204.048 84.8967 204H84.4115H83.9506C83.0529 204.041 82.165 204.205 81.3115 204.486C81.263 204.502 81.2147 204.518 81.1666 204.535L70.8979 178.665C75.2649 176.945 80.0221 176 84.9999 176C89.9985 176 94.7745 176.953 99.1565 178.687L88.8252 203.058ZM212.202 182.761C206.377 186.77 201.71 192.34 198.806 198.868L224.929 209.94C224.959 209.875 224.989 209.809 225.02 209.744C225.27 209.216 225.565 208.71 225.903 208.235C225.184 207.403 224.48 206.559 223.79 205.703C219.523 200.362 216.387 195.086 214.47 190.021C214.017 188.818 213.59 187.539 213.172 186.118C212.844 185.004 212.52 183.881 212.202 182.761ZM227.77 210.605C227.748 210.645 227.726 210.685 227.705 210.725C227.686 210.762 227.667 210.8 227.648 210.837C227.638 210.857 227.628 210.877 227.618 210.897C227.594 210.947 227.57 210.998 227.546 211.05L229.022 211.675C228.633 211.266 228.247 210.853 227.865 210.437L227.849 210.464L227.825 210.506L227.802 210.546C227.791 210.566 227.78 210.586 227.77 210.605ZM231.71 209.604C231.198 209.068 230.697 208.534 230.209 208.001C230.437 207.856 230.673 207.725 230.917 207.607L231.71 209.604ZM234.334 212.246C234.316 212.228 234.297 212.211 234.279 212.194C234.25 212.167 234.221 212.141 234.191 212.114C233.817 211.747 233.447 211.38 233.083 211.013L232.98 210.753C233.257 210.665 233.547 210.611 233.842 210.596H233.978C234.316 210.596 234.651 210.646 234.971 210.743L234.334 212.246ZM235.235 213.258C235.202 213.198 235.166 213.14 235.125 213.085C235.054 212.999 234.982 212.915 234.908 212.832L235.666 211.042C235.72 211.073 235.773 211.105 235.825 211.138C236.358 211.48 236.785 211.964 237.058 212.534L235.235 213.258ZM235.416 214.385C235.441 214.255 235.45 214.122 235.444 213.989L237.311 213.248C237.393 213.602 237.418 213.968 237.384 214.333C237.358 214.611 237.298 214.883 237.206 215.144L235.416 214.385ZM234.818 215.382C234.928 215.294 235.027 215.191 235.111 215.078L236.877 215.826C236.842 215.881 236.806 215.935 236.768 215.988C236.452 216.432 236.034 216.793 235.549 217.043L235.522 217.057L235.489 217.073L234.818 215.382ZM233.672 215.75C233.703 215.752 233.735 215.753 233.767 215.753C233.891 215.753 234.014 215.739 234.134 215.712L234.776 217.329C234.517 217.391 234.251 217.422 233.983 217.422C233.656 217.418 233.334 217.368 233.026 217.274L233.672 215.75ZM232.483 215.165C232.612 215.315 232.767 215.441 232.94 215.537L232.331 216.975C232.072 216.828 231.832 216.646 231.617 216.433C231.402 216.221 231.219 215.982 231.069 215.726L232.483 215.165ZM230.667 213.362C231.05 213.746 231.436 214.126 231.826 214.504L231.904 214.58L230.763 215.033C230.666 214.726 230.613 214.404 230.606 214.077C230.601 213.835 230.622 213.596 230.667 213.362ZM228.296 205.847C223.275 200.012 219.699 194.311 217.626 188.827C217.202 187.702 216.801 186.504 216.413 185.165C215.997 183.752 215.589 182.322 215.187 180.902C216.572 180.125 218.01 179.431 219.493 178.827L229.86 204.944C229.311 205.197 228.788 205.5 228.296 205.847ZM230.559 204.654L220.197 178.549C224.482 176.903 229.135 176 234 176C239.127 176 244.02 177.003 248.494 178.822L237.536 204.689C236.558 204.317 235.528 204.103 234.483 204.054H233.998H233.537C232.64 204.094 231.753 204.255 230.9 204.534C230.786 204.572 230.672 204.612 230.559 204.654ZM229.251 212.594L227.27 211.754L227.264 211.772C227.084 212.323 226.972 212.893 226.932 213.47C226.912 213.638 226.912 213.829 226.912 213.977C226.912 214.052 226.916 214.125 226.92 214.199C226.923 214.271 226.927 214.344 226.927 214.416C226.969 215.096 227.109 215.761 227.338 216.392L229.317 215.607L229.31 215.589L229.296 215.547C229.283 215.506 229.27 215.465 229.257 215.423C228.979 214.5 228.977 213.516 229.251 212.594ZM229.618 216.302L227.634 217.089C227.922 217.675 228.291 218.222 228.734 218.712C228.944 218.947 229.17 219.168 229.411 219.372C229.865 219.76 230.366 220.088 230.901 220.349L231.732 218.389C231.464 218.252 231.209 218.091 230.968 217.905C230.405 217.472 229.946 216.924 229.618 216.302ZM232.43 218.681L231.599 220.643L231.642 220.659L231.681 220.672C232.283 220.882 232.911 221.009 233.547 221.048C233.699 221.065 233.845 221.065 234.008 221.065C234.089 221.065 234.171 221.061 234.252 221.057C234.332 221.053 234.413 221.048 234.493 221.048C235.049 221.01 235.598 220.906 236.13 220.739L235.336 218.74C234.842 218.882 234.325 218.946 233.804 218.928C233.334 218.911 232.871 218.827 232.43 218.681ZM236.046 218.476L236.838 220.473C237.459 220.202 238.039 219.842 238.558 219.404C238.801 219.203 239.028 218.985 239.24 218.751C239.609 218.348 239.929 217.904 240.196 217.427L240.216 217.391L240.238 217.351C240.252 217.324 240.267 217.297 240.282 217.27L238.275 216.419C237.895 217.095 237.358 217.675 236.706 218.108C236.494 218.248 236.274 218.371 236.046 218.476ZM238.595 215.733L240.599 216.582L240.603 216.573C240.878 215.886 241.043 215.16 241.091 214.421C241.105 214.276 241.105 214.154 241.105 213.982C241.105 213.948 241.104 213.914 241.103 213.881C241.102 213.859 241.101 213.837 241.1 213.815C241.099 213.785 241.097 213.755 241.095 213.725C241.091 213.641 241.086 213.558 241.086 213.475C241.055 213.03 240.981 212.589 240.865 212.158C240.84 212.061 240.812 211.965 240.783 211.87L238.729 212.685C238.735 212.707 238.741 212.73 238.747 212.752V212.743C239.008 213.731 238.955 214.776 238.595 215.733ZM238.471 211.973L240.519 211.16C240.239 210.518 239.864 209.92 239.407 209.388C239.203 209.147 238.982 208.92 238.747 208.709C238.257 208.269 237.709 207.9 237.12 207.612L236.263 209.633C236.615 209.818 236.946 210.046 237.247 210.313C237.769 210.776 238.185 211.343 238.471 211.973ZM235.568 209.334L236.423 207.316C235.803 207.09 235.154 206.954 234.495 206.911C234.335 206.894 234.165 206.894 234.01 206.894C233.932 206.894 233.855 206.898 233.778 206.902C233.747 206.903 233.716 206.904 233.685 206.906C233.64 206.907 233.594 206.909 233.549 206.909C233.004 206.944 232.465 207.042 231.943 207.202C231.906 207.214 231.868 207.226 231.831 207.238L231.806 207.246L231.763 207.26C231.714 207.277 231.664 207.294 231.614 207.312L232.412 209.323C232.914 209.155 233.443 209.068 233.978 209.068C234.201 209.067 234.424 209.082 234.645 209.114C234.961 209.158 235.27 209.232 235.568 209.334ZM234.514 223.891C235.422 223.847 236.32 223.678 237.181 223.389L247.908 250.412C243.594 252.083 238.904 253 234 253C228.736 253 223.718 251.944 219.148 250.031L230.493 223.253L230.563 223.28C231.527 223.64 232.541 223.846 233.568 223.891C233.721 223.891 233.874 223.903 234.029 223.903C234.185 223.903 234.352 223.903 234.514 223.891ZM237.889 223.121L248.611 250.131C257.953 246.296 265.454 238.894 269.418 229.619L242.921 218.388C242.908 218.415 242.895 218.441 242.881 218.467C242.863 218.502 242.846 218.537 242.827 218.572C242.409 219.366 241.885 220.101 241.27 220.755C241.057 220.985 240.836 221.206 240.593 221.415C239.859 222.063 239.034 222.6 238.143 223.008C238.098 223.029 238.053 223.05 238.008 223.07C237.968 223.087 237.929 223.104 237.889 223.121ZM238.232 204.985L249.193 179.114C258.352 183.052 265.676 190.441 269.529 199.645L243.162 210.111C242.735 209.106 242.145 208.177 241.416 207.362C241.207 207.126 240.986 206.901 240.753 206.688C240.078 206.061 239.319 205.532 238.498 205.116C238.41 205.071 238.321 205.027 238.232 204.985ZM224.718 217.432C224.358 216.466 224.152 215.449 224.108 214.419C224.096 214.273 224.096 214.152 224.096 213.98C224.096 213.808 224.108 213.64 224.108 213.473C224.15 212.508 224.332 211.555 224.65 210.644L198.505 199.562C196.57 204.156 195.5 209.203 195.5 214.5C195.5 219.271 196.368 223.84 197.954 228.056L224.718 217.432ZM198.228 228.762L225.01 218.131C225.039 218.194 225.069 218.257 225.1 218.319C225.529 219.196 226.084 220.005 226.747 220.721C226.963 220.951 227.189 221.174 227.424 221.383C228.106 221.993 228.87 222.505 229.692 222.906C229.727 222.923 229.762 222.94 229.797 222.957L218.453 249.732C209.264 245.672 201.962 238.121 198.228 228.762ZM243.431 210.819L269.815 200.346C271.548 204.727 272.5 209.503 272.5 214.5C272.5 219.599 271.509 224.467 269.708 228.92L243.231 217.698C243.659 216.651 243.903 215.539 243.953 214.409V213.97C243.953 213.871 243.946 213.751 243.94 213.632L243.94 213.631C243.937 213.573 243.934 213.515 243.931 213.461C243.89 212.662 243.752 211.871 243.521 211.105L243.505 211.05C243.498 211.029 243.492 211.008 243.485 210.987C243.468 210.931 243.45 210.875 243.431 210.819ZM49.429 199.745C47.5418 204.289 46.5 209.273 46.5 214.5C46.5 219.257 47.3625 223.812 48.9397 228.017L75.2153 217.588C75.1896 217.524 75.1645 217.46 75.1404 217.395C74.7692 216.424 74.5531 215.401 74.5 214.363V213.922V213.417C74.5485 212.458 74.7355 211.512 75.0553 210.606L49.429 199.745ZM75.521 218.28C75.9504 219.151 76.5036 219.955 77.1635 220.668C77.3793 220.898 77.6049 221.121 77.8402 221.33C78.5226 221.94 79.2858 222.452 80.1083 222.853C80.1984 222.896 80.2889 222.938 80.3801 222.979L69.1053 249.576C60.0675 245.475 52.8954 237.982 49.2124 228.723L75.521 218.28ZM81.2899 215.176C81.1465 214.807 81.0671 214.413 81.0588 214.01C81.053 213.731 81.0815 213.454 81.1421 213.186L83.6379 214.244L81.2899 215.176ZM81.6427 215.851C81.7671 216.035 81.91 216.208 82.0701 216.366C82.3229 216.617 82.6109 216.824 82.9223 216.982L83.7581 215.011L81.6427 215.851ZM81.0816 223.262L69.797 249.882C74.4608 251.889 79.6006 253 84.9999 253C89.7907 253 94.3772 252.125 98.6081 250.526L87.7914 223.276C87.7508 223.29 87.7101 223.305 87.6693 223.319C86.7861 223.62 85.865 223.794 84.9331 223.838C84.9082 223.838 84.8832 223.838 84.8582 223.837C84.8286 223.837 84.7989 223.836 84.7693 223.835C84.6601 223.833 84.5513 223.83 84.4479 223.838C84.3442 223.846 84.2406 223.843 84.1376 223.841L84.0758 223.839C84.0453 223.839 84.0149 223.838 83.9846 223.838C82.9931 223.795 82.0142 223.601 81.0816 223.262ZM84.4361 217.355C84.7591 217.355 85.0794 217.309 85.3876 217.22L84.544 215.095L83.6306 217.249C83.8919 217.316 84.1622 217.352 84.4361 217.355ZM85.3004 214.949L86.087 216.931C86.5355 216.684 86.9231 216.339 87.2208 215.921C87.2496 215.881 87.2774 215.84 87.3044 215.798L85.3004 214.949ZM49.7262 199.049C53.6986 189.993 61.0556 182.76 70.1965 178.949L80.4618 204.811L80.4285 204.825C79.3954 205.279 78.4478 205.907 77.6268 206.681C77.3953 206.896 77.1751 207.123 76.967 207.36C76.3473 208.063 75.8296 208.849 75.4291 209.696C75.3969 209.764 75.3655 209.833 75.3348 209.903L49.7262 199.049ZM81.474 207.494L81.5187 207.473L82.3145 209.478C82.0519 209.603 81.7996 209.751 81.5609 209.922C81.5185 209.952 81.4766 209.983 81.4353 210.015L81.3877 209.941C80.9632 210.21 80.578 210.537 80.2427 210.911L80.4179 211.067C80.2398 211.316 80.085 211.582 79.9557 211.862L77.9677 211.019C78.2328 210.434 78.5773 209.886 78.9925 209.393C79.6697 208.585 80.517 207.936 81.474 207.494ZM81.9722 211.614C82.2373 211.329 82.5467 211.094 82.8852 210.916L83.9291 213.546L81.3905 212.47C81.5385 212.159 81.7338 211.87 81.9722 211.614ZM83.5901 210.64L84.5673 213.102L85.5745 210.726C85.2093 210.596 84.8227 210.529 84.4312 210.529H84.2954C84.0553 210.541 83.819 210.579 83.5901 210.64ZM87.5862 212.633L87.5738 212.604C87.566 212.586 87.5581 212.568 87.55 212.55L87.5386 212.525C87.2663 211.93 86.8287 211.425 86.2778 211.071L86.2556 211.057L85.1607 213.64L87.6019 212.671L87.5862 212.633ZM87.8076 213.403C87.8538 213.687 87.864 213.977 87.837 214.266C87.8095 214.559 87.7442 214.846 87.6436 215.12L85.6315 214.267L87.8076 213.403ZM37.1132 212.963V212.881C37.1126 212.891 37.1123 212.901 37.1121 212.91L37.1121 212.931C37.1122 212.942 37.1126 212.953 37.1132 212.963ZM166.875 216.386L166.876 216.392C166.876 216.396 166.876 216.399 166.875 216.403V216.386ZM166.165 214.576V214.606L166.143 214.562L166.165 214.576ZM165.194 212.895C165.196 212.908 165.196 212.92 165.194 212.932L165.16 212.881L165.194 212.895ZM160.942 208.963C160.951 208.975 160.958 208.988 160.964 209.002L160.901 208.966C160.916 208.962 160.931 208.961 160.947 208.963H160.942ZM37.6875 105C37.6875 104.448 38.1352 104 38.6875 104H66.9375C67.4898 104 67.9375 104.448 67.9375 105C67.9375 105.553 67.4898 106 66.9375 106H38.6875C38.1352 106 37.6875 105.553 37.6875 105ZM46.25 118C45.6977 118 45.25 118.448 45.25 119C45.25 119.553 45.6977 120 46.25 120H74.5C75.0523 120 75.5 119.553 75.5 119C75.5 118.448 75.0523 118 74.5 118H46.25ZM31.5 134C31.5 133.448 31.9477 133 32.5 133H60.75C61.3023 133 61.75 133.448 61.75 134C61.75 134.553 61.3023 135 60.75 135H32.5C31.9477 135 31.5 134.553 31.5 134Z" fill="#CACDD6"/>
<g opacity="0.5">
<circle cx="259.354" cy="193.414" r="10.5972" transform="rotate(-180 259.354 193.414)" stroke="#9A4C71" stroke-width="7"/>
<circle cx="54.3799" cy="207.261" r="15.4441" transform="rotate(-180 54.3799 207.261)" stroke="#9A4C71" stroke-width="10"/>
<circle cx="263.339" cy="67.6745" r="15.4441" transform="rotate(-180 263.339 67.6745)" stroke="#9A4C71" stroke-width="10"/>
<circle cx="42.7399" cy="64.3076" r="10.9367" transform="rotate(-180 42.7399 64.3076)" stroke="#9A4C71" stroke-width="7"/>
<circle cx="307.184" cy="187.896" r="4.01829" transform="rotate(-180 307.184 187.896)" stroke="#F5826E" stroke-width="3"/>
<circle cx="8.64108" cy="159.389" r="4.01829" transform="rotate(-180 8.64108 159.389)" stroke="#F5826E" stroke-width="3"/>
<circle cx="121.893" cy="284.395" r="3.77394" transform="rotate(-180 121.893 284.395)" stroke="#F5826E" stroke-width="3"/>
<circle cx="187.602" cy="19.4832" r="7.52475" transform="rotate(-180 187.602 19.4832)" stroke="#F2AAA0" stroke-width="5"/>
<circle cx="148.991" cy="237.73" r="7.52475" transform="rotate(-180 148.991 237.73)" stroke="#F2AAA0" stroke-width="5"/>
<circle cx="45.3764" cy="119.952" r="9.71138" transform="rotate(-180 45.3764 119.952)" fill="#E83939"/>
<circle cx="90.0957" cy="19.4832" r="19.4833" transform="rotate(-180 90.0957 19.4832)" fill="#FF7F56"/>
<circle r="4.3206" transform="matrix(-1 0 0 1 259.354 133.984)" fill="#E83939"/>
<circle r="9.3329" transform="matrix(-1 0 0 1 98.6715 238.421)" fill="#E83939"/>
<circle r="4.3206" transform="matrix(-1 0 0 1 250.713 16.5462)" fill="#E83939"/>
<circle r="4.3206" transform="matrix(-1 0 0 1 4.32055 54.1915)" fill="#E83939"/>
<circle r="4.3206" transform="matrix(-1 0 0 1 138.967 20.8665)" fill="#E83939"/>
<circle cx="205.772" cy="250.926" r="28.1945" transform="rotate(-180 205.772 250.926)" fill="#FF7F56"/>
<circle cx="301.666" cy="123.633" r="17.3344" transform="rotate(-180 301.666 123.633)" fill="#FF7F56"/>
</g>
<path fill-rule="evenodd" clip-rule="evenodd" d="M152.306 229.182L151.79 229.176C152.229 229.306 152.678 229.402 153.131 229.464V224.04C152.941 223.974 152.756 223.894 152.577 223.8L151.216 225.637C151.27 225.651 151.325 225.665 151.38 225.679C151.831 226.355 152.14 227.116 152.287 227.915L152.289 227.916C152.368 228.317 152.376 228.73 152.314 229.134L152.31 229.16L152.306 229.182ZM155.78 229.456V224.038C155.854 224.012 155.928 223.984 156.001 223.954C156.491 223.751 156.936 223.453 157.311 223.078C157.686 222.702 157.983 222.257 158.186 221.767C158.215 221.695 158.243 221.622 158.269 221.548H163.642C163.541 222.272 163.355 222.982 163.086 223.663C162.933 224.048 162.755 224.422 162.553 224.784C161.617 226.451 160.194 227.792 158.475 228.629C158.103 228.809 157.719 228.964 157.325 229.092C156.821 229.258 156.304 229.379 155.78 229.456ZM163.633 218.899H158.269C158.244 218.827 158.216 218.755 158.187 218.684C158.169 218.64 158.15 218.597 158.131 218.554L161.841 214.642C162.315 215.266 162.712 215.952 163.018 216.684C163.179 217.067 163.312 217.46 163.419 217.861C163.51 218.203 163.581 218.549 163.633 218.899ZM153.131 214.717L151.346 211.489C151.925 211.284 152.523 211.138 153.131 211.051V214.717ZM150.723 221.771C150.937 222.288 151.256 222.753 151.656 223.137L150.043 225.313C148.62 224.896 147.222 224.401 145.857 223.831C145.805 223.707 145.755 223.581 145.708 223.455C145.48 222.838 145.32 222.198 145.229 221.548H150.638C150.656 221.602 150.676 221.656 150.697 221.709L150.713 221.747L150.723 221.771ZM155.78 216.315V211.057C156.431 211.151 157.072 211.315 157.689 211.547C158.077 211.692 158.455 211.864 158.819 212.061C159.031 212.174 159.237 212.296 159.438 212.424L155.78 216.315ZM147.509 231.97C147.531 231.946 147.552 231.921 147.572 231.895C147.602 231.922 147.634 231.946 147.671 231.967C147.904 232.096 148.18 232.026 148.429 231.945L148.367 232.28C148.049 232.22 147.723 232.158 147.388 232.093C147.407 232.076 147.425 232.058 147.443 232.04C147.466 232.017 147.488 231.994 147.509 231.97ZM148.815 231.986L148.489 231.926L148.491 231.925L148.614 231.886L148.748 231.954L148.815 231.986ZM148.192 233.216L148.261 232.848C147.841 232.769 147.406 232.685 146.956 232.598L146.885 232.961C146.602 232.908 146.315 232.851 146.022 232.793L146.004 232.789C145.864 232.762 145.724 232.734 145.582 232.706L145.613 232.551H132.267C131.808 232.55 131.367 232.367 131.042 232.042C130.716 231.717 130.533 231.277 130.531 230.817C130.532 230.402 130.682 230.003 130.949 229.69L129.99 229.483L130.066 229.123L129.324 228.965L128.763 228.845L128.684 229.211L127.387 228.932L127.465 228.568L127.246 228.521C121.373 246.228 104.678 259 84.9999 259C60.4233 259 40.5 239.077 40.5 214.5C40.5 189.924 60.4233 170 84.9999 170C91.9675 170 98.5611 171.602 104.433 174.457L105.196 173.058C98.024 169.385 89.9953 167.711 81.953 168.212C73.9108 168.712 66.1517 171.369 59.4905 175.903C56.4899 177.96 53.6057 180.236 51.3304 183.054C37.6444 199.993 37.1472 211.802 37.1302 212.891C37.1334 204.734 39.2347 196.714 43.2322 189.604C47.2297 182.493 52.9889 176.531 59.9563 172.289C66.9238 168.047 74.8652 165.669 83.0173 165.382C91.1694 165.096 99.2581 166.911 106.506 170.654L115.323 154.477C115.388 154.254 115.497 154.047 115.644 153.868L111.256 145.824C108.931 147.193 105.785 147.239 103.685 145.552C98.5787 141.456 103.298 137.119 107.691 136.01C106.932 134.535 106.4 132.964 106.196 131.277C106.066 130.193 106.087 129.118 106.234 128.065C106.255 127.452 106.304 126.841 106.378 126.236C106.449 125.655 106.542 125.115 106.661 124.611C106.686 123.574 106.737 122.539 106.814 121.506C106.827 121.32 106.842 121.136 106.858 120.952L106.858 120.948C106.865 120.859 106.873 120.77 106.88 120.681C107.306 115.813 108.315 111.443 109.761 107.181C109.605 107.244 109.451 107.305 109.299 107.367L105.55 114.765C105.504 114.855 105.456 114.94 105.405 115.025C104.849 115.937 103.977 116.613 102.956 116.926C102.062 117.2 101.108 117.179 100.232 116.872C100.107 116.828 99.9835 116.778 99.862 116.723L99.8547 116.72C99.5647 116.606 90.6434 113.102 83.7358 109.972C76.7133 106.789 72.558 104.043 72.558 104.043C72.0612 103.821 71.6147 103.5 71.2457 103.1C70.8766 102.7 70.5928 102.229 70.4113 101.716C70.2298 101.203 70.1545 100.658 70.1899 100.115C70.2254 99.5719 70.3708 99.0416 70.6174 98.5564C70.6174 98.5564 70.649 98.4691 70.7121 98.3017L70.7127 98.3001L70.7169 98.2872C70.9842 97.5746 71.7759 95.484 73.048 92.4072C74.7921 88.1549 77.4483 82.0202 80.8661 75.0366C83.3598 69.9426 85.982 65.21 88.2719 61.3021C89.1815 59.7448 90.0402 58.3185 90.8189 57.0547C90.8815 56.9523 90.9436 56.8512 91.0052 56.7513L89.2858 55.837C88.9923 55.6963 88.8007 55.2913 88.7303 54.8668C88.66 54.4423 88.7303 54.071 88.9729 53.8673C89.299 53.5751 89.6286 53.2463 89.9831 52.8927C91.2498 51.6289 92.8354 50.047 95.7237 48.6787C99.1367 47.0631 104.034 48.1935 114.904 52.8824C120.175 55.1626 126.749 58.7478 129.116 61.5787C130.863 63.6758 130.193 65.9617 129.025 68.4383C129.86 68.1566 130.749 67.8964 131.677 67.6785C132.773 66.3343 133.938 64.9507 135.195 63.4974C135.712 62.9007 137.308 61.6005 138.645 60.5477C138.676 60.5229 138.707 60.4978 138.737 60.4727C138.854 60.3782 138.97 60.2843 139.081 60.2057C139.854 59.6019 140.474 59.1285 140.635 59.0065L143.678 52.1428C143.606 52.1692 143.53 52.191 143.452 52.2081C143.123 52.2606 142.786 52.2394 142.466 52.1458C142.146 52.0523 141.851 51.8888 141.602 51.6671C141.106 51.22 140.68 50.7017 140.338 50.1292C138.409 47.2402 136.721 44.0261 135.867 40.6252C135.101 37.5688 135.198 33.6246 137.041 30.9344C138.739 28.4481 142.271 27.2958 145.148 27.8271C146.035 27.99 146.729 28.1868 147.332 28.3576C149.035 28.8405 150.005 29.1155 152.532 27.8271C156.784 25.6516 166.648 26.2897 167.5 33.0005C167.861 35.88 166.646 36.5929 164.818 37.6659C164.208 38.0239 163.53 38.422 162.819 38.9539C162.759 38.9986 162.704 39.0425 162.653 39.0861C162.866 39.9439 162.68 40.8168 162.496 41.6831C162.267 42.7643 162.039 43.8351 162.591 44.8532L162.648 44.9573C163.182 45.9413 163.716 46.9244 164.171 47.9436C164.45 48.5743 164.699 49.2171 164.915 49.8696C164.956 49.9671 164.976 50.0721 164.974 50.1777C164.971 50.2302 164.954 50.2809 164.924 50.3239C164.894 50.3669 164.852 50.4004 164.804 50.4203C164.61 50.4833 162.519 50.2675 162.519 50.1923C162.592 50.6724 162.655 51.1409 162.706 51.6135C162.835 51.8777 162.97 52.1403 163.104 52.4011C164.048 54.2441 164.95 56.0026 163.54 57.6368C162.071 59.3387 162.591 59.8826 162.887 60.1919C163.002 60.3121 163.083 60.3969 163 60.5004C161.823 61.9777 159.348 62.4443 157.5 62.0004C156.463 61.7512 155.746 60.9053 155.082 59.9761L153.964 67.1542C153.973 67.1625 153.982 67.1708 153.991 67.1792C153.999 67.1866 154.006 67.194 154.014 67.2015C154.035 67.2251 154.053 67.2502 154.07 67.2767C154.191 67.5132 154.249 67.7775 154.237 68.0432C154.261 68.6011 154.279 69.1615 154.291 69.7242L154.305 70.5926C154.317 71.8176 154.304 73.051 154.264 74.2892C156.173 78.5664 157.55 83.1253 158.913 87.6365C159.586 89.8626 160.255 92.0778 160.983 94.2411C161.49 95.7523 162.029 97.2563 162.611 98.7408C163.684 99.2531 164.727 99.8282 165.733 100.463C166.72 101.074 167.681 101.734 168.622 102.404C171.237 104.257 173.888 105.955 176.627 107.653L186.456 113.773L187.014 114.12L188.229 114.884C188.173 115.054 188.122 115.224 188.074 115.396L188.073 115.399C188.319 115.424 188.564 115.463 188.806 115.515C190.779 115.942 192.797 115.815 194.788 115.541C195.525 115.438 196.258 115.316 196.983 115.195L197.265 115.148C197.629 115.06 198.009 115.06 198.373 115.148C198.708 115.286 199.006 115.497 199.247 115.767C199.601 116.108 199.95 116.457 200.3 116.808C201.149 117.656 202 118.508 202.929 119.243C202.987 119.289 203.046 119.334 203.105 119.379C203.451 119.645 203.806 119.917 203.967 120.315C204.156 120.781 203.87 121.465 203.368 121.433C203.579 121.549 203.741 121.737 203.826 121.962C203.91 122.187 203.911 122.435 203.829 122.661C203.775 122.769 203.698 122.864 203.604 122.941C203.51 123.017 203.401 123.073 203.284 123.103C203.167 123.134 203.045 123.14 202.926 123.12C202.806 123.101 202.692 123.056 202.592 122.988C202.684 123.158 202.717 123.354 202.685 123.545C202.653 123.736 202.559 123.91 202.416 124.041C202.274 124.172 202.092 124.252 201.899 124.268C201.811 124.275 201.723 124.269 201.637 124.249L201.615 124.306L201.597 124.351L201.581 124.391C201.569 124.419 201.557 124.448 201.545 124.476C201.676 124.78 201.73 125.114 201.699 125.448C201.699 125.509 201.687 125.57 201.663 125.627C201.64 125.684 201.605 125.735 201.561 125.778C201.332 125.961 201.065 125.985 200.796 125.917C200.316 126.7 199.728 127.471 199.072 128.209L211.404 167.813C211.732 168.864 212.047 169.914 212.357 170.967C221.32 166.349 231.517 164.697 241.479 166.248C251.441 167.799 260.654 172.473 267.788 179.598L267.795 179.61C272.212 184.009 275.719 189.237 278.113 194.994C280.507 200.75 281.742 206.923 281.748 213.158C281.731 212.056 281.219 200.25 267.514 183.321C265.233 180.505 262.349 178.225 259.346 176.18C252.602 171.6 244.737 168.944 236.597 168.497C228.457 168.05 220.349 169.829 213.143 173.642C213.271 174.089 213.398 174.536 213.524 174.981C219.653 171.799 226.616 170 234 170C258.577 170 278.5 189.924 278.5 214.5C278.5 239.077 258.577 259 234 259C209.423 259 189.5 239.077 189.5 214.5C189.5 198.551 197.89 184.562 210.498 176.706C210.375 176.271 210.252 175.835 210.128 175.399C203.422 179.664 197.969 185.633 194.327 192.696L191.887 191.435C195.838 183.798 201.778 177.369 209.08 172.827L209.345 172.665C208.969 171.373 208.583 170.089 208.185 168.813L207.477 166.542L174.9 200.879C177.916 202.565 181.144 203.855 184.505 204.713C184.958 205.391 185.268 206.155 185.414 206.957L185.415 206.962C185.495 207.377 185.5 207.802 185.43 208.218L168.111 208.034L167.989 208.163H176.508C176.968 208.164 177.409 208.346 177.734 208.671C178.06 208.996 178.243 209.437 178.245 209.897C178.244 210.357 178.061 210.798 177.736 211.124C177.411 211.449 176.97 211.633 176.51 211.634H165.679C165.77 211.754 165.859 211.877 165.946 212.003L166.269 211.782C166.536 212.171 166.779 212.576 166.996 212.995L166.651 213.172C166.854 213.56 167.042 213.969 167.213 214.395L167.571 214.254C167.739 214.676 167.892 215.115 168.023 215.561L167.655 215.67C167.68 215.755 167.705 215.841 167.729 215.928C167.826 216.273 167.91 216.621 167.983 216.971L168.352 216.895C168.445 217.344 168.52 217.803 168.573 218.259L168.198 218.303C168.251 218.753 168.284 219.204 168.297 219.656L168.677 219.644V220.129C168.687 220.427 168.68 220.731 168.663 221.029H168.653L168.278 221.007C168.253 221.433 168.211 221.859 168.151 222.283L168.141 222.346L168.525 222.407C168.448 222.864 168.349 223.317 168.227 223.765L167.866 223.669C167.748 224.119 167.61 224.549 167.455 224.96L167.802 225.092C167.636 225.527 167.447 225.952 167.234 226.366L166.908 226.199C166.697 226.613 166.469 227.005 166.226 227.375L166.528 227.574C166.276 227.962 166.003 228.336 165.711 228.694V228.699L165.426 228.467C165.134 228.825 164.83 229.159 164.52 229.469L164.777 229.725C164.457 230.048 164.11 230.361 163.751 230.659L163.52 230.379C163.158 230.678 162.797 230.949 162.443 231.193L162.647 231.491C162.271 231.748 161.878 231.993 161.475 232.221L161.308 231.927C161.291 231.939 161.274 231.951 161.255 231.962C161.199 231.994 161.141 232.014 161.082 232.025C160.752 232.204 160.42 232.369 160.089 232.522L160.25 232.871C159.826 233.048 159.406 233.226 158.979 233.386L158.849 233.035C158.411 233.197 157.981 233.335 157.565 233.451L157.665 233.81C157.201 233.939 156.743 234.041 156.306 234.128V234.116L156.244 233.75C155.744 233.835 155.284 233.88 154.88 233.885L154.885 234.259H154.797C154.618 234.259 154.438 234.25 154.259 234.232C154.036 234.208 153.774 234.174 153.466 234.133L153.518 233.763C153.136 233.709 152.692 233.64 152.193 233.557L152.132 233.924C151.736 233.859 151.292 233.783 150.814 233.699L150.879 233.331L150.614 233.284C150.485 233.261 150.353 233.237 150.219 233.213C150.008 233.174 149.791 233.135 149.568 233.094L149.502 233.458L148.192 233.216ZM168.227 223.765L168.238 223.768H168.226L168.227 223.765ZM127.008 72.4098L126.334 73.7437L125.819 74.7609L125.908 74.8006L125.246 76.2835C126.288 74.7425 127.362 73.2385 128.502 71.723C127.966 71.9516 127.465 72.1842 127.008 72.4098ZM125.032 76.6001L124.914 76.5471L124.417 77.5271C124.621 77.2162 124.826 76.9074 125.032 76.6001ZM144.166 123.208L143.56 123.175C145.001 123.652 146.443 124.14 147.894 124.631C148.404 124.804 148.915 124.977 149.427 125.15C153.388 126.507 157.215 128.227 160.859 130.287C163.387 131.699 171.356 137.164 171.739 137.565C172.614 138.198 175.47 140.269 176.122 141.574C176.581 142.518 177.1 145.079 177.066 150.212C177.045 157.219 176.606 167.664 176.149 176.726L203.331 153.196L196.348 130.8C196.301 130.838 196.253 130.877 196.205 130.915C196.279 131.301 196.316 131.685 196.309 132.056C196.309 132.471 196.207 132.936 195.86 133.164C195.738 133.233 195.596 133.259 195.456 133.239C195.317 133.22 195.188 133.155 195.089 133.055C195.077 132.938 195.045 132.824 194.994 132.718C194.98 132.778 194.982 132.84 194.998 132.899C195.015 132.958 195.046 133.012 195.089 133.055C195.124 133.296 195.079 133.542 194.962 133.756C194.845 133.969 194.661 134.139 194.439 134.239C194.217 134.339 193.969 134.365 193.731 134.311C193.493 134.258 193.28 134.129 193.122 133.943C193.208 134.052 193.268 134.18 193.298 134.316C193.327 134.453 193.326 134.594 193.292 134.729C193.259 134.865 193.195 134.991 193.106 135.098C193.017 135.205 192.904 135.29 192.777 135.347C192.65 135.405 192.511 135.432 192.372 135.427C192.232 135.423 192.096 135.386 191.973 135.321C191.85 135.256 191.743 135.163 191.661 135.051C191.579 134.938 191.523 134.808 191.499 134.671C191.584 135.141 190.434 134.726 189.859 134.459C188.865 134.65 187.869 134.837 186.871 135.02C184.256 135.495 181.51 135.927 178.946 135.28C178.729 135.243 178.526 135.151 178.356 135.013C178.207 134.838 178.121 134.617 178.114 134.387L178.113 134.378C178.018 133.515 177.877 132.226 178.88 131.668C179.423 131.362 180.318 131.284 181.09 131.217C181.367 131.193 181.629 131.17 181.852 131.139C183.136 130.958 184.427 130.777 185.722 130.651L185.715 130.651C184.526 130.684 183.54 130.711 182.223 130.309C182.06 130.259 181.67 130.168 181.169 130.05C180.339 129.855 179.202 129.588 178.273 129.318L178.269 129.332C178.152 129.707 178.034 130.082 177.912 130.457L176.457 130.016L175.7 129.773L175.468 129.701L175.118 129.594L175.116 129.593C174.583 129.43 174.05 129.267 173.517 129.089C171.089 128.308 168.673 127.471 166.322 126.474C164.151 125.555 151.649 118.61 148.066 115.396C147.913 115.258 147.761 115.119 147.613 114.976C147.24 114.784 146.893 114.547 146.579 114.268C146.467 114.168 146.357 114.064 146.25 113.956C145.671 116.472 145.144 118.816 144.767 120.567L144.736 120.713L144.69 120.929L144.649 121.118C144.616 121.277 144.584 121.43 144.554 121.577C144.403 122.304 144.294 122.857 144.233 123.212L144.166 123.208ZM179.693 124.007C179.661 124.15 179.63 124.294 179.597 124.436L179.785 124.463C182.194 124.783 184.642 124.634 186.994 124.024C187.154 123.983 187.314 123.939 187.474 123.895C188.391 123.645 189.321 123.391 190.252 123.527C190.862 123.617 191.333 123.907 191.81 124.201C192.132 124.399 192.457 124.599 192.828 124.74C193.002 124.804 193.183 124.819 193.367 124.808C192.28 124.231 191.238 123.551 190.415 122.641C189.91 122.086 189.202 121.349 188.547 120.97C188.173 120.748 187.737 120.635 187.298 120.521C187.171 120.488 187.044 120.455 186.918 120.419C186.759 120.95 186.558 121.468 186.318 121.967L185.124 121.606L184.377 121.375C183.559 121.126 182.74 120.871 181.922 120.609C179.494 119.83 177.078 118.991 174.727 117.996C172.556 117.074 160.054 110.13 156.471 106.918C156.398 106.852 156.326 106.786 156.253 106.718C156.174 106.645 156.095 106.571 156.018 106.496C155.644 106.306 155.296 106.068 154.984 105.788C153.986 104.901 153.191 103.664 152.472 102.403C152.507 102.508 152.543 102.614 152.578 102.719C153.085 104.233 153.624 105.734 154.206 107.219C155.279 107.732 156.322 108.308 157.328 108.943C158.315 109.555 159.273 110.214 160.217 110.884C162.832 112.74 165.483 114.438 168.222 116.136L177.876 122.147L178.393 122.467L179.836 123.374C179.786 123.581 179.739 123.794 179.693 124.007ZM195.51 124.894C195.605 124.993 195.68 125.111 195.728 125.241C195.818 125.484 195.813 125.751 195.712 125.989C195.52 126.409 195.078 126.626 194.652 126.835C194.601 126.86 194.55 126.885 194.5 126.911C194.432 126.947 194.359 126.993 194.344 127.068C194.344 127.105 194.352 127.141 194.367 127.175C194.382 127.208 194.404 127.238 194.432 127.262C194.524 127.368 194.614 127.478 194.702 127.593C195.555 126.748 196.338 125.861 196.923 125.104L196.925 125.101C197.132 124.833 197.796 123.975 198.242 123.134C198.105 122.974 197.959 122.837 197.801 122.734C197.399 122.512 196.956 122.377 196.498 122.338L193.316 121.853C193.937 122.348 194.44 123.059 194.915 123.73C194.996 123.845 195.077 123.959 195.157 124.07C195.331 124.308 195.502 124.616 195.51 124.894ZM175.108 195.2H170.733L170.718 198.123C170.718 198.123 170.716 198.135 170.709 198.158C170.705 198.172 170.699 198.19 170.69 198.212L170.744 198.205C171.152 198.505 171.566 198.797 171.984 199.08L206.259 162.625L204.382 156.597L175.902 181.466C175.481 189.314 175.108 195.2 175.108 195.2ZM162.817 199.389L162.649 195.2H161.364C161.364 195.2 161.344 194.849 161.309 194.209L148.146 205.703L148.563 206.457L148.71 206.455L148.704 206.055H149.468H150.045L150.041 206.453C150.48 206.459 150.918 206.471 151.357 206.489L151.372 206.084C151.826 206.101 152.28 206.125 152.716 206.154L152.688 206.565C153.132 206.596 153.576 206.635 154.019 206.679L154.06 206.273C154.514 206.319 154.965 206.373 155.399 206.433L155.365 206.677C155.385 206.675 155.405 206.675 155.426 206.676C155.602 206.683 155.743 206.781 155.864 206.906C156.141 206.949 156.414 206.995 156.681 207.044L156.753 206.659C157.206 206.744 157.655 206.836 158.082 206.935L157.991 207.315C158.326 207.394 158.652 207.477 158.968 207.566C159.083 207.533 159.201 207.521 159.317 207.55L159.397 207.285C159.845 207.418 160.282 207.564 160.697 207.719L160.56 208.082C160.903 208.211 161.233 208.346 161.55 208.489C161.67 208.403 161.801 208.332 161.938 208.279L161.956 208.243L161.992 208.26C162.172 208.197 162.363 208.164 162.558 208.163H163.445L163.611 207.986L162.684 207.976C162.684 207.976 162.582 207.532 162.475 206.8C162.31 205.688 162.229 204.566 162.232 203.442C162.232 201.307 162.64 199.899 162.817 199.389ZM150.516 198.915L161.073 189.777C160.609 180.884 159.757 163.307 159.759 154.468C159.76 152.218 158.036 150.173 155.812 149.837C154.042 149.571 151.85 149.221 149.443 148.83C154.544 156.341 158.556 162.573 158.652 162.906C159.823 166.738 158.56 171.494 157.855 174.149C157.732 174.612 157.626 175.011 157.553 175.331C155.731 183.336 153.313 191.201 150.516 198.915ZM164.974 211.634H164.696L164.524 211.815C164.52 211.839 164.517 211.864 164.516 211.889C164.514 211.909 164.514 211.929 164.513 211.949C164.513 211.976 164.513 212.004 164.513 212.029L164.658 212.211C164.745 212.228 164.835 212.248 164.901 212.248L164.916 212.25C165.08 212.273 165.261 212.299 165.412 212.368L165.486 212.317C165.323 212.078 165.153 211.85 164.974 211.634ZM129.454 228.402L128.883 228.28L128.961 227.916L127.663 227.639L127.585 228.003L127.425 227.969C128.281 225.272 128.886 222.464 129.214 219.572L130.078 219.643L129.958 220.118L129.769 220.141C129.769 220.141 129.107 221.679 129.107 224.406C129.104 225.53 129.185 226.653 129.349 227.765C129.386 228.012 129.422 228.227 129.454 228.402ZM165.682 213.39L165.689 213.361C165.715 213.408 165.741 213.455 165.766 213.503L165.797 213.561L165.818 213.599L166.148 213.429C166.26 213.644 166.367 213.865 166.468 214.09C166.327 213.997 166.149 213.944 165.983 213.895L165.973 213.892C165.91 213.875 165.827 213.851 165.755 213.825C165.726 213.773 165.697 213.724 165.667 213.673L165.633 213.616C165.633 213.541 165.667 213.453 165.682 213.39ZM166.519 215.28L166.532 215.248C166.575 215.372 166.617 215.498 166.658 215.624L166.589 215.59L166.494 215.348C166.502 215.326 166.51 215.303 166.519 215.28ZM167.117 215.859C167.106 215.852 167.095 215.845 167.083 215.838L167.109 215.83L167.117 215.859ZM167.347 216.738C167.357 216.78 167.366 216.822 167.376 216.864C167.392 216.938 167.408 217.011 167.423 217.085L167.115 217.148C167.135 217.112 167.156 217.077 167.175 217.046L167.198 217.007L167.208 216.99L167.209 216.989L167.243 216.93C167.262 216.897 167.281 216.864 167.299 216.831C167.316 216.8 167.332 216.769 167.347 216.738ZM167.465 221.013C167.483 220.995 167.502 220.979 167.52 220.962L167.716 220.974C167.702 221.203 167.683 221.431 167.658 221.657C167.619 221.606 167.579 221.556 167.539 221.508L167.53 221.497L167.407 221.335C167.407 221.298 167.409 221.26 167.412 221.223L167.415 221.19L167.419 221.144L167.42 221.143L167.42 221.142L167.42 221.141C167.423 221.11 167.426 221.079 167.428 221.048C167.44 221.036 167.453 221.025 167.465 221.013ZM167.292 223.596C167.274 223.564 167.256 223.533 167.237 223.502L167.312 223.522L167.292 223.596ZM166.946 224.676C166.936 224.703 166.926 224.729 166.916 224.756L166.841 224.727C166.875 224.711 166.911 224.694 166.946 224.676ZM166.079 226.51C165.97 226.697 165.857 226.879 165.741 227.056L165.682 227.018C165.678 226.994 165.671 226.968 165.663 226.942L165.662 226.939L165.662 226.938C165.659 226.927 165.656 226.916 165.653 226.905C165.649 226.891 165.646 226.877 165.643 226.863C165.665 226.827 165.686 226.792 165.708 226.755C165.739 226.702 165.769 226.648 165.798 226.594L165.975 226.54L165.981 226.539L166.033 226.524L166.079 226.51ZM132.651 229.08H132.774L132.797 228.974L132.114 228.966L132.651 229.08ZM142.753 229.08H134.13L134.145 229.01L134.038 228.987L142.753 229.08ZM121.527 226.701C122.342 224.259 122.919 221.708 123.231 219.076L93.9837 216.652C93.8857 216.993 93.7691 217.33 93.6344 217.659L106.902 223.283L106.935 223.132L108.231 223.418L108.153 223.786L109.455 224.072L109.538 223.697L110.831 223.981L110.75 224.355L112.045 224.639L112.126 224.265L113.422 224.549L113.341 224.922L114.624 225.202L114.705 224.828L115.998 225.109L115.916 225.484L117.211 225.766L117.291 225.4L118.589 225.681L118.509 226.048L119.809 226.329L119.889 225.963L121.184 226.244L121.105 226.61L121.527 226.701ZM105.446 223.776L106.73 224.059L106.649 224.425L107.957 224.706L107.987 224.565L120.34 229.801C116.313 239.088 108.732 246.477 99.3134 250.252L88.493 222.992L88.5474 222.967C89.4375 222.56 90.2623 222.023 90.9949 221.374C91.1201 221.266 91.2395 221.155 91.3554 221.041L92.3908 221.271L92.4735 220.898L93.788 221.191L93.7079 221.553L95.0033 221.842L95.084 221.48L96.3789 221.768L96.2986 222.128L97.594 222.416L97.6738 222.056L98.9692 222.343L98.8893 222.705L100.185 222.991L100.264 222.631L101.56 222.917L101.48 223.278L102.775 223.564L102.855 223.204L104.15 223.49L104.071 223.85L105.366 224.136L105.446 223.776ZM92.677 219.979L92.5961 220.344L93.9108 220.637L93.9942 220.26L95.2919 220.549L95.2079 220.925L96.5029 221.213L96.5873 220.835L97.8802 221.124L97.7969 221.5L99.0922 221.787L99.1755 221.41L100.471 221.698L100.388 222.074L101.683 222.36L101.766 221.985L102.045 222.046L93.3227 218.349C93.2921 218.41 93.2609 218.47 93.229 218.531C92.9756 219.013 92.6832 219.473 92.3551 219.907L92.677 219.979ZM103.984 222.868L103.02 222.459L102.978 222.646L103.984 222.868ZM110.89 224.973L111.923 225.2L111.881 225.393L110.89 224.973ZM120.634 229.103L112.723 225.75L113.14 225.842L113.218 225.483L114.502 225.764L114.424 226.123L115.714 226.412L115.794 226.046L117.089 226.328L117.009 226.693L118.307 226.974L118.387 226.61L119.687 226.892L119.607 227.258L120.903 227.537L120.982 227.173L121.339 227.25C121.119 227.875 120.884 228.493 120.634 229.103ZM88.7983 219.103L88.7146 219.477L87.415 219.187L87.5005 218.817L86.7708 218.653L86.6458 218.338C86.8218 218.25 86.9931 218.151 87.1585 218.041C87.7978 217.617 88.3262 217.051 88.7055 216.392L90.7013 217.238C90.4212 217.77 90.0733 218.265 89.6656 218.71C89.5131 218.877 89.3525 219.037 89.1845 219.189L88.7983 219.103ZM87.2876 219.737L87.2558 219.875L87.4452 220.352C87.4674 220.342 87.4895 220.331 87.5116 220.321C87.7465 220.207 87.9746 220.08 88.195 219.941L87.2876 219.737ZM85.9117 219.816L85.9943 219.447L85.164 219.26L84.6756 219.149L84.5969 219.52L84.0875 219.406C83.7951 219.334 83.5068 219.245 83.2239 219.142L83.3536 218.784C83.2561 218.748 83.1526 218.708 83.0444 218.664L83.0322 218.661L82.1847 220.66C82.7627 220.854 83.3637 220.972 83.9725 221.01C84.1253 221.024 84.2708 221.024 84.4334 221.024C84.5959 221.024 84.7584 221.019 84.9185 221.007C85.5019 220.969 86.0781 220.858 86.6335 220.675L86.6682 220.663C86.6935 220.655 86.7188 220.646 86.7441 220.637L86.4679 219.942L85.9117 219.816ZM86.0464 218.88L85.9454 218.625C85.7911 218.675 85.6345 218.717 85.476 218.752L86.0464 218.88ZM80.0696 216.475C80.3236 216.844 80.6306 217.165 80.9613 217.444L80.7157 217.737C81.093 218.046 81.4992 218.318 81.9286 218.55L82.0834 218.269C82.1629 218.312 82.2435 218.352 82.3252 218.391L81.481 220.383C81.4349 220.362 81.3892 220.34 81.3436 220.318L81.3002 220.297L81.2684 220.281L81.2363 220.265C80.735 220.01 80.2652 219.698 79.8366 219.333C79.5967 219.128 79.3699 218.908 79.1574 218.674C78.7672 218.238 78.4316 217.757 78.158 217.24L78.1552 217.235L79.7066 216.619L80.0696 216.475ZM77.8371 216.547L79.3395 215.95C79.2328 215.706 79.1493 215.452 79.0905 215.19L79.4687 215.106C79.3859 214.727 79.3567 214.317 79.3962 213.871C79.4013 213.813 79.4072 213.757 79.4139 213.7L79.0274 213.655C79.0771 213.231 79.1775 212.816 79.3264 212.417L77.6929 211.724L77.6898 211.734C77.5102 212.284 77.3978 212.854 77.3551 213.432C77.3381 213.599 77.3381 213.791 77.3381 213.939C77.3381 214.013 77.3418 214.087 77.3454 214.16C77.3474 214.2 77.3494 214.24 77.3508 214.28C77.3519 214.313 77.3527 214.345 77.3527 214.378C77.3944 215.061 77.5357 215.734 77.7723 216.377L77.7843 216.409L77.8057 216.466L77.8178 216.498L77.8371 216.547ZM89.1683 209.538L89.0936 209.675L89.1088 209.934L88.9477 209.943L88.4052 210.938C88.2757 210.793 88.1384 210.657 87.9941 210.529C88.4315 210.987 88.7765 211.525 89.0109 212.112L91.0205 211.314C91.0066 211.279 90.9924 211.244 90.978 211.21C90.7199 210.592 90.376 210.014 89.9567 209.493L89.1683 209.538ZM89.4952 208.974L89.4757 208.975L89.4831 208.961L89.4952 208.974ZM94.426 209.643L94.4029 209.237L95.7273 209.162L95.7431 209.439L93.6614 210.266C93.6476 210.231 93.6337 210.196 93.6196 210.162C93.5557 210.006 93.4879 209.852 93.4163 209.7L94.426 209.643ZM96.9996 208.17L97.0209 208.544L98.1572 208.481L98.3419 208.408L98.3241 208.095L99.2594 208.044L120.513 199.607C117.291 191.932 111.653 185.522 104.551 181.327L90.8885 206.384C90.9439 206.431 90.9988 206.48 91.0532 206.528L91.0852 206.557L91.1086 206.579C91.129 206.597 91.1493 206.616 91.1696 206.635C91.4 206.848 91.6232 207.067 91.8318 207.309C92.2397 207.765 92.6038 208.256 92.9201 208.776L93.0475 208.769L93.0263 208.396L94.3508 208.318L94.3721 208.694L95.6964 208.619L95.6752 208.245L96.9996 208.17ZM93.9149 210.979L98.3872 209.204L98.3993 209.417L99.7213 209.344L99.6991 208.94L101.024 208.867L101.046 209.271L102.37 209.199L102.348 208.795L103.147 208.751L103.672 208.723L103.695 209.128L105.019 209.058L104.997 208.652C105.44 208.628 105.881 208.605 106.32 208.582L106.341 208.988L107.673 208.9L107.65 208.512C108.092 208.488 108.532 208.465 108.969 208.443L108.99 208.847L110.314 208.779L110.293 208.374C110.737 208.351 111.178 208.329 111.616 208.307L111.636 208.711L112.961 208.646L112.941 208.24C113.385 208.217 113.827 208.195 114.265 208.174L114.285 208.58L115.607 208.515L115.588 208.108C116.033 208.087 116.474 208.065 116.913 208.044L116.932 208.449L118.256 208.386L118.237 207.98L118.776 207.955L119.565 207.918L119.583 208.323L120.91 208.262L120.891 207.856L121.5 207.828L122.21 207.796L122.227 208.19L122.979 208.155C123.322 210.219 123.5 212.339 123.5 214.5C123.5 214.941 123.492 215.38 123.478 215.818L94.3418 213.349C94.2975 212.571 94.1618 211.799 93.9373 211.052C93.93 211.028 93.9225 211.003 93.9149 210.979ZM103.643 208.181L103.144 208.208L102.318 208.252L102.297 207.877L101.64 207.913L120.799 200.308C121.63 202.401 122.282 204.585 122.738 206.84L122.169 206.865L122.186 207.255C121.75 207.274 121.31 207.295 120.867 207.315L120.849 206.938L119.523 207.001L119.54 207.377L118.826 207.41L118.211 207.439L118.193 207.064L116.869 207.127L116.887 207.503L116.347 207.529L115.562 207.567L115.544 207.19L114.22 207.256L114.239 207.632L113.449 207.671L112.914 207.698L112.895 207.324L111.569 207.389L111.588 207.765C111.15 207.787 110.708 207.81 110.264 207.833L110.244 207.457L108.92 207.525L108.94 207.901C108.502 207.924 108.061 207.947 107.618 207.97L107.595 207.595L106.271 207.663L106.291 208.04L105.782 208.067L104.967 208.11L104.946 207.734L103.622 207.806L103.643 208.181ZM100.994 208.325L100.985 208.173L100.54 208.349L100.994 208.325ZM128.953 207.506C129.313 209.785 129.5 212.121 129.5 214.5C129.5 215.111 129.487 215.72 129.463 216.325L130.888 216.446L131.835 212.707L130.584 212.321C130.979 210.638 131.388 209.001 131.805 207.395L131.481 207.407L131.496 207.799L130.169 207.852L130.154 207.458C129.758 207.474 129.358 207.49 128.953 207.506ZM131.947 206.848L131.46 206.867L131.445 206.475L130.118 206.528L130.133 206.918C129.715 206.934 129.293 206.951 128.865 206.968C126.616 193.778 118.562 182.566 107.425 176.056L108.158 174.712C115.111 178.985 120.765 185.075 124.512 192.325L126.952 191.059C122.988 183.429 117.038 177.01 109.73 172.48L109.453 172.313L117.567 157.426L136.113 191.471C136.029 191.782 135.951 192.072 135.882 192.34C135.232 194.834 134.559 197.267 133.885 199.706L133.885 199.708C133.234 202.063 132.582 204.424 131.947 206.848ZM152.709 207.247L152.684 207.279C152.668 207.299 152.652 207.319 152.636 207.337L152.652 207.105L152.811 207.116L152.779 207.157L152.765 207.176C152.753 207.191 152.739 207.208 152.725 207.226L152.709 207.247ZM149.468 207.379C149.335 207.379 149.204 207.379 149.074 207.38L149.272 207.738C149.332 207.669 149.404 207.613 149.493 207.578C149.762 207.472 150.055 207.615 150.298 207.741L150.302 207.743C150.355 207.769 150.426 207.805 150.492 207.833L150.735 207.755C150.773 207.695 150.812 207.622 150.841 207.571C150.954 207.365 151.082 207.136 151.286 207.028C150.869 207.011 150.452 207 150.035 206.994L150.031 207.379H149.468ZM167.596 218.866L167.568 218.9L167.533 218.943C167.494 218.989 167.445 219.05 167.402 219.108L167.424 219.382C167.472 219.43 167.53 219.484 167.574 219.523L167.591 219.539L167.593 219.54L167.625 219.57L167.667 219.608C167.688 219.628 167.71 219.649 167.732 219.671C167.722 219.369 167.702 219.067 167.674 218.766C167.659 218.787 167.643 218.807 167.627 218.828C167.617 218.84 167.607 218.853 167.596 218.866ZM164.802 228.201C164.778 228.205 164.753 228.209 164.729 228.214L164.53 228.456C164.535 228.483 164.538 228.511 164.54 228.537L164.54 228.551C164.541 228.56 164.541 228.568 164.541 228.576L164.542 228.6C164.663 228.467 164.783 228.329 164.901 228.188C164.871 228.191 164.838 228.195 164.802 228.201ZM150.559 232.674C150.522 232.662 150.485 232.65 150.447 232.638L150.446 232.638L150.419 232.629L150.369 232.653L150.66 232.706C150.626 232.695 150.592 232.685 150.559 232.674ZM141.319 220.903C141.204 220.796 141.079 220.68 140.994 220.548L139.416 220.417C140.037 220.823 140.669 221.211 141.311 221.581L141.335 221.552L141.357 221.526L141.378 221.5L141.471 221.386L141.464 221.321L141.464 221.32C141.458 221.257 141.452 221.195 141.448 221.133C141.445 221.094 141.444 221.056 141.444 221.017C141.408 220.98 141.369 220.946 141.337 220.92L141.319 220.903ZM150.63 218.118L145.498 217.683C145.643 217.175 145.832 216.678 146.063 216.199C146.565 215.168 147.252 214.238 148.089 213.454L150.63 218.118ZM141.488 216.224C141.546 216.026 141.701 215.905 141.875 215.811L138.88 214.885L138.207 217.066L141.742 217.365C141.758 217.294 141.774 217.223 141.791 217.153C141.781 217.135 141.771 217.116 141.761 217.099C141.743 217.068 141.726 217.039 141.711 217.014L141.705 217.004C141.561 216.767 141.404 216.508 141.488 216.224ZM113.83 143.688L113.778 143.73L113.761 143.744C113.91 143.866 114.037 144.013 114.13 144.182L119.142 153.242L121.014 156.643L137.545 186.535C138.956 181.874 140.863 175.994 142.553 171.389C143.348 169.222 142.652 166.768 140.796 165.396C139.037 164.095 137.285 162.782 135.542 161.458C128.951 156.446 122.54 151.219 116.311 145.776C115.513 145.077 114.706 144.361 113.913 143.623C113.885 143.644 113.857 143.666 113.83 143.688ZM91.4744 213.107C91.4319 212.743 91.3612 212.384 91.263 212.032L89.2394 212.835C89.4557 213.783 89.3872 214.775 89.0405 215.686L89.0319 215.709L89.3767 215.855C89.5604 215.33 89.6547 214.778 89.6544 214.22C89.6552 213.797 89.6005 213.377 89.4919 212.968V212.939L89.7854 212.963L91.4744 213.107ZM90.596 216.372L91.0715 216.411C91.0569 216.45 91.0418 216.488 91.0265 216.527L91.0174 216.55L90.596 216.372ZM101.554 179.731C100.996 179.465 100.43 179.212 99.857 178.972L92.5059 196.313L101.554 179.731ZM86.576 207.179L85.6859 208.811L85.0626 208.847L85.0742 209.043C84.8611 209.014 84.6463 209 84.4312 209.001C84.3263 209.001 84.2217 209.004 84.1175 209.01L84.1021 208.905C83.7308 208.966 83.3651 209.056 83.0082 209.174L82.2242 207.199C82.7863 207.015 83.3704 206.902 83.9628 206.863C84.0383 206.863 84.1144 206.859 84.1908 206.856H84.1926L84.1936 206.855L84.2488 206.853C84.2856 206.851 84.3224 206.85 84.3593 206.849L84.3824 206.849L84.4058 206.848L84.4261 206.848C84.5813 206.848 84.7511 206.848 84.9112 206.865C85.4773 206.902 86.0364 207.007 86.576 207.179ZM88.8252 203.058L87.9615 204.64C86.981 204.264 85.9462 204.048 84.8967 204H84.4115H83.9506C83.0529 204.041 82.165 204.205 81.3115 204.486C81.263 204.502 81.2147 204.518 81.1666 204.535L70.8979 178.665C75.2649 176.945 80.0221 176 84.9999 176C89.9985 176 94.7745 176.953 99.1565 178.687L88.8252 203.058ZM212.202 182.761C206.377 186.77 201.71 192.34 198.806 198.868L224.929 209.94C224.959 209.875 224.989 209.809 225.02 209.744C225.27 209.216 225.565 208.71 225.903 208.235C225.184 207.403 224.48 206.559 223.79 205.703C219.523 200.362 216.387 195.086 214.47 190.021C214.017 188.818 213.59 187.539 213.172 186.118C212.844 185.004 212.52 183.881 212.202 182.761ZM227.77 210.605C227.748 210.645 227.726 210.685 227.705 210.725C227.686 210.762 227.667 210.8 227.648 210.837C227.638 210.857 227.628 210.877 227.618 210.897C227.594 210.947 227.57 210.998 227.546 211.05L229.022 211.675C228.633 211.266 228.247 210.853 227.865 210.437L227.849 210.464L227.825 210.506L227.802 210.546C227.791 210.566 227.78 210.586 227.77 210.605ZM231.71 209.604C231.198 209.068 230.697 208.534 230.209 208.001C230.437 207.856 230.673 207.725 230.917 207.607L231.71 209.604ZM234.334 212.246C234.316 212.228 234.297 212.211 234.279 212.194C234.25 212.167 234.221 212.141 234.191 212.114C233.817 211.747 233.447 211.38 233.083 211.013L232.98 210.753C233.257 210.665 233.547 210.611 233.842 210.596H233.978C234.316 210.596 234.651 210.646 234.971 210.743L234.334 212.246ZM235.235 213.258C235.202 213.198 235.166 213.14 235.125 213.085C235.054 212.999 234.982 212.915 234.908 212.832L235.666 211.042C235.72 211.073 235.773 211.105 235.825 211.138C236.358 211.48 236.785 211.964 237.058 212.534L235.235 213.258ZM235.416 214.385C235.441 214.255 235.45 214.122 235.444 213.989L237.311 213.248C237.393 213.602 237.418 213.968 237.384 214.333C237.358 214.611 237.298 214.883 237.206 215.144L235.416 214.385ZM234.818 215.382C234.928 215.294 235.027 215.191 235.111 215.078L236.877 215.826C236.842 215.881 236.806 215.935 236.768 215.988C236.452 216.432 236.034 216.793 235.549 217.043L235.522 217.057L235.489 217.073L234.818 215.382ZM233.672 215.75C233.703 215.752 233.735 215.753 233.767 215.753C233.891 215.753 234.014 215.739 234.134 215.712L234.776 217.329C234.517 217.391 234.251 217.422 233.983 217.422C233.656 217.418 233.334 217.368 233.026 217.274L233.672 215.75ZM232.483 215.165C232.612 215.315 232.767 215.441 232.94 215.537L232.331 216.975C232.072 216.828 231.832 216.646 231.617 216.433C231.402 216.221 231.219 215.982 231.069 215.726L232.483 215.165ZM230.667 213.362C231.05 213.746 231.436 214.126 231.826 214.504L231.904 214.58L230.763 215.033C230.666 214.726 230.613 214.404 230.606 214.077C230.601 213.835 230.622 213.596 230.667 213.362ZM228.296 205.847C223.275 200.012 219.699 194.311 217.626 188.827C217.202 187.702 216.801 186.504 216.413 185.165C215.997 183.752 215.589 182.322 215.187 180.902C216.572 180.125 218.01 179.431 219.493 178.827L229.86 204.944C229.311 205.197 228.788 205.5 228.296 205.847ZM230.559 204.654L220.197 178.549C224.482 176.903 229.135 176 234 176C239.127 176 244.02 177.003 248.494 178.822L237.536 204.689C236.558 204.317 235.528 204.103 234.483 204.054H233.998H233.537C232.64 204.094 231.753 204.255 230.9 204.534C230.786 204.572 230.672 204.612 230.559 204.654ZM229.251 212.594L227.27 211.754L227.264 211.772C227.084 212.323 226.972 212.893 226.932 213.47C226.912 213.638 226.912 213.829 226.912 213.977C226.912 214.052 226.916 214.125 226.92 214.199C226.923 214.271 226.927 214.344 226.927 214.416C226.969 215.096 227.109 215.761 227.338 216.392L229.317 215.607L229.31 215.589L229.296 215.547C229.283 215.506 229.27 215.465 229.257 215.423C228.979 214.5 228.977 213.516 229.251 212.594ZM229.618 216.302L227.634 217.089C227.922 217.675 228.291 218.222 228.734 218.712C228.944 218.947 229.17 219.168 229.411 219.372C229.865 219.76 230.366 220.088 230.901 220.349L231.732 218.389C231.464 218.252 231.209 218.091 230.968 217.905C230.405 217.472 229.946 216.924 229.618 216.302ZM232.43 218.681L231.599 220.643L231.642 220.659L231.681 220.672C232.283 220.882 232.911 221.009 233.547 221.048C233.699 221.065 233.845 221.065 234.008 221.065C234.089 221.065 234.171 221.061 234.252 221.057C234.332 221.053 234.413 221.048 234.493 221.048C235.049 221.01 235.598 220.906 236.13 220.739L235.336 218.74C234.842 218.882 234.325 218.946 233.804 218.928C233.334 218.911 232.871 218.827 232.43 218.681ZM236.046 218.476L236.838 220.473C237.459 220.202 238.039 219.842 238.558 219.404C238.801 219.203 239.028 218.985 239.24 218.751C239.609 218.348 239.929 217.904 240.196 217.427L240.216 217.391L240.238 217.351C240.252 217.324 240.267 217.297 240.282 217.27L238.275 216.419C237.895 217.095 237.358 217.675 236.706 218.108C236.494 218.248 236.274 218.371 236.046 218.476ZM238.595 215.733L240.599 216.582L240.603 216.573C240.878 215.886 241.043 215.16 241.091 214.421C241.105 214.276 241.105 214.154 241.105 213.982C241.105 213.948 241.104 213.914 241.103 213.881C241.102 213.859 241.101 213.837 241.1 213.815C241.099 213.785 241.097 213.755 241.095 213.725C241.091 213.641 241.086 213.558 241.086 213.475C241.055 213.03 240.981 212.589 240.865 212.158C240.84 212.061 240.812 211.965 240.783 211.87L238.729 212.685C238.735 212.707 238.741 212.73 238.747 212.752V212.743C239.008 213.731 238.955 214.776 238.595 215.733ZM238.471 211.973L240.519 211.16C240.239 210.518 239.864 209.92 239.407 209.388C239.203 209.147 238.982 208.92 238.747 208.709C238.257 208.269 237.709 207.9 237.12 207.612L236.263 209.633C236.615 209.818 236.946 210.046 237.247 210.313C237.769 210.776 238.185 211.343 238.471 211.973ZM235.568 209.334L236.423 207.316C235.803 207.09 235.154 206.954 234.495 206.911C234.335 206.894 234.165 206.894 234.01 206.894C233.932 206.894 233.855 206.898 233.778 206.902C233.747 206.903 233.716 206.904 233.685 206.906C233.64 206.907 233.594 206.909 233.549 206.909C233.004 206.944 232.465 207.042 231.943 207.202C231.906 207.214 231.868 207.226 231.831 207.238L231.806 207.246L231.763 207.26C231.714 207.277 231.664 207.294 231.614 207.312L232.412 209.323C232.914 209.155 233.443 209.068 233.978 209.068C234.201 209.067 234.424 209.082 234.645 209.114C234.961 209.158 235.27 209.232 235.568 209.334ZM234.514 223.891C235.422 223.847 236.32 223.678 237.181 223.389L247.908 250.412C243.594 252.083 238.904 253 234 253C228.736 253 223.718 251.944 219.148 250.031L230.493 223.253L230.563 223.28C231.527 223.64 232.541 223.846 233.568 223.891C233.721 223.891 233.874 223.903 234.029 223.903C234.185 223.903 234.352 223.903 234.514 223.891ZM237.889 223.121L248.611 250.131C257.953 246.296 265.454 238.894 269.418 229.619L242.921 218.388C242.908 218.415 242.895 218.441 242.881 218.467C242.863 218.502 242.846 218.537 242.827 218.572C242.409 219.366 241.885 220.101 241.27 220.755C241.057 220.985 240.836 221.206 240.593 221.415C239.859 222.063 239.034 222.6 238.143 223.008C238.098 223.029 238.053 223.05 238.008 223.07C237.968 223.087 237.929 223.104 237.889 223.121ZM238.232 204.985L249.193 179.114C258.352 183.052 265.676 190.441 269.529 199.645L243.162 210.111C242.735 209.106 242.145 208.177 241.416 207.362C241.207 207.126 240.986 206.901 240.753 206.688C240.078 206.061 239.319 205.532 238.498 205.116C238.41 205.071 238.321 205.027 238.232 204.985ZM224.718 217.432C224.358 216.466 224.152 215.449 224.108 214.419C224.096 214.273 224.096 214.152 224.096 213.98C224.096 213.808 224.108 213.64 224.108 213.473C224.15 212.508 224.332 211.555 224.65 210.644L198.505 199.562C196.57 204.156 195.5 209.203 195.5 214.5C195.5 219.271 196.368 223.84 197.954 228.056L224.718 217.432ZM198.228 228.762L225.01 218.131C225.039 218.194 225.069 218.257 225.1 218.319C225.529 219.196 226.084 220.005 226.747 220.721C226.963 220.951 227.189 221.174 227.424 221.383C228.106 221.993 228.87 222.505 229.692 222.906C229.727 222.923 229.762 222.94 229.797 222.957L218.453 249.732C209.264 245.672 201.962 238.121 198.228 228.762ZM243.431 210.819L269.815 200.346C271.548 204.727 272.5 209.503 272.5 214.5C272.5 219.599 271.509 224.467 269.708 228.92L243.231 217.698C243.659 216.651 243.903 215.539 243.953 214.409V213.97C243.953 213.871 243.946 213.751 243.94 213.632L243.94 213.631C243.937 213.573 243.934 213.515 243.931 213.461C243.89 212.662 243.752 211.871 243.521 211.105L243.505 211.05C243.498 211.029 243.492 211.008 243.485 210.987C243.468 210.931 243.45 210.875 243.431 210.819ZM49.429 199.745C47.5418 204.289 46.5 209.273 46.5 214.5C46.5 219.257 47.3625 223.812 48.9397 228.017L75.2153 217.588C75.1896 217.524 75.1645 217.46 75.1404 217.395C74.7692 216.424 74.5531 215.401 74.5 214.363V213.922V213.417C74.5485 212.458 74.7355 211.512 75.0553 210.606L49.429 199.745ZM75.521 218.28C75.9504 219.151 76.5036 219.955 77.1635 220.668C77.3793 220.898 77.6049 221.121 77.8402 221.33C78.5226 221.94 79.2858 222.452 80.1083 222.853C80.1984 222.896 80.2889 222.938 80.3801 222.979L69.1053 249.576C60.0675 245.475 52.8954 237.982 49.2124 228.723L75.521 218.28ZM81.2899 215.176C81.1465 214.807 81.0671 214.413 81.0588 214.01C81.053 213.731 81.0815 213.454 81.1421 213.186L83.6379 214.244L81.2899 215.176ZM81.6427 215.851C81.7671 216.035 81.91 216.208 82.0701 216.366C82.3229 216.617 82.6109 216.824 82.9223 216.982L83.7581 215.011L81.6427 215.851ZM81.0816 223.262L69.797 249.882C74.4608 251.889 79.6006 253 84.9999 253C89.7907 253 94.3772 252.125 98.6081 250.526L87.7914 223.276C87.7508 223.29 87.7101 223.305 87.6693 223.319C86.7861 223.62 85.865 223.794 84.9331 223.838C84.9082 223.838 84.8832 223.838 84.8582 223.837C84.8286 223.837 84.7989 223.836 84.7693 223.835C84.6601 223.833 84.5513 223.83 84.4479 223.838C84.3442 223.846 84.2406 223.843 84.1376 223.841L84.0758 223.839C84.0453 223.839 84.0149 223.838 83.9846 223.838C82.9931 223.795 82.0142 223.601 81.0816 223.262ZM84.4361 217.355C84.7591 217.355 85.0794 217.309 85.3876 217.22L84.544 215.095L83.6306 217.249C83.8919 217.316 84.1622 217.352 84.4361 217.355ZM85.3004 214.949L86.087 216.931C86.5355 216.684 86.9231 216.339 87.2208 215.921C87.2496 215.881 87.2774 215.84 87.3044 215.798L85.3004 214.949ZM49.7262 199.049C53.6986 189.993 61.0556 182.76 70.1965 178.949L80.4618 204.811L80.4285 204.825C79.3954 205.279 78.4478 205.907 77.6268 206.681C77.3953 206.896 77.1751 207.123 76.967 207.36C76.3473 208.063 75.8296 208.849 75.4291 209.696C75.3969 209.764 75.3655 209.833 75.3348 209.903L49.7262 199.049ZM81.474 207.494L81.5187 207.473L82.3145 209.478C82.0519 209.603 81.7996 209.751 81.5609 209.922C81.5185 209.952 81.4766 209.983 81.4353 210.015L81.3877 209.941C80.9632 210.21 80.578 210.537 80.2427 210.911L80.4179 211.067C80.2398 211.316 80.085 211.582 79.9557 211.862L77.9677 211.019C78.2328 210.434 78.5773 209.886 78.9925 209.393C79.6697 208.585 80.517 207.936 81.474 207.494ZM81.9722 211.614C82.2373 211.329 82.5467 211.094 82.8852 210.916L83.9291 213.546L81.3905 212.47C81.5385 212.159 81.7338 211.87 81.9722 211.614ZM83.5901 210.64L84.5673 213.102L85.5745 210.726C85.2093 210.596 84.8227 210.529 84.4312 210.529H84.2954C84.0553 210.541 83.819 210.579 83.5901 210.64ZM87.5862 212.633L87.5738 212.604C87.566 212.586 87.5581 212.568 87.55 212.55L87.5386 212.525C87.2663 211.93 86.8287 211.425 86.2778 211.071L86.2556 211.057L85.1607 213.64L87.6019 212.671L87.5862 212.633ZM87.8076 213.403C87.8538 213.687 87.864 213.977 87.837 214.266C87.8095 214.559 87.7442 214.846 87.6436 215.12L85.6315 214.267L87.8076 213.403ZM37.1132 212.963V212.881C37.1126 212.891 37.1123 212.901 37.1121 212.91L37.1121 212.931C37.1122 212.942 37.1126 212.953 37.1132 212.963ZM166.875 216.386L166.876 216.392C166.876 216.396 166.876 216.399 166.875 216.403V216.386ZM166.165 214.576V214.606L166.143 214.562L166.165 214.576ZM165.194 212.895C165.196 212.908 165.196 212.92 165.194 212.932L165.16 212.881L165.194 212.895ZM160.942 208.963C160.951 208.975 160.958 208.988 160.964 209.002L160.901 208.966C160.916 208.962 160.931 208.961 160.947 208.963H160.942ZM37.6875 105C37.6875 104.448 38.1352 104 38.6875 104H66.9375C67.4898 104 67.9375 104.448 67.9375 105C67.9375 105.553 67.4898 106 66.9375 106H38.6875C38.1352 106 37.6875 105.553 37.6875 105ZM46.25 118C45.6977 118 45.25 118.448 45.25 119C45.25 119.553 45.6977 120 46.25 120H74.5C75.0523 120 75.5 119.553 75.5 119C75.5 118.448 75.0523 118 74.5 118H46.25ZM31.5 134C31.5 133.448 31.9477 133 32.5 133H60.75C61.3023 133 61.75 133.448 61.75 134C61.75 134.553 61.3023 135 60.75 135H32.5C31.9477 135 31.5 134.553 31.5 134Z" fill="#CACDD6"/>
</svg>
