<svg width="235" height="214" viewBox="0 0 235 214" fill="none" xmlns="http://www.w3.org/2000/svg">
<circle cx="117.139" cy="122.308" r="55.7885" stroke="#3B5999" stroke-width="12"/>
<circle cx="43.9375" cy="70.9046" r="6.88461" stroke="#8CAAC8" stroke-width="7"/>
<circle cx="194.93" cy="60.705" r="10.06" stroke="#8CAAC8" stroke-width="10"/>
<circle cx="41.0024" cy="163.53" r="10.06" stroke="#8CAAC8" stroke-width="10"/>
<circle cx="203.505" cy="166.01" r="7.13465" stroke="#8CAAC8" stroke-width="7"/>
<circle cx="8.70428" cy="74.9695" r="2.565" stroke="#23AAE6" stroke-width="3"/>
<circle cx="228.623" cy="95.9695" r="2.565" stroke="#23AAE6" stroke-width="3"/>
<circle cx="145.197" cy="3.885" r="2.385" stroke="#23AAE6" stroke-width="3"/>
<circle cx="96.7931" cy="199.03" r="4.88464" stroke="#9BD2F0" stroke-width="5"/>
<circle cx="125.235" cy="38.2604" r="4.88464" stroke="#9BD2F0" stroke-width="5"/>
<circle cx="201.562" cy="125.02" r="7.1538" fill="#3B5999"/>
<circle cx="168.62" cy="199.03" r="14.3522" fill="#55ACEE"/>
<circle r="3.18273" transform="matrix(1 0 0 -1 43.9374 114.683)" fill="#3B5999"/>
<circle r="6.875" transform="matrix(1 0 0 -1 162.303 37.7507)" fill="#3B5999"/>
<circle r="3.18273" transform="matrix(1 0 0 -1 50.3028 201.193)" fill="#3B5999"/>
<circle r="3.18273" transform="matrix(1 0 0 -1 231.806 173.462)" fill="#3B5999"/>
<circle r="3.18273" transform="matrix(1 0 0 -1 132.62 198.011)" fill="#3B5999"/>
<circle cx="83.4085" cy="28.5392" r="20.7692" fill="#55ACEE"/>
<circle cx="12.7692" cy="122.309" r="12.7692" fill="#55ACEE"/>
<path d="M124.431 112.933L131.723 105.642M135.889 101.475L131.723 105.642L135.889 101.475ZM115.869 121.496C116.944 122.557 117.799 123.821 118.385 125.214C118.97 126.607 119.274 128.103 119.279 129.614C119.284 131.125 118.99 132.622 118.414 134.019C117.838 135.417 116.992 136.686 115.923 137.755C114.854 138.823 113.585 139.67 112.188 140.246C110.791 140.822 109.294 141.116 107.782 141.111C106.271 141.106 104.776 140.802 103.383 140.216C101.989 139.631 100.726 138.776 99.6644 137.7C97.5771 135.539 96.4222 132.645 96.4483 129.64C96.4744 126.636 97.6795 123.762 99.8039 121.638C101.928 119.513 104.802 118.308 107.807 118.282C110.811 118.256 113.705 119.411 115.866 121.498L115.869 121.496ZM115.869 121.496L124.431 112.933L115.869 121.496ZM124.431 112.933L130.681 119.183L137.973 111.892L131.723 105.642L124.431 112.933Z" stroke="#3B5999" stroke-width="6" stroke-linecap="round" stroke-linejoin="round"/>
</svg>
