<svg width="76" height="52" viewBox="0 0 76 52" fill="none" xmlns="http://www.w3.org/2000/svg">
<path d="M20.162 51V41.13H21.618V45.386H27.162V41.13H28.618V51H27.162V46.604H21.618V51H20.162ZM33.8334 51.126C33.1334 51.126 32.5268 50.9813 32.0134 50.692C31.5001 50.3933 31.1034 49.9733 30.8234 49.432C30.5434 48.8813 30.4034 48.228 30.4034 47.472C30.4034 46.716 30.5434 46.0673 30.8234 45.526C31.1034 44.9753 31.5001 44.5553 32.0134 44.266C32.5268 43.9673 33.1334 43.818 33.8334 43.818C34.5334 43.818 35.1401 43.9673 35.6534 44.266C36.1761 44.5553 36.5774 44.9753 36.8574 45.526C37.1468 46.0673 37.2914 46.716 37.2914 47.472C37.2914 48.228 37.1468 48.8813 36.8574 49.432C36.5774 49.9733 36.1761 50.3933 35.6534 50.692C35.1401 50.9813 34.5334 51.126 33.8334 51.126ZM33.8334 50.02C34.4494 50.02 34.9394 49.8053 35.3034 49.376C35.6674 48.9467 35.8494 48.312 35.8494 47.472C35.8494 46.632 35.6674 46.002 35.3034 45.582C34.9394 45.1527 34.4494 44.938 33.8334 44.938C33.2268 44.938 32.7414 45.1527 32.3774 45.582C32.0134 46.002 31.8314 46.632 31.8314 47.472C31.8314 48.312 32.0088 48.9467 32.3634 49.376C32.7274 49.8053 33.2174 50.02 33.8334 50.02ZM38.9442 51V45.638C38.9442 45.3673 38.9302 45.092 38.9022 44.812C38.8835 44.5227 38.8602 44.2333 38.8322 43.944H40.2042L40.3302 45.428H40.1622C40.3582 44.9147 40.6569 44.518 41.0582 44.238C41.4689 43.958 41.9589 43.818 42.5282 43.818C43.1069 43.818 43.5782 43.958 43.9422 44.238C44.3155 44.5087 44.5722 44.9287 44.7122 45.498H44.4882C44.6749 44.9847 44.9922 44.5787 45.4402 44.28C45.8882 43.972 46.4062 43.818 46.9942 43.818C47.7782 43.818 48.3662 44.0467 48.7582 44.504C49.1502 44.9613 49.3462 45.6707 49.3462 46.632V51H47.9322V46.702C47.9322 46.086 47.8249 45.6427 47.6102 45.372C47.4049 45.092 47.0689 44.952 46.6022 44.952C46.0609 44.952 45.6315 45.1387 45.3142 45.512C44.9969 45.8853 44.8382 46.3893 44.8382 47.024V51H43.4242V46.702C43.4242 46.086 43.3169 45.6427 43.1022 45.372C42.8969 45.092 42.5609 44.952 42.0942 44.952C41.5529 44.952 41.1282 45.1387 40.8202 45.512C40.5122 45.8853 40.3582 46.3893 40.3582 47.024V51H38.9442ZM54.6339 51.126C53.4953 51.126 52.5993 50.804 51.9459 50.16C51.2926 49.516 50.9659 48.6247 50.9659 47.486C50.9659 46.7487 51.1059 46.1047 51.3859 45.554C51.6753 45.0033 52.0719 44.5787 52.5759 44.28C53.0893 43.972 53.6819 43.818 54.3539 43.818C55.0166 43.818 55.5719 43.958 56.0199 44.238C56.4679 44.518 56.8086 44.9147 57.0419 45.428C57.2753 45.932 57.3919 46.5293 57.3919 47.22V47.668H52.0719V46.856H56.4259L56.1879 47.038C56.1879 46.338 56.0293 45.7967 55.7119 45.414C55.4039 45.022 54.9559 44.826 54.3679 44.826C53.7146 44.826 53.2106 45.0547 52.8559 45.512C52.5013 45.96 52.3239 46.5807 52.3239 47.374V47.514C52.3239 48.3447 52.5246 48.97 52.9259 49.39C53.3366 49.81 53.9153 50.02 54.6619 50.02C55.0726 50.02 55.4553 49.964 55.8099 49.852C56.1739 49.7307 56.5193 49.5347 56.8459 49.264L57.3079 50.23C56.9813 50.5193 56.5846 50.7433 56.1179 50.902C55.6513 51.0513 55.1566 51.126 54.6339 51.126Z" fill="#FF7F56"/>
<g clip-path="url(#clip0_311_57)">
<path d="M49.3999 15.392C49.3992 15.3914 49.3986 15.3907 49.3981 15.3902L39.608 5.6004C39.1907 5.18292 38.6359 4.95312 38.0457 4.95312C37.4556 4.95312 36.9007 5.18292 36.4833 5.6004L26.6983 15.3852C26.695 15.3885 26.6915 15.392 26.6884 15.3953C25.8314 16.2572 25.8329 17.6555 26.6926 18.5152C27.0854 18.9082 27.6039 19.1356 28.1585 19.1596C28.1812 19.1618 28.2039 19.1629 28.2268 19.1629H28.6169V26.3674C28.6169 27.7932 29.777 28.9532 31.2029 28.9532H35.0331C35.4214 28.9532 35.7362 28.6382 35.7362 28.25V22.6016C35.7362 21.951 36.2655 21.4218 36.9161 21.4218H39.1753C39.8259 21.4218 40.355 21.951 40.355 22.6016V28.25C40.355 28.6382 40.6698 28.9532 41.0582 28.9532H44.8884C46.3144 28.9532 47.4744 27.7932 47.4744 26.3674V19.1629H47.8362C48.4262 19.1629 48.981 18.9331 49.3986 18.5154C50.2592 17.6544 50.2596 16.2535 49.3999 15.392V15.392ZM48.4042 17.5211C48.2524 17.6729 48.0506 17.7566 47.8362 17.7566H46.7712C46.3829 17.7566 46.0681 18.0714 46.0681 18.4597V26.3674C46.0681 27.0177 45.5389 27.5469 44.8884 27.5469H41.7613V22.6016C41.7613 21.1758 40.6013 20.0156 39.1753 20.0156H36.9161C35.4901 20.0156 34.3299 21.1758 34.3299 22.6016V27.5469H31.2029C30.5525 27.5469 30.0231 27.0177 30.0231 26.3674V18.4597C30.0231 18.0714 29.7083 17.7566 29.32 17.7566H28.2733C28.2624 17.7559 28.2516 17.7553 28.2404 17.7552C28.0309 17.7515 27.8344 17.6684 27.6872 17.521C27.3741 17.2078 27.3741 16.6983 27.6872 16.385C27.6874 16.385 27.6874 16.3848 27.6876 16.3846L27.6881 16.3841L37.4779 6.59467C37.6295 6.44287 37.8311 6.35938 38.0457 6.35938C38.2601 6.35938 38.4617 6.44287 38.6135 6.59467L48.4011 16.382C48.4025 16.3835 48.4042 16.385 48.4056 16.3864C48.7171 16.7001 48.7166 17.2086 48.4042 17.5211V17.5211Z" fill="#FF7F56"/>
</g>
<defs>
<clipPath id="clip0_311_57">
<rect width="24" height="24" fill="white" transform="translate(26 5)"/>
</clipPath>
</defs>
</svg>
