<svg width="151" height="176" viewBox="0 0 151 176" fill="none" xmlns="http://www.w3.org/2000/svg">
<ellipse cx="62" cy="86" rx="44" ry="46" fill="#E83939"/>
<path opacity="0.1" d="M51.8737 73.9912C52.8396 72.0201 54.4848 70.4642 56.5065 69.6096C58.5283 68.755 60.7906 68.6592 62.8774 69.3398C64.9642 70.0204 66.735 71.4317 67.8641 73.314C68.9931 75.1962 69.4045 77.4229 69.0226 79.5844C70.1885 78.1212 71.0784 76.5783 71.5721 75.0891C71.5858 75.0478 71.6016 75.0073 71.6194 74.9676C68.896 70.9157 67.8605 65.9612 68.7332 61.1578C69.1639 58.7304 70.0743 56.4132 71.4112 54.3419C72.7481 52.2706 74.4847 50.4867 76.5194 49.0946C76.7969 48.9034 77.1387 48.8293 77.4705 48.8886C77.8023 48.9478 78.0973 49.1355 78.2916 49.411C79.712 51.4169 80.7172 53.6864 81.2481 56.0862C81.779 58.4861 81.8249 60.9678 81.3831 63.3856C80.9511 65.8314 80.037 68.1668 78.6938 70.2559C82.0581 69.0202 85.7055 68.7722 89.206 69.5411C92.7066 70.3099 95.9143 72.0637 98.451 74.5955C98.6911 74.8355 98.8259 75.1611 98.8259 75.5005C98.8259 75.84 98.6911 76.1655 98.451 76.4056C95.1601 79.7028 90.7596 81.6569 86.1068 81.8874C81.4539 82.1179 76.8819 80.6083 73.2811 77.6525C72.7554 78.7232 72.1285 79.7411 71.4091 80.6925C73.4684 80.5942 75.5002 81.1973 77.1723 82.4034C78.8444 83.6095 80.0579 85.3471 80.6144 87.3322C81.171 89.3174 81.0376 91.4326 80.2362 93.3321C79.4348 95.2316 78.0127 96.8031 76.2024 97.7897C77.1117 99.2709 77.5822 100.98 77.5594 102.718C77.5407 105.09 76.5884 107.361 74.9086 109.037C73.4531 110.488 71.5503 111.406 69.5082 111.641C67.4662 111.876 65.4045 111.415 63.6571 110.333C63.3063 110.892 62.895 111.41 62.4306 111.879C60.8845 113.421 58.8369 114.358 56.6593 114.519C54.4817 114.68 52.3184 114.055 50.5621 112.758C50.1204 113.598 49.5523 114.365 48.8778 115.033C48.0316 115.879 47.0269 116.551 45.9213 117.009C44.8156 117.467 43.6306 117.702 42.4338 117.702C41.237 117.702 40.052 117.467 38.9463 117.009C37.8407 116.551 36.836 115.879 35.9898 115.033C35.1436 114.187 34.4723 113.182 34.0143 112.077C33.5563 110.971 33.3206 109.786 33.3206 108.589C33.3206 107.392 33.5563 106.207 34.0143 105.102C34.4723 103.996 35.1436 102.991 35.9898 102.145C36.545 101.594 37.1717 101.119 37.853 100.734C36.2884 98.9992 35.4491 96.7298 35.508 94.394C35.567 92.0582 36.5198 89.8341 38.17 88.1799C38.706 87.6523 39.3103 87.1988 39.9668 86.8317C38.9004 85.0858 38.4515 83.0324 38.692 81.0008C38.9325 78.9693 39.8486 77.0774 41.2931 75.6288C42.6512 74.2627 44.4108 73.3668 46.3144 73.0721C48.2181 72.7775 50.1661 73.0995 51.8737 73.9912V73.9912ZM64.6863 73.3727C63.7698 72.4561 62.6021 71.8319 61.3308 71.579C60.0595 71.3261 58.7418 71.4559 57.5443 71.9519C56.3468 72.4479 55.3233 73.2879 54.6031 74.3656C53.883 75.4433 53.4986 76.7103 53.4986 78.0065C53.4986 79.3027 53.8829 80.5698 54.6031 81.6475C55.3232 82.7252 56.3467 83.5652 57.5442 84.0612C58.7417 84.5573 60.0594 84.6871 61.3306 84.4342C62.6019 84.1813 63.7696 83.5572 64.6862 82.6406C65.9134 81.4107 66.6026 79.7442 66.6026 78.0067C66.6026 76.2692 65.9135 74.6027 64.6863 73.3727V73.3727ZM53.6504 97.371C54.8804 98.5982 56.5469 99.2874 58.2844 99.2874C60.0218 99.2874 61.6883 98.5982 62.9183 97.371C63.561 96.7096 64.0689 95.9295 64.4135 95.0741C63.701 94.0706 63.1987 92.9334 62.937 91.7309C62.6752 90.5283 62.6593 89.2853 62.8902 88.0764C62.6965 87.8846 62.4903 87.7057 62.273 87.5411C62.1209 87.4784 61.9825 87.3868 61.8653 87.2714C61.8568 87.2629 61.8498 87.2527 61.8415 87.244C61.7063 87.1593 61.5689 87.0816 61.4295 87.0096C59.7853 87.2596 58.104 87.0573 56.566 86.4245C55.4672 86.7269 54.4637 87.3047 53.6504 88.1031C52.4232 89.3331 51.734 90.9996 51.734 92.7371C51.734 94.4745 52.4232 96.141 53.6504 97.371V97.371ZM78.864 62.9348C79.5516 59.1722 78.8599 55.2878 76.9156 51.9939C73.9332 54.4148 71.9226 57.829 71.252 61.6113C70.5638 65.3948 71.2455 69.2997 73.1749 72.6262C76.1761 70.1859 78.1961 66.7448 78.864 62.9348V62.9348ZM95.6594 75.4992C92.7288 73.0224 89.0158 71.6635 85.1787 71.6635C81.3417 71.6635 77.6286 73.0225 74.6981 75.4993C77.6287 77.9761 81.3417 79.335 85.1788 79.335C89.0158 79.335 92.7289 77.976 95.6594 75.4992V75.4992ZM76.4713 85.1577C75.5548 84.2411 74.3871 83.6169 73.1158 83.364C71.8445 83.1111 70.5268 83.2409 69.3293 83.7369C68.1318 84.2329 67.1083 85.0729 66.3881 86.1506C65.668 87.2283 65.2836 88.4953 65.2836 89.7915C65.2836 91.0877 65.6679 92.3548 66.3881 93.4325C67.1082 94.5102 68.1317 95.3502 69.3292 95.8462C70.5267 96.3423 71.8444 96.4721 73.1156 96.2192C74.3869 95.9663 75.5546 95.3422 76.4712 94.4256C77.6984 93.1957 78.3876 91.5292 78.3876 89.7917C78.3876 88.0542 77.6985 86.3877 76.4713 85.1577V85.1577ZM73.0987 107.226C74.2065 106.116 74.8796 104.645 74.996 103.081C75.1124 101.517 74.6643 99.9626 73.7331 98.7005C72.449 98.9732 71.1211 98.9656 69.8402 98.6782C68.5593 98.3907 67.3555 97.8303 66.311 97.0351C65.8902 97.8234 65.3572 98.5464 64.7287 99.1816C63.9828 99.9286 63.1123 100.54 62.1562 100.987C61.793 102.376 61.8979 103.845 62.4545 105.167C63.0112 106.49 63.9885 107.592 65.2352 108.303C66.4818 109.014 67.928 109.293 69.3497 109.099C70.7714 108.904 72.0892 108.246 73.0989 107.226L73.0987 107.226ZM60.6204 110.068C61.0323 109.65 61.3868 109.179 61.6747 108.668C60.8487 107.733 60.2231 106.639 59.8368 105.453C59.4504 104.267 59.3114 103.015 59.4283 101.773C58.22 101.927 56.9931 101.837 55.8202 101.508C54.6474 101.179 53.5523 100.619 52.5999 99.8594C52.1462 100.119 51.7272 100.436 51.3529 100.801C50.1239 102.03 49.4334 103.697 49.4334 105.435C49.4334 107.173 50.1239 108.84 51.3529 110.069C52.5819 111.298 54.2487 111.988 55.9868 111.988C57.7249 111.988 59.3917 111.298 60.6207 110.069L60.6204 110.068ZM37.7998 113.223C39.0298 114.45 40.6963 115.139 42.4338 115.139C44.1712 115.139 45.8378 114.45 47.0677 113.222C47.7667 112.547 48.2984 111.718 48.6206 110.8C47.8534 109.744 47.3218 108.535 47.0615 107.256C46.8012 105.976 46.8183 104.656 47.1116 103.384C45.9344 103.718 44.7022 103.812 43.4879 103.661C42.2736 103.511 41.1018 103.118 40.042 102.506C39.2058 102.835 38.4436 103.328 37.7999 103.955C36.5728 105.184 35.8836 106.851 35.8835 108.588C35.8835 110.326 36.5725 111.992 37.7994 113.222L37.7998 113.223ZM39.9801 99.2572C41.2101 100.484 42.8766 101.174 44.614 101.174C46.3515 101.174 48.018 100.484 49.248 99.2572C49.7711 98.7426 50.1942 98.1354 50.4957 97.4665C49.3317 95.542 48.9181 93.256 49.3342 91.0458C47.9679 91.2781 46.5669 91.2006 45.2346 90.8188C43.9023 90.437 42.6729 89.7607 41.637 88.8399C41.0252 89.129 40.4655 89.5172 39.9805 89.989C38.7532 91.2189 38.0639 92.8855 38.0638 94.623C38.0638 96.3605 38.753 98.0271 39.9802 99.2571L39.9801 99.2572ZM43.1032 86.7061C44.0545 87.6439 45.2663 88.2735 46.5805 88.5128C47.8948 88.752 49.2507 88.5899 50.4715 88.0475C50.8543 87.4092 51.314 86.8203 51.8404 86.294C52.3677 85.7677 52.9596 85.3105 53.602 84.9332C53.6556 84.8226 53.7067 84.7086 53.7552 84.5913C53.7061 84.5445 53.6559 84.4995 53.6077 84.4513C52.5785 83.4213 51.8112 82.1595 51.3703 80.7717C50.9295 79.384 50.8278 77.9108 51.0738 76.4756C49.7056 75.6526 48.0833 75.3591 46.5135 75.6508C44.9437 75.9424 43.535 76.7989 42.5537 78.0584C41.5724 79.3179 41.0864 80.8933 41.1875 82.4867C41.2886 84.0802 41.9698 85.5815 43.1024 86.7069L43.1032 86.7061Z" fill="white"/>
<path d="M54.0105 76.7113C54.7855 75.1299 56.1054 73.8816 57.7275 73.1959C59.3496 72.5102 61.1647 72.4334 62.8389 72.9794C64.5131 73.5255 65.9339 74.6578 66.8398 76.168C67.7456 77.6782 68.0757 79.4647 67.7693 81.1988C68.7047 80.0249 69.4186 78.787 69.8147 77.5922C69.8257 77.5591 69.8384 77.5265 69.8527 77.4947C67.6677 74.2438 66.8369 70.2688 67.5371 66.4149C67.8826 64.4674 68.6131 62.6083 69.6857 60.9465C70.7583 59.2846 72.1516 57.8534 73.784 56.7365C74.0067 56.5831 74.2809 56.5237 74.5471 56.5712C74.8133 56.6188 75.05 56.7694 75.2059 56.9904C76.3455 58.5997 77.152 60.4206 77.5779 62.346C78.0039 64.2714 78.0407 66.2625 77.6862 68.2024C77.3396 70.1646 76.6062 72.0384 75.5286 73.7145C78.2278 72.7231 81.1541 72.5241 83.9627 73.1409C86.7712 73.7578 89.3448 75.1648 91.38 77.1962C91.5726 77.3887 91.6808 77.6499 91.6808 77.9223C91.6808 78.1946 91.5726 78.4558 91.38 78.6484C88.7397 81.2938 85.2091 82.8616 81.4761 83.0466C77.7431 83.2315 74.0749 82.0203 71.1859 79.6488C70.7641 80.5078 70.2612 81.3246 69.684 82.0879C71.3362 82.009 72.9663 82.4929 74.3078 83.4605C75.6494 84.4282 76.623 85.8223 77.0695 87.415C77.5161 89.0077 77.4091 90.7047 76.7661 92.2288C76.1231 93.7528 74.9821 95.0136 73.5297 95.8051C74.2592 96.9935 74.6367 98.3644 74.6184 99.7588C74.6035 101.663 73.8394 103.484 72.4917 104.829C71.3239 105.993 69.7972 106.729 68.1589 106.918C66.5205 107.107 64.8665 106.737 63.4645 105.868C63.1831 106.317 62.853 106.733 62.4804 107.109C61.24 108.346 59.5972 109.098 57.85 109.227C56.1029 109.357 54.3673 108.855 52.9582 107.814C52.6038 108.488 52.1481 109.104 51.6069 109.64C50.9279 110.319 50.1219 110.857 49.2348 111.225C48.3477 111.592 47.397 111.781 46.4368 111.781C45.4766 111.781 44.5258 111.592 43.6387 111.225C42.7517 110.857 41.9456 110.319 41.2667 109.64C40.5877 108.961 40.0492 108.155 39.6817 107.268C39.3143 106.381 39.1252 105.43 39.1252 104.47C39.1252 103.51 39.3143 102.559 39.6817 101.672C40.0492 100.785 40.5877 99.9786 41.2667 99.2996C41.7121 98.8572 42.2149 98.4765 42.7616 98.1678C41.5062 96.7755 40.8328 94.9547 40.8802 93.0807C40.9275 91.2067 41.6919 89.4222 43.0159 88.0951C43.446 87.6718 43.9308 87.308 44.4575 87.0134C43.6019 85.6127 43.2417 83.9652 43.4347 82.3352C43.6277 80.7053 44.3626 79.1874 45.5216 78.0252C46.6112 76.9291 48.0229 76.2104 49.5503 75.974C51.0776 75.7376 52.6405 75.9959 54.0105 76.7113ZM64.2902 76.2151C63.5549 75.4797 62.618 74.9789 61.5981 74.776C60.5781 74.5731 59.5209 74.6772 58.5601 75.0752C57.5993 75.4731 56.7781 76.147 56.2004 77.0117C55.6226 77.8764 55.3142 78.8929 55.3142 79.9329C55.3142 80.9728 55.6226 81.9894 56.2003 82.8541C56.7781 83.7187 57.5992 84.3927 58.56 84.7906C59.5208 85.1886 60.578 85.2927 61.5979 85.0899C62.6179 84.887 63.5548 84.3862 64.2901 83.6509C65.2747 82.6641 65.8277 81.327 65.8277 79.933C65.8277 78.539 65.2748 77.2019 64.2902 76.2151ZM55.436 95.4692C56.4228 96.4538 57.7599 97.0067 59.1539 97.0067C60.5479 97.0067 61.8849 96.4538 62.8717 95.4692C63.3874 94.9386 63.7949 94.3127 64.0714 93.6264C63.4997 92.8213 63.0967 91.9089 62.8867 90.9441C62.6767 89.9793 62.6639 88.9819 62.8492 88.0121C62.6938 87.8581 62.5284 87.7147 62.354 87.5826C62.232 87.5322 62.1209 87.4588 62.0269 87.3662C62.0201 87.3594 62.0144 87.3512 62.0078 87.3442C61.8993 87.2762 61.7891 87.2139 61.6772 87.1562C60.3581 87.3567 59.0092 87.1944 57.7752 86.6867C56.8936 86.9294 56.0885 87.3929 55.436 88.0335C54.4514 89.0203 53.8985 90.3574 53.8985 91.7513C53.8985 93.1453 54.4514 94.4824 55.436 95.4692ZM75.6651 67.8407C76.2168 64.8219 75.6618 61.7054 74.1019 59.0626C71.7091 61.005 70.096 63.7442 69.558 66.7788C69.0058 69.8143 69.5527 72.9473 71.1007 75.6162C73.5086 73.6583 75.1293 70.8975 75.6651 67.8407ZM89.1403 77.9212C86.7891 75.934 83.81 74.8438 80.7315 74.8438C77.653 74.8438 74.674 75.9341 72.3228 77.9213C74.674 79.9085 77.6531 80.9987 80.7316 80.9987C83.8101 80.9987 86.7891 79.9084 89.1403 77.9212ZM73.7454 85.6703C73.0101 84.935 72.0732 84.4342 71.0533 84.2313C70.0334 84.0284 68.9761 84.1325 68.0154 84.5304C67.0546 84.9284 66.2334 85.6023 65.6556 86.4669C65.0779 87.3316 64.7695 88.3482 64.7694 89.3881C64.7694 90.428 65.0778 91.4446 65.6555 92.3093C66.2333 93.174 67.0545 93.8479 68.0152 94.2459C68.976 94.6439 70.0332 94.748 71.0532 94.5451C72.0731 94.3422 73.01 93.8415 73.7454 93.1061C74.73 92.1193 75.2829 90.7822 75.2829 89.3882C75.283 87.9942 74.73 86.6571 73.7454 85.6703ZM71.0395 103.376C71.9283 102.485 72.4684 101.305 72.5618 100.05C72.6552 98.7954 72.2957 97.5485 71.5486 96.5359C70.5183 96.7547 69.4529 96.7486 68.4252 96.518C67.3975 96.2874 66.4317 95.8377 65.5937 95.1997C65.2561 95.8322 64.8285 96.4123 64.3242 96.9219C63.7258 97.5212 63.0274 98.0115 62.2603 98.3706C61.9689 99.4844 62.053 100.663 62.4996 101.724C62.9462 102.786 63.7304 103.67 64.7306 104.24C65.7307 104.81 66.8911 105.035 68.0317 104.878C69.1724 104.722 70.2295 104.194 71.0395 103.376ZM61.0281 105.657C61.3586 105.321 61.643 104.943 61.8739 104.533C61.2112 103.783 60.7094 102.905 60.3994 101.954C60.0894 101.002 59.9779 99.9974 60.0717 99.0012C59.1022 99.1245 58.1179 99.0522 57.1769 98.7884C56.2359 98.5247 55.3573 98.0749 54.5932 97.4657C54.2292 97.6743 53.893 97.9282 53.5927 98.2211C52.6066 99.2072 52.0527 100.545 52.0527 101.939C52.0527 103.333 52.6066 104.671 53.5927 105.657C54.5787 106.643 55.916 107.197 57.3105 107.197C58.705 107.197 60.0421 106.643 61.0281 105.657ZM42.7188 108.187C43.7057 109.172 45.0428 109.725 46.4368 109.725C47.8308 109.725 49.1678 109.172 50.1546 108.187C50.7154 107.645 51.142 106.98 51.4005 106.244C50.785 105.396 50.3585 104.426 50.1496 103.4C49.9408 102.373 49.9545 101.314 50.1899 100.293C49.2454 100.561 48.2567 100.637 47.2825 100.516C46.3082 100.395 45.3681 100.08 44.5178 99.5892C43.847 99.8533 43.2354 100.248 42.7189 100.751C41.7344 101.738 41.1815 103.075 41.1814 104.469C41.1814 105.863 41.7344 107.2 42.7188 108.187ZM44.4682 96.9825C45.455 97.9671 46.792 98.5201 48.186 98.5201C49.58 98.5201 50.9171 97.9671 51.9039 96.9825C52.3236 96.5697 52.663 96.0825 52.9049 95.5458C51.971 94.0018 51.6392 92.1677 51.973 90.3944C50.8769 90.5808 49.7528 90.5186 48.6839 90.2123C47.615 89.906 46.6286 89.3634 45.7975 88.6247C45.3067 88.8565 44.8576 89.168 44.4684 89.5466C43.4838 90.5333 42.9308 91.8704 42.9307 93.2645C42.9307 94.6585 43.4835 95.9957 44.4682 96.9825ZM46.9738 86.9126C47.7371 87.6651 48.7093 88.1702 49.7637 88.3622C50.8182 88.5541 51.906 88.424 52.8855 87.9888C53.1927 87.4767 53.5615 87.0042 53.9838 86.582C54.4068 86.1598 54.8818 85.7929 55.3972 85.4902C55.4402 85.4015 55.4812 85.31 55.5201 85.2159C55.4807 85.1784 55.4404 85.1422 55.4017 85.1036C54.576 84.2772 53.9604 83.2648 53.6067 82.1514C53.2529 81.038 53.1714 79.856 53.3687 78.7046C52.271 78.0443 50.9694 77.8088 49.71 78.0428C48.4505 78.2768 47.3203 78.964 46.533 79.9745C45.7457 80.985 45.3557 82.2489 45.4368 83.5274C45.5179 84.8059 46.0645 86.0103 46.9732 86.9133L46.9738 86.9126Z" fill="white"/>
</svg>
