<svg width="41" height="51" viewBox="0 0 41 51" fill="none" xmlns="http://www.w3.org/2000/svg">
<path d="M4.90842 49.8662V39.9962H6.18242L9.99042 48.5782H9.57042L13.3784 39.9962H14.6384V49.8662H13.3224V41.9702H13.7844L10.2284 49.8662H9.31842L5.76242 41.9702H6.23842V49.8662H4.90842ZM20.13 49.9922C18.9914 49.9922 18.0954 49.6702 17.442 49.0262C16.7887 48.3822 16.462 47.4909 16.462 46.3522C16.462 45.6149 16.602 44.9709 16.882 44.4202C17.1714 43.8695 17.568 43.4449 18.072 43.1462C18.5854 42.8382 19.178 42.6842 19.85 42.6842C20.5127 42.6842 21.068 42.8242 21.516 43.1042C21.964 43.3842 22.3047 43.7809 22.538 44.2942C22.7714 44.7982 22.888 45.3955 22.888 46.0862V46.5342H17.568V45.7222H21.922L21.684 45.9042C21.684 45.2042 21.5254 44.6629 21.208 44.2802C20.9 43.8882 20.452 43.6922 19.864 43.6922C19.2107 43.6922 18.7067 43.9209 18.352 44.3782C17.9974 44.8262 17.82 45.4469 17.82 46.2402V46.3802C17.82 47.2109 18.0207 47.8362 18.422 48.2562C18.8327 48.6762 19.4114 48.8862 20.158 48.8862C20.5687 48.8862 20.9514 48.8302 21.306 48.7182C21.67 48.5969 22.0154 48.4009 22.342 48.1302L22.804 49.0962C22.4774 49.3855 22.0807 49.6095 21.614 49.7682C21.1474 49.9175 20.6527 49.9922 20.13 49.9922ZM24.5106 49.8662V44.5042C24.5106 44.2335 24.4966 43.9582 24.4686 43.6782C24.4499 43.3889 24.4266 43.0995 24.3986 42.8102H25.7706L25.8966 44.2942H25.7286C25.9433 43.7715 26.2746 43.3749 26.7226 43.1042C27.1706 42.8242 27.6886 42.6842 28.2766 42.6842C29.1073 42.6842 29.7326 42.9129 30.1526 43.3702C30.5819 43.8275 30.7966 44.5369 30.7966 45.4982V49.8662H29.3826V45.5822C29.3826 44.9569 29.2566 44.5089 29.0046 44.2382C28.7619 43.9582 28.3886 43.8182 27.8846 43.8182C27.2873 43.8182 26.8113 44.0049 26.4566 44.3782C26.1019 44.7422 25.9246 45.2369 25.9246 45.8622V49.8662H24.5106ZM35.3154 49.9922C34.4661 49.9922 33.8268 49.7635 33.3974 49.3062C32.9774 48.8395 32.7674 48.1255 32.7674 47.1642V42.8102H34.1814V47.1362C34.1814 47.7242 34.3028 48.1582 34.5454 48.4382C34.7881 48.7182 35.1568 48.8582 35.6514 48.8582C36.2114 48.8582 36.6641 48.6715 37.0094 48.2982C37.3548 47.9249 37.5274 47.4302 37.5274 46.8142V42.8102H38.9414V49.8662H37.5694V48.3542H37.7514C37.5554 48.8769 37.2428 49.2829 36.8134 49.5722C36.3841 49.8522 35.8848 49.9922 35.3154 49.9922Z" fill="#7D849A"/>
<path d="M33.6138 9.84247H11.3863C11.1169 9.84247 10.8979 9.62352 10.8979 9.3541C10.8979 9.08468 11.1169 8.86572 11.3863 8.86572H33.6138C33.8832 8.86572 34.1021 9.08468 34.1021 9.3541C34.1021 9.62352 33.8832 9.84247 33.6138 9.84247Z" fill="#121331"/>
<path d="M33.6138 17.9885H11.3863C11.1169 17.9885 10.8979 17.7695 10.8979 17.5001C10.8979 17.2307 11.1169 17.0117 11.3863 17.0117H33.6138C33.8832 17.0117 34.1021 17.2307 34.1021 17.5001C34.1021 17.7695 33.8832 17.9885 33.6138 17.9885Z" fill="#121331"/>
<path d="M33.6138 26.1345H11.3863C11.1169 26.1345 10.8979 25.9155 10.8979 25.6461C10.8979 25.3767 11.1169 25.1577 11.3863 25.1577H33.6138C33.8832 25.1577 34.1021 25.3767 34.1021 25.6461C34.1021 25.9155 33.8832 26.1345 33.6138 26.1345Z" fill="#121331"/>
</svg>
