<svg width="76" height="52" viewBox="0 0 76 52" fill="none" xmlns="http://www.w3.org/2000/svg">
<path d="M19.826 46.058C19.826 45.022 20.008 44.126 20.372 43.37C20.736 42.614 21.2633 42.0307 21.954 41.62C22.654 41.2093 23.4847 41.004 24.446 41.004C25.398 41.004 26.2193 41.2093 26.91 41.62C27.6007 42.0307 28.1327 42.614 28.506 43.37C28.8887 44.126 29.08 45.0173 29.08 46.044C29.08 47.08 28.8887 47.9807 28.506 48.746C28.1327 49.502 27.596 50.09 26.896 50.51C26.2053 50.9207 25.3887 51.126 24.446 51.126C23.4847 51.126 22.6587 50.9207 21.968 50.51C21.2773 50.09 20.7453 49.502 20.372 48.746C20.008 47.9807 19.826 47.0847 19.826 46.058ZM21.352 46.058C21.352 47.2527 21.6133 48.186 22.136 48.858C22.6587 49.53 23.4287 49.866 24.446 49.866C25.4353 49.866 26.2007 49.5347 26.742 48.872C27.2833 48.2 27.554 47.262 27.554 46.058C27.554 44.854 27.2833 43.9207 26.742 43.258C26.21 42.5953 25.4447 42.264 24.446 42.264C23.4287 42.264 22.6587 42.5953 22.136 43.258C21.6133 43.9207 21.352 44.854 21.352 46.058ZM30.9182 51V45.694C30.9182 45.4047 30.9088 45.1153 30.8902 44.826C30.8808 44.5273 30.8622 44.2333 30.8342 43.944H32.2062L32.3602 45.764H32.1362C32.2295 45.3253 32.3882 44.9613 32.6122 44.672C32.8362 44.3827 33.1068 44.168 33.4242 44.028C33.7508 43.888 34.0915 43.818 34.4462 43.818C34.5955 43.818 34.7215 43.8273 34.8242 43.846C34.9268 43.8553 35.0295 43.874 35.1322 43.902L35.1182 45.162C34.9595 45.0967 34.8195 45.0593 34.6982 45.05C34.5862 45.0313 34.4462 45.022 34.2782 45.022C33.8675 45.022 33.5175 45.1153 33.2282 45.302C32.9388 45.4793 32.7195 45.722 32.5702 46.03C32.4208 46.338 32.3462 46.6693 32.3462 47.024V51H30.9182ZM38.8298 51.126C38.2138 51.126 37.6678 50.9813 37.1918 50.692C36.7251 50.4027 36.3611 49.9827 36.0998 49.432C35.8478 48.8813 35.7218 48.228 35.7218 47.472C35.7218 46.7067 35.8478 46.0533 36.0998 45.512C36.3611 44.9707 36.7251 44.5553 37.1918 44.266C37.6678 43.9673 38.2138 43.818 38.8298 43.818C39.4365 43.818 39.9685 43.972 40.4258 44.28C40.8925 44.5787 41.2005 44.9893 41.3498 45.512H41.1818V40.696H42.5958V51H41.1958V49.404H41.3638C41.2051 49.936 40.8971 50.356 40.4398 50.664C39.9825 50.972 39.4458 51.126 38.8298 51.126ZM39.1798 50.02C39.7865 50.02 40.2765 49.8053 40.6498 49.376C41.0231 48.9467 41.2098 48.312 41.2098 47.472C41.2098 46.632 41.0231 46.002 40.6498 45.582C40.2765 45.1527 39.7865 44.938 39.1798 44.938C38.5638 44.938 38.0691 45.1527 37.6958 45.582C37.3318 46.002 37.1498 46.632 37.1498 47.472C37.1498 48.312 37.3318 48.9467 37.6958 49.376C38.0691 49.8053 38.5638 50.02 39.1798 50.02ZM47.921 51.126C46.7824 51.126 45.8864 50.804 45.233 50.16C44.5797 49.516 44.253 48.6247 44.253 47.486C44.253 46.7487 44.393 46.1047 44.673 45.554C44.9624 45.0033 45.359 44.5787 45.863 44.28C46.3764 43.972 46.969 43.818 47.641 43.818C48.3037 43.818 48.859 43.958 49.307 44.238C49.755 44.518 50.0957 44.9147 50.329 45.428C50.5624 45.932 50.679 46.5293 50.679 47.22V47.668H45.359V46.856H49.713L49.475 47.038C49.475 46.338 49.3164 45.7967 48.999 45.414C48.691 45.022 48.243 44.826 47.655 44.826C47.0017 44.826 46.4977 45.0547 46.143 45.512C45.7884 45.96 45.611 46.5807 45.611 47.374V47.514C45.611 48.3447 45.8117 48.97 46.213 49.39C46.6237 49.81 47.2024 50.02 47.949 50.02C48.3597 50.02 48.7424 49.964 49.097 49.852C49.461 49.7307 49.8064 49.5347 50.133 49.264L50.595 50.23C50.2684 50.5193 49.8717 50.7433 49.405 50.902C48.9384 51.0513 48.4437 51.126 47.921 51.126ZM52.2736 51V45.694C52.2736 45.4047 52.2643 45.1153 52.2456 44.826C52.2363 44.5273 52.2176 44.2333 52.1896 43.944H53.5616L53.7156 45.764H53.4916C53.585 45.3253 53.7436 44.9613 53.9676 44.672C54.1916 44.3827 54.4623 44.168 54.7796 44.028C55.1063 43.888 55.447 43.818 55.8016 43.818C55.951 43.818 56.077 43.8273 56.1796 43.846C56.2823 43.8553 56.385 43.874 56.4876 43.902L56.4736 45.162C56.315 45.0967 56.175 45.0593 56.0536 45.05C55.9416 45.0313 55.8016 45.022 55.6336 45.022C55.223 45.022 54.873 45.1153 54.5836 45.302C54.2943 45.4793 54.075 45.722 53.9256 46.03C53.7763 46.338 53.7016 46.6693 53.7016 47.024V51H52.2736Z" fill="#7D849A"/>
<path d="M46.7745 25.7285L45.498 11.6825C45.462 11.2955 45.138 11 44.7495 11H42.4995V9.5C42.4995 8.294 42.033 7.1615 41.1855 6.314C40.338 5.4665 39.2055 5 37.9995 5C35.5185 5 33.4995 7.019 33.4995 9.5V11H31.2495C30.861 11 30.537 11.2955 30.5025 11.6825L29.226 25.7285C29.1495 26.5655 29.4315 27.4025 29.9985 28.0235C30.5655 28.6445 31.3725 29 32.214 29H43.7865C44.628 29 45.435 28.6445 46.002 28.0235C46.569 27.4025 46.8495 26.5655 46.7745 25.7285ZM34.9995 9.5C34.9995 7.8455 36.345 6.5 37.9995 6.5C38.805 6.5 39.5595 6.8105 40.125 7.3745C40.6905 7.9385 40.9995 8.6945 40.9995 9.5V11H34.9995V9.5ZM44.8935 27.0125C44.6055 27.326 44.2125 27.5 43.785 27.5H32.214C31.788 27.5 31.3935 27.326 31.107 27.011C30.819 26.696 30.6825 26.2895 30.7215 25.8635L31.935 12.5H33.4995V14.75C33.4995 15.164 33.8355 15.5 34.2495 15.5C34.6635 15.5 34.9995 15.164 34.9995 14.75V12.5H40.9995V14.75C40.9995 15.164 41.3355 15.5 41.7495 15.5C42.1635 15.5 42.4995 15.164 42.4995 14.75V12.5H44.064L45.279 25.865C45.318 26.2895 45.1815 26.6975 44.8935 27.0125Z" fill="#7D849A"/>
</svg>
