<svg width="76" height="51" viewBox="0 0 76 51" fill="none" xmlns="http://www.w3.org/2000/svg">
<g clip-path="url(#clip0_311_803)">
<path d="M46.4853 8.51471C44.2188 6.24823 41.2053 5 38 5C34.7946 5 31.7812 6.24823 29.5147 8.51471C27.2482 10.7812 26 13.7946 26 17C26 20.2053 27.2482 23.2188 29.5147 25.4853C31.7812 27.7518 34.7946 29 38 29C41.2053 29 44.2188 27.7518 46.4853 25.4853C48.7518 23.2188 50 20.2053 50 17C50 13.7946 48.7518 10.7812 46.4853 8.51471V8.51471ZM32.0159 25.7369C32.5178 22.8471 35.022 20.7156 38 20.7156C40.9782 20.7156 43.4822 22.8471 43.9841 25.7369C42.2803 26.9075 40.2189 27.5938 38 27.5938C35.7811 27.5938 33.7197 26.9075 32.0159 25.7369ZM34.1844 15.4938C34.1844 13.3897 35.8961 11.6782 38 11.6782C40.1039 11.6782 41.8156 13.3899 41.8156 15.4938C41.8156 17.5977 40.1039 19.3093 38 19.3093C35.8961 19.3093 34.1844 17.5977 34.1844 15.4938V15.4938ZM45.2021 24.7615C44.8236 23.4162 44.072 22.1956 43.0184 21.2422C42.372 20.6572 41.6363 20.1956 40.8453 19.8702C42.275 18.9376 43.222 17.3243 43.222 15.4938C43.222 12.6144 40.8793 10.272 38 10.272C35.1207 10.272 32.7782 12.6144 32.7782 15.4938C32.7782 17.3243 33.7252 18.9376 35.1547 19.8702C34.3639 20.1956 33.628 20.657 32.9816 21.242C31.9282 22.1954 31.1764 23.416 30.7979 24.7613C28.7133 22.8253 27.4062 20.0626 27.4062 17C27.4062 11.1586 32.1586 6.40625 38 6.40625C43.8414 6.40625 48.5938 11.1586 48.5938 17C48.5938 20.0628 47.2867 22.8255 45.2021 24.7615V24.7615Z" fill="#7D849A"/>
</g>
<path d="M18.162 50.8662V40.9962H22.348C23.4027 40.9962 24.21 41.2529 24.77 41.7662C25.3393 42.2702 25.624 42.9702 25.624 43.8662C25.624 44.7622 25.3393 45.4669 24.77 45.9802C24.21 46.4935 23.4027 46.7502 22.348 46.7502H19.618V50.8662H18.162ZM19.618 45.5882H22.194C22.8567 45.5882 23.356 45.4389 23.692 45.1402C24.028 44.8415 24.196 44.4169 24.196 43.8662C24.196 43.3249 24.028 42.9049 23.692 42.6062C23.356 42.3075 22.8567 42.1582 22.194 42.1582H19.618V45.5882ZM27.0861 50.8662V45.5602C27.0861 45.2709 27.0768 44.9815 27.0581 44.6922C27.0488 44.3935 27.0301 44.0995 27.0021 43.8102H28.3741L28.5281 45.6302H28.3041C28.3975 45.1915 28.5561 44.8275 28.7801 44.5382C29.0041 44.2489 29.2748 44.0342 29.5921 43.8942C29.9188 43.7542 30.2595 43.6842 30.6141 43.6842C30.7635 43.6842 30.8895 43.6935 30.9921 43.7122C31.0948 43.7215 31.1975 43.7402 31.3001 43.7682L31.2861 45.0282C31.1275 44.9629 30.9875 44.9255 30.8661 44.9162C30.7541 44.8975 30.6141 44.8882 30.4461 44.8882C30.0355 44.8882 29.6855 44.9815 29.3961 45.1682C29.1068 45.3455 28.8875 45.5882 28.7381 45.8962C28.5888 46.2042 28.5141 46.5355 28.5141 46.8902V50.8662H27.0861ZM35.3198 50.9922C34.6198 50.9922 34.0131 50.8475 33.4998 50.5582C32.9864 50.2595 32.5898 49.8395 32.3098 49.2982C32.0298 48.7475 31.8898 48.0942 31.8898 47.3382C31.8898 46.5822 32.0298 45.9335 32.3098 45.3922C32.5898 44.8415 32.9864 44.4215 33.4998 44.1322C34.0131 43.8335 34.6198 43.6842 35.3198 43.6842C36.0198 43.6842 36.6264 43.8335 37.1398 44.1322C37.6624 44.4215 38.0638 44.8415 38.3438 45.3922C38.6331 45.9335 38.7778 46.5822 38.7778 47.3382C38.7778 48.0942 38.6331 48.7475 38.3438 49.2982C38.0638 49.8395 37.6624 50.2595 37.1398 50.5582C36.6264 50.8475 36.0198 50.9922 35.3198 50.9922ZM35.3198 49.8862C35.9358 49.8862 36.4258 49.6715 36.7898 49.2422C37.1538 48.8129 37.3358 48.1782 37.3358 47.3382C37.3358 46.4982 37.1538 45.8682 36.7898 45.4482C36.4258 45.0189 35.9358 44.8042 35.3198 44.8042C34.7131 44.8042 34.2278 45.0189 33.8638 45.4482C33.4998 45.8682 33.3178 46.4982 33.3178 47.3382C33.3178 48.1782 33.4951 48.8129 33.8498 49.2422C34.2138 49.6715 34.7038 49.8862 35.3198 49.8862ZM40.7822 50.8662V44.9022H39.4102V43.8102H41.1742L40.7822 44.1742V43.0542C40.7822 42.2235 40.9875 41.5935 41.3982 41.1642C41.8182 40.7255 42.4248 40.5062 43.2182 40.5062C43.4048 40.5062 43.6055 40.5202 43.8202 40.5482C44.0348 40.5762 44.2168 40.6229 44.3662 40.6882V41.8362C44.2542 41.7895 44.1142 41.7522 43.9462 41.7242C43.7782 41.6869 43.6148 41.6682 43.4562 41.6682C43.0455 41.6682 42.7282 41.7895 42.5042 42.0322C42.2895 42.2655 42.1822 42.6342 42.1822 43.1382V44.0902L41.9722 43.8102H46.6622V50.8662H45.2482V44.9022H42.1962V50.8662H40.7822ZM45.1362 42.3402V40.8702H46.7742V42.3402H45.1362ZM48.7294 50.8662V40.5622H50.1434V50.8662H48.7294ZM55.4777 50.9922C54.339 50.9922 53.443 50.6702 52.7897 50.0262C52.1364 49.3822 51.8097 48.4909 51.8097 47.3522C51.8097 46.6149 51.9497 45.9709 52.2297 45.4202C52.519 44.8695 52.9157 44.4449 53.4197 44.1462C53.933 43.8382 54.5257 43.6842 55.1977 43.6842C55.8604 43.6842 56.4157 43.8242 56.8637 44.1042C57.3117 44.3842 57.6524 44.7809 57.8857 45.2942C58.119 45.7982 58.2357 46.3955 58.2357 47.0862V47.5342H52.9157V46.7222H57.2697L57.0317 46.9042C57.0317 46.2042 56.873 45.6629 56.5557 45.2802C56.2477 44.8882 55.7997 44.6922 55.2117 44.6922C54.5584 44.6922 54.0544 44.9209 53.6997 45.3782C53.345 45.8262 53.1677 46.4469 53.1677 47.2402V47.3802C53.1677 48.2109 53.3684 48.8362 53.7697 49.2562C54.1804 49.6762 54.759 49.8862 55.5057 49.8862C55.9164 49.8862 56.299 49.8302 56.6537 49.7182C57.0177 49.5969 57.363 49.4009 57.6897 49.1302L58.1517 50.0962C57.825 50.3855 57.4284 50.6095 56.9617 50.7682C56.495 50.9175 56.0004 50.9922 55.4777 50.9922Z" fill="#7D849A"/>
<defs>
<clipPath id="clip0_311_803">
<rect width="24" height="24" fill="white" transform="translate(26 5)"/>
</clipPath>
</defs>
</svg>
