<svg width="76" height="51" viewBox="0 0 76 51" fill="none" xmlns="http://www.w3.org/2000/svg">
<path d="M19.494 50.9922C18.7007 50.9922 17.982 50.8942 17.338 50.6982C16.694 50.4929 16.134 50.2035 15.658 49.8302L16.148 48.6822C16.4653 48.9249 16.792 49.1255 17.128 49.2842C17.4733 49.4429 17.8373 49.5642 18.22 49.6482C18.612 49.7229 19.0367 49.7602 19.494 49.7602C20.278 49.7602 20.852 49.6202 21.216 49.3402C21.5893 49.0602 21.776 48.6915 21.776 48.2342C21.776 47.8422 21.6453 47.5389 21.384 47.3242C21.132 47.1095 20.684 46.9369 20.04 46.8062L18.514 46.4982C17.6087 46.3115 16.932 46.0082 16.484 45.5882C16.0453 45.1589 15.826 44.5755 15.826 43.8382C15.826 43.2409 15.9847 42.7182 16.302 42.2702C16.6193 41.8222 17.058 41.4769 17.618 41.2342C18.1873 40.9915 18.85 40.8702 19.606 40.8702C20.306 40.8702 20.95 40.9729 21.538 41.1782C22.126 41.3742 22.6207 41.6682 23.022 42.0602L22.546 43.1662C22.126 42.8022 21.678 42.5362 21.202 42.3682C20.726 42.1909 20.1847 42.1022 19.578 42.1022C18.8593 42.1022 18.2947 42.2515 17.884 42.5502C17.4827 42.8489 17.282 43.2549 17.282 43.7682C17.282 44.1789 17.408 44.5009 17.66 44.7342C17.9213 44.9675 18.3507 45.1449 18.948 45.2662L20.474 45.5602C21.4167 45.7562 22.112 46.0595 22.56 46.4702C23.008 46.8715 23.232 47.4269 23.232 48.1362C23.232 48.7055 23.078 49.2049 22.77 49.6342C22.4713 50.0635 22.042 50.3995 21.482 50.6422C20.922 50.8755 20.2593 50.9922 19.494 50.9922ZM28.1574 50.9922C27.0187 50.9922 26.1227 50.6702 25.4694 50.0262C24.816 49.3822 24.4894 48.4909 24.4894 47.3522C24.4894 46.6149 24.6294 45.9709 24.9094 45.4202C25.1987 44.8695 25.5954 44.4449 26.0994 44.1462C26.6127 43.8382 27.2054 43.6842 27.8774 43.6842C28.54 43.6842 29.0954 43.8242 29.5434 44.1042C29.9914 44.3842 30.332 44.7809 30.5654 45.2942C30.7987 45.7982 30.9154 46.3955 30.9154 47.0862V47.5342H25.5954V46.7222H29.9494L29.7114 46.9042C29.7114 46.2042 29.5527 45.6629 29.2354 45.2802C28.9274 44.8882 28.4794 44.6922 27.8914 44.6922C27.238 44.6922 26.734 44.9209 26.3794 45.3782C26.0247 45.8262 25.8474 46.4469 25.8474 47.2402V47.3802C25.8474 48.2109 26.048 48.8362 26.4494 49.2562C26.86 49.6762 27.4387 49.8862 28.1854 49.8862C28.596 49.8862 28.9787 49.8302 29.3334 49.7182C29.6974 49.5969 30.0427 49.4009 30.3694 49.1302L30.8314 50.0962C30.5047 50.3855 30.108 50.6095 29.6414 50.7682C29.1747 50.9175 28.68 50.9922 28.1574 50.9922ZM35.24 50.9922C34.6146 50.9922 34.0686 50.8475 33.602 50.5582C33.1353 50.2689 32.7713 49.8489 32.51 49.2982C32.258 48.7475 32.132 48.0942 32.132 47.3382C32.132 46.5729 32.258 45.9195 32.51 45.3782C32.7713 44.8369 33.1353 44.4215 33.602 44.1322C34.0686 43.8335 34.6146 43.6842 35.24 43.6842C35.856 43.6842 36.3926 43.8382 36.85 44.1462C37.3073 44.4542 37.6106 44.8742 37.76 45.4062H37.606L37.746 43.8102H39.118C39.09 44.0995 39.062 44.3889 39.034 44.6782C39.0153 44.9582 39.006 45.2335 39.006 45.5042V50.8662H37.592V49.2982H37.746C37.5966 49.8209 37.2886 50.2362 36.822 50.5442C36.3646 50.8429 35.8373 50.9922 35.24 50.9922ZM35.59 49.8862C36.1966 49.8862 36.682 49.6715 37.046 49.2422C37.4193 48.8129 37.606 48.1782 37.606 47.3382C37.606 46.4982 37.4193 45.8682 37.046 45.4482C36.682 45.0189 36.1966 44.8042 35.59 44.8042C34.974 44.8042 34.4793 45.0189 34.106 45.4482C33.742 45.8682 33.56 46.4982 33.56 47.3382C33.56 48.1782 33.742 48.8129 34.106 49.2422C34.47 49.6715 34.9646 49.8862 35.59 49.8862ZM41.0412 50.8662V45.5602C41.0412 45.2709 41.0319 44.9815 41.0132 44.6922C41.0039 44.3935 40.9852 44.0995 40.9572 43.8102H42.3292L42.4832 45.6302H42.2592C42.3525 45.1915 42.5112 44.8275 42.7352 44.5382C42.9592 44.2489 43.2299 44.0342 43.5472 43.8942C43.8739 43.7542 44.2145 43.6842 44.5692 43.6842C44.7185 43.6842 44.8445 43.6935 44.9472 43.7122C45.0499 43.7215 45.1525 43.7402 45.2552 43.7682L45.2412 45.0282C45.0825 44.9629 44.9425 44.9255 44.8212 44.9162C44.7092 44.8975 44.5692 44.8882 44.4012 44.8882C43.9905 44.8882 43.6405 44.9815 43.3512 45.1682C43.0619 45.3455 42.8425 45.5882 42.6932 45.8962C42.5439 46.2042 42.4692 46.5355 42.4692 46.8902V50.8662H41.0412ZM49.3448 50.9922C48.6355 50.9922 48.0148 50.8475 47.4828 50.5582C46.9602 50.2595 46.5542 49.8349 46.2648 49.2842C45.9848 48.7242 45.8448 48.0615 45.8448 47.2962C45.8448 46.5402 45.9895 45.8915 46.2788 45.3502C46.5682 44.8089 46.9742 44.3982 47.4968 44.1182C48.0195 43.8289 48.6355 43.6842 49.3448 43.6842C49.8022 43.6842 50.2455 43.7635 50.6748 43.9222C51.1042 44.0715 51.4588 44.2862 51.7388 44.5662L51.2768 45.5602C51.0155 45.3082 50.7215 45.1215 50.3948 45.0002C50.0682 44.8695 49.7508 44.8042 49.4428 44.8042C48.7708 44.8042 48.2435 45.0189 47.8608 45.4482C47.4782 45.8775 47.2868 46.4982 47.2868 47.3102C47.2868 48.1315 47.4782 48.7615 47.8608 49.2002C48.2435 49.6389 48.7708 49.8582 49.4428 49.8582C49.7415 49.8582 50.0542 49.8022 50.3808 49.6902C50.7075 49.5689 51.0062 49.3775 51.2768 49.1162L51.7388 50.1102C51.4495 50.3902 51.0855 50.6095 50.6468 50.7682C50.2175 50.9175 49.7835 50.9922 49.3448 50.9922ZM53.2372 50.8662V40.5622H54.6512V45.3082H54.4552C54.6605 44.7762 54.9918 44.3749 55.4492 44.1042C55.9065 43.8242 56.4338 43.6842 57.0312 43.6842C57.8712 43.6842 58.4965 43.9175 58.9072 44.3842C59.3178 44.8415 59.5232 45.5369 59.5232 46.4702V50.8662H58.1092V46.5542C58.1092 45.9475 57.9878 45.5089 57.7452 45.2382C57.5118 44.9582 57.1385 44.8182 56.6252 44.8182C56.0278 44.8182 55.5472 45.0049 55.1832 45.3782C54.8285 45.7422 54.6512 46.2275 54.6512 46.8342V50.8662H53.2372Z" fill="#FF7F56"/>
<path fill-rule="evenodd" clip-rule="evenodd" d="M37 8.75C32.9959 8.75 29.75 11.9959 29.75 16C29.75 20.0041 32.9959 23.25 37 23.25C41.0041 23.25 44.25 20.0041 44.25 16C44.25 11.9959 41.0041 8.75 37 8.75ZM28.25 16C28.25 11.1675 32.1675 7.25 37 7.25C41.8325 7.25 45.75 11.1675 45.75 16C45.75 20.8325 41.8325 24.75 37 24.75C32.1675 24.75 28.25 20.8325 28.25 16Z" fill="#FF7F56"/>
<path fill-rule="evenodd" clip-rule="evenodd" d="M41.9429 20.9428C42.3334 20.5523 42.9666 20.5523 43.3571 20.9428L47.7071 25.2928C48.0977 25.6833 48.0977 26.3165 47.7071 26.707C47.3166 27.0975 46.6834 27.0975 46.2929 26.707L41.9429 22.357C41.5524 21.9665 41.5524 21.3333 41.9429 20.9428Z" fill="#FF7F56"/>
</svg>
